<svg xmlns="http://www.w3.org/2000/svg" data-name="Layer 1" viewBox="0 0 24 24" id="Bot"><path d="M16.5 9H13V6.908a1.5 1.5 0 1 0-1 0V9H8.5A2.5 2.5 0 0 0 6 11.5v7A2.5 2.5 0 0 0 8.5 21h8a2.5 2.5 0 0 0 2.5-2.5v-7A2.5 2.5 0 0 0 16.5 9Zm-4-4a.5.5 0 1 1-.5.5.5.5 0 0 1 .5-.5ZM18 18.5a1.5 1.5 0 0 1-1.5 1.5h-8A1.5 1.5 0 0 1 7 18.5v-1h2.293l.853.854a.5.5 0 0 0 .354.146h4a.5.5 0 0 0 .354-.146l.853-.854H18Zm0-2h-2.5a.5.5 0 0 0-.354.146l-.853.854h-3.586l-.853-.854A.5.5 0 0 0 9.5 16.5H7v-5A1.5 1.5 0 0 1 8.5 10h8a1.5 1.5 0 0 1 1.5 1.5ZM11 13v1a.5.5 0 0 1-1 0v-1a.5.5 0 0 1 1 0Zm4 0v1a.5.5 0 0 1-1 0v-1a.5.5 0 0 1 1 0Z" fill="#ffffff" class="color000000 svgShape"></path></svg>