<svg width="1471" height="1471" viewBox="0 0 1471 1471" fill="none" xmlns="http://www.w3.org/2000/svg">
<g clip-path="url(#clip0_172_2653)">
<mask id="mask0_172_2653" style="mask-type:luminance" maskUnits="userSpaceOnUse" x="0" y="0" width="1471" height="1471">
<path d="M1471 0H0V1471H1471V0Z" fill="white"/>
</mask>
<g mask="url(#mask0_172_2653)">
<path d="M0 258.54C0 238.845 15.9658 222.879 35.6606 222.879H1372.93C1392.63 222.879 1408.59 238.845 1408.59 258.54V1212.46C1408.59 1232.15 1392.63 1248.12 1372.93 1248.12H35.6606C15.9658 1248.12 0 1232.15 0 1212.46V258.54Z" fill="#F2F2F3"/>
<path fill-rule="evenodd" clip-rule="evenodd" d="M1408.59 419.012H0V401.182H1408.59V419.012Z" fill="#E6E7E8"/>
<path d="M89.1516 338.776C98.999 338.776 106.982 330.793 106.982 320.946C106.982 311.098 98.999 303.115 89.1516 303.115C79.3042 303.115 71.3213 311.098 71.3213 320.946C71.3213 330.793 79.3042 338.776 89.1516 338.776Z" fill="#CCCDD0"/>
<path d="M142.643 338.776C152.49 338.776 160.473 330.793 160.473 320.946C160.473 311.098 152.49 303.115 142.643 303.115C132.795 303.115 124.812 311.098 124.812 320.946C124.812 330.793 132.795 338.776 142.643 338.776Z" fill="#CCCDD0"/>
<path d="M196.133 338.776C205.98 338.776 213.963 330.793 213.963 320.946C213.963 311.098 205.98 303.115 196.133 303.115C186.286 303.115 178.303 311.098 178.303 320.946C178.303 330.793 186.286 338.776 196.133 338.776Z" fill="#CCCDD0"/>
<path d="M526 1074C526 1069.03 521.565 1065 516.093 1065H109.907C104.435 1065 100 1069.03 100 1074C100 1078.97 104.435 1083 109.907 1083H516.093C521.565 1083 526 1078.97 526 1074Z" fill="#CCCDD0"/>
<path d="M659 1127C659 1131.97 653.18 1136 646 1136H113C105.82 1136 100 1131.97 100 1127C100 1122.03 105.82 1118 113 1118H646C653.18 1118 659 1122.03 659 1127Z" fill="#CCCDD0"/>
<path d="M766.703 1183.38C766.703 1188.3 762.712 1192.29 757.788 1192.29H392.267C387.343 1192.29 383.352 1188.3 383.352 1183.38C383.352 1178.45 387.343 1174.46 392.267 1174.46H757.788C762.712 1174.46 766.703 1178.45 766.703 1183.38Z" fill="#CCCDD0"/>
<path d="M109.92 1172C104.441 1172 100 1176.03 100 1181C100 1185.97 104.441 1190 109.92 1190H338.08C343.559 1190 348 1185.97 348 1181C348 1176.03 343.559 1172 338.08 1172H109.92Z" fill="#CCCDD0"/>
<path d="M1127.77 124.812C1135.15 124.812 1141.14 118.824 1141.14 111.439C1141.14 104.054 1135.15 98.0664 1127.77 98.0664C1120.38 98.0664 1114.39 104.054 1114.39 111.439C1114.39 118.824 1120.38 124.812 1127.77 124.812Z" fill="#CCCDD0"/>
<path d="M1127.77 169.388C1135.15 169.388 1141.14 163.401 1141.14 156.015C1141.14 148.63 1135.15 142.643 1127.77 142.643C1120.38 142.643 1114.39 148.63 1114.39 156.015C1114.39 163.401 1120.38 169.388 1127.77 169.388Z" fill="#CCCDD0"/>
<path d="M1172.34 124.812C1179.72 124.812 1185.72 118.824 1185.72 111.439C1185.72 104.054 1179.72 98.0664 1172.34 98.0664C1164.96 98.0664 1158.97 104.054 1158.97 111.439C1158.97 118.824 1164.96 124.812 1172.34 124.812Z" fill="#CCCDD0"/>
<path d="M1172.34 169.388C1179.72 169.388 1185.72 163.401 1185.72 156.015C1185.72 148.63 1179.72 142.643 1172.34 142.643C1164.96 142.643 1158.97 148.63 1158.97 156.015C1158.97 163.401 1164.96 169.388 1172.34 169.388Z" fill="#CCCDD0"/>
<path d="M164.93 1328.36C172.316 1328.36 178.303 1322.37 178.303 1314.99C178.303 1307.6 172.316 1301.61 164.93 1301.61C157.545 1301.61 151.558 1307.6 151.558 1314.99C151.558 1322.37 157.545 1328.36 164.93 1328.36Z" fill="#CCCDD0"/>
<path d="M164.93 1372.93C172.316 1372.93 178.303 1366.94 178.303 1359.56C178.303 1352.18 172.316 1346.19 164.93 1346.19C157.545 1346.19 151.558 1352.18 151.558 1359.56C151.558 1366.94 157.545 1372.93 164.93 1372.93Z" fill="#CCCDD0"/>
<path d="M209.507 1328.36C216.892 1328.36 222.879 1322.37 222.879 1314.99C222.879 1307.6 216.892 1301.61 209.507 1301.61C202.121 1301.61 196.134 1307.6 196.134 1314.99C196.134 1322.37 202.121 1328.36 209.507 1328.36Z" fill="#CCCDD0"/>
<path d="M209.507 1372.93C216.892 1372.93 222.879 1366.94 222.879 1359.56C222.879 1352.18 216.892 1346.19 209.507 1346.19C202.121 1346.19 196.134 1352.18 196.134 1359.56C196.134 1366.94 202.121 1372.93 209.507 1372.93Z" fill="#CCCDD0"/>
<path d="M254.082 1328.36C261.467 1328.36 267.454 1322.37 267.454 1314.99C267.454 1307.6 261.467 1301.61 254.082 1301.61C246.696 1301.61 240.709 1307.6 240.709 1314.99C240.709 1322.37 246.696 1328.36 254.082 1328.36Z" fill="#CCCDD0"/>
<path d="M254.082 1372.93C261.467 1372.93 267.454 1366.94 267.454 1359.56C267.454 1352.18 261.467 1346.19 254.082 1346.19C246.696 1346.19 240.709 1352.18 240.709 1359.56C240.709 1366.94 246.696 1372.93 254.082 1372.93Z" fill="#CCCDD0"/>
<path d="M298.658 1328.36C306.043 1328.36 312.031 1322.37 312.031 1314.99C312.031 1307.6 306.043 1301.61 298.658 1301.61C291.273 1301.61 285.285 1307.6 285.285 1314.99C285.285 1322.37 291.273 1328.36 298.658 1328.36Z" fill="#CCCDD0"/>
<path d="M298.658 1372.93C306.043 1372.93 312.031 1366.94 312.031 1359.56C312.031 1352.18 306.043 1346.19 298.658 1346.19C291.273 1346.19 285.285 1352.18 285.285 1359.56C285.285 1366.94 291.273 1372.93 298.658 1372.93Z" fill="#CCCDD0"/>
</g>
<path d="M102 462.956C102 448.62 111.928 437 124.175 437H966.825C979.072 437 989 448.62 989 462.956V995.044C989 1009.38 979.072 1021 966.825 1021H124.175C111.928 1021 102 1009.38 102 995.044V462.956Z" fill="url(#paint0_linear_172_2653)"/>
<path fill-rule="evenodd" clip-rule="evenodd" d="M545.152 807.473C584.539 807.473 616.473 775.539 616.473 736.152C616.473 696.764 584.539 664.83 545.152 664.83C505.764 664.83 473.83 696.764 473.83 736.152C473.83 775.539 505.764 807.473 545.152 807.473ZM545.152 825.303C594.39 825.303 634.303 785.39 634.303 736.152C634.303 686.913 594.39 647 545.152 647C495.913 647 456 686.913 456 736.152C456 785.39 495.913 825.303 545.152 825.303Z" fill="white"/>
<path d="M526.211 704.91C522.627 702.422 518 705.329 518 710.072V769.25C518 773.993 522.627 776.9 526.211 774.412L568.923 744.823C572.347 742.46 572.347 736.862 568.923 734.499L526.211 704.91Z" fill="white"/>
<path d="M1059 455.667C1059 447.566 1065.56 441 1073.65 441H1337.35C1345.44 441 1352 447.566 1352 455.667V668.333C1352 676.437 1345.44 683 1337.35 683H1073.65C1065.56 683 1059 676.437 1059 668.333V455.667Z" fill="#CCCDD0"/>
<mask id="mask1_172_2653" style="mask-type:luminance" maskUnits="userSpaceOnUse" x="1132" y="492" width="148" height="147">
<path fill-rule="evenodd" clip-rule="evenodd" d="M1205.67 624.333C1238.07 624.333 1264.33 598.065 1264.33 565.666C1264.33 533.268 1238.07 507 1205.67 507C1173.27 507 1147 533.268 1147 565.666C1147 598.065 1173.27 624.333 1205.67 624.333ZM1205.67 639C1246.17 639 1279 606.168 1279 565.666C1279 525.164 1246.17 492.333 1205.67 492.333C1165.17 492.333 1132.33 525.164 1132.33 565.666C1132.33 606.168 1165.17 639 1205.67 639Z" fill="white"/>
</mask>
<g mask="url(#mask1_172_2653)">
<path d="M1249.67 565.666C1249.67 589.969 1229.97 609.666 1205.67 609.666V638.999C1246.17 638.999 1279 606.168 1279 565.666H1249.67ZM1205.67 521.666C1229.97 521.666 1249.67 541.363 1249.67 565.666H1279C1279 525.164 1246.17 492.333 1205.67 492.333V521.666ZM1161.67 565.666C1161.67 541.363 1181.37 521.666 1205.67 521.666V492.333C1165.17 492.333 1132.33 525.164 1132.33 565.666H1161.67ZM1205.67 609.666C1181.37 609.666 1161.67 589.969 1161.67 565.666H1132.33C1132.33 606.168 1165.17 638.999 1205.67 638.999V609.666ZM1264.33 565.666C1264.33 598.065 1238.07 624.333 1205.67 624.333V653.666C1254.27 653.666 1293.67 614.264 1293.67 565.666H1264.33ZM1205.67 506.999C1238.07 506.999 1264.33 533.267 1264.33 565.666H1293.67C1293.67 517.068 1254.27 477.666 1205.67 477.666V506.999ZM1147 565.666C1147 533.267 1173.27 506.999 1205.67 506.999V477.666C1157.07 477.666 1117.67 517.068 1117.67 565.666H1147ZM1205.67 624.333C1173.27 624.333 1147 598.065 1147 565.666H1117.67C1117.67 614.264 1157.07 653.666 1205.67 653.666V624.333Z" fill="#999CA1"/>
</g>
<path d="M1197.76 536.753C1194.8 534.695 1191 537.099 1191 541.023V589.977C1191 593.901 1194.8 596.305 1197.76 594.247L1232.89 569.77C1235.7 567.816 1235.7 563.184 1232.89 561.23L1197.76 536.753Z" fill="#80838A"/>
<path d="M1059 728.667C1059 720.566 1065.56 714 1073.65 714H1337.35C1345.44 714 1352 720.566 1352 728.667V941.333C1352 949.437 1345.44 956 1337.35 956H1073.65C1065.56 956 1059 949.437 1059 941.333V728.667Z" fill="#CCCDD0"/>
<mask id="mask2_172_2653" style="mask-type:luminance" maskUnits="userSpaceOnUse" x="1132" y="765" width="148" height="147">
<path fill-rule="evenodd" clip-rule="evenodd" d="M1205.67 897.333C1238.07 897.333 1264.33 871.065 1264.33 838.666C1264.33 806.268 1238.07 780 1205.67 780C1173.27 780 1147 806.268 1147 838.666C1147 871.065 1173.27 897.333 1205.67 897.333ZM1205.67 912C1246.17 912 1279 879.168 1279 838.666C1279 798.164 1246.17 765.333 1205.67 765.333C1165.17 765.333 1132.33 798.164 1132.33 838.666C1132.33 879.168 1165.17 912 1205.67 912Z" fill="white"/>
</mask>
<g mask="url(#mask2_172_2653)">
<path d="M1249.67 838.666C1249.67 862.969 1229.97 882.666 1205.67 882.666V911.999C1246.17 911.999 1279 879.168 1279 838.666H1249.67ZM1205.67 794.666C1229.97 794.666 1249.67 814.363 1249.67 838.666H1279C1279 798.164 1246.17 765.333 1205.67 765.333V794.666ZM1161.67 838.666C1161.67 814.363 1181.37 794.666 1205.67 794.666V765.333C1165.17 765.333 1132.33 798.164 1132.33 838.666H1161.67ZM1205.67 882.666C1181.37 882.666 1161.67 862.969 1161.67 838.666H1132.33C1132.33 879.168 1165.17 911.999 1205.67 911.999V882.666ZM1264.33 838.666C1264.33 871.065 1238.07 897.333 1205.67 897.333V926.666C1254.27 926.666 1293.67 887.264 1293.67 838.666H1264.33ZM1205.67 779.999C1238.07 779.999 1264.33 806.267 1264.33 838.666H1293.67C1293.67 790.068 1254.27 750.666 1205.67 750.666V779.999ZM1147 838.666C1147 806.267 1173.27 779.999 1205.67 779.999V750.666C1157.07 750.666 1117.67 790.068 1117.67 838.666H1147ZM1205.67 897.333C1173.27 897.333 1147 871.065 1147 838.666H1117.67C1117.67 887.264 1157.07 926.666 1205.67 926.666V897.333Z" fill="#999CA1"/>
</g>
<path d="M1197.76 809.753C1194.8 807.695 1191 810.099 1191 814.023V862.977C1191 866.901 1194.8 869.305 1197.76 867.247L1232.89 842.77C1235.7 840.816 1235.7 836.184 1232.89 834.23L1197.76 809.753Z" fill="#80838A"/>
<path d="M1059 1001.67C1059 993.566 1065.56 987 1073.65 987H1337.35C1345.44 987 1352 993.566 1352 1001.67V1214.33C1352 1222.44 1345.44 1229 1337.35 1229H1073.65C1065.56 1229 1059 1222.44 1059 1214.33V1001.67Z" fill="#CCCDD0"/>
<mask id="mask3_172_2653" style="mask-type:luminance" maskUnits="userSpaceOnUse" x="1132" y="1038" width="148" height="147">
<path fill-rule="evenodd" clip-rule="evenodd" d="M1205.67 1170.33C1238.07 1170.33 1264.33 1144.07 1264.33 1111.67C1264.33 1079.27 1238.07 1053 1205.67 1053C1173.27 1053 1147 1079.27 1147 1111.67C1147 1144.07 1173.27 1170.33 1205.67 1170.33ZM1205.67 1185C1246.17 1185 1279 1152.17 1279 1111.67C1279 1071.16 1246.17 1038.33 1205.67 1038.33C1165.17 1038.33 1132.33 1071.16 1132.33 1111.67C1132.33 1152.17 1165.17 1185 1205.67 1185Z" fill="white"/>
</mask>
<g mask="url(#mask3_172_2653)">
<path d="M1249.67 1111.67C1249.67 1135.97 1229.97 1155.67 1205.67 1155.67V1185C1246.17 1185 1279 1152.17 1279 1111.67H1249.67ZM1205.67 1067.67C1229.97 1067.67 1249.67 1087.36 1249.67 1111.67H1279C1279 1071.16 1246.17 1038.33 1205.67 1038.33V1067.67ZM1161.67 1111.67C1161.67 1087.36 1181.37 1067.67 1205.67 1067.67V1038.33C1165.17 1038.33 1132.33 1071.16 1132.33 1111.67H1161.67ZM1205.67 1155.67C1181.37 1155.67 1161.67 1135.97 1161.67 1111.67H1132.33C1132.33 1152.17 1165.17 1185 1205.67 1185V1155.67ZM1264.33 1111.67C1264.33 1144.06 1238.07 1170.33 1205.67 1170.33V1199.67C1254.27 1199.67 1293.67 1160.26 1293.67 1111.67H1264.33ZM1205.67 1053C1238.07 1053 1264.33 1079.27 1264.33 1111.67H1293.67C1293.67 1063.07 1254.27 1023.67 1205.67 1023.67V1053ZM1147 1111.67C1147 1079.27 1173.27 1053 1205.67 1053V1023.67C1157.07 1023.67 1117.67 1063.07 1117.67 1111.67H1147ZM1205.67 1170.33C1173.27 1170.33 1147 1144.06 1147 1111.67H1117.67C1117.67 1160.26 1157.07 1199.67 1205.67 1199.67V1170.33Z" fill="#999CA1"/>
</g>
<path d="M1197.76 1082.75C1194.8 1080.7 1191 1083.1 1191 1087.02V1135.98C1191 1139.9 1194.8 1142.3 1197.76 1140.25L1232.89 1115.77C1235.7 1113.82 1235.7 1109.18 1232.89 1107.23L1197.76 1082.75Z" fill="#80838A"/>
</g>
<defs>
<linearGradient id="paint0_linear_172_2653" x1="-70.9813" y1="729.25" x2="1669.22" y2="1034.61" gradientUnits="userSpaceOnUse">
<stop stop-color="#FF9F92"/>
<stop offset="1" stop-color="#FF757A"/>
</linearGradient>
<clipPath id="clip0_172_2653">
<rect width="1471" height="1471" fill="white"/>
</clipPath>
</defs>
</svg>
