<svg width="6635" height="5499" viewBox="0 0 6635 5499" fill="none" xmlns="http://www.w3.org/2000/svg">
<path d="M5965.52 2259.37C5995.23 2259.37 6019.32 2235.28 6019.32 2205.58C6019.32 2175.87 5995.23 2151.78 5965.52 2151.78C5935.81 2151.78 5911.72 2175.87 5911.72 2205.58C5911.72 2235.28 5935.81 2259.37 5965.52 2259.37Z" fill="#FEAD6F"/>
<path d="M137.482 2317.95C153.988 2317.95 167.37 2304.57 167.37 2288.06C167.37 2271.55 153.988 2258.18 137.482 2258.18C120.976 2258.18 107.595 2271.55 107.595 2288.06C107.595 2304.57 120.976 2317.95 137.482 2317.95Z" fill="#7179FD"/>
<path d="M6043.23 2043C6059.74 2043 6073.12 2029.62 6073.12 2013.11C6073.12 1996.6 6059.74 1983.23 6043.23 1983.23C6026.72 1983.23 6013.34 1996.6 6013.34 2013.11C6013.34 2029.62 6026.72 2043 6043.23 2043Z" fill="#CCCDD0"/>
<path d="M6306.24 2760.26C6316.14 2760.26 6324.17 2752.23 6324.17 2742.33C6324.17 2732.43 6316.14 2724.4 6306.24 2724.4C6296.34 2724.4 6288.31 2732.43 6288.31 2742.33C6288.31 2752.23 6296.34 2760.26 6306.24 2760.26Z" fill="#CCCDD0"/>
<path d="M6366.01 2760.26C6375.91 2760.26 6383.95 2752.23 6383.95 2742.33C6383.95 2732.43 6375.91 2724.4 6366.01 2724.4C6356.11 2724.4 6348.08 2732.43 6348.08 2742.33C6348.08 2752.23 6356.11 2760.26 6366.01 2760.26Z" fill="#CCCDD0"/>
<path d="M6425.79 2760.26C6435.69 2760.26 6443.72 2752.23 6443.72 2742.33C6443.72 2732.43 6435.69 2724.4 6425.79 2724.4C6415.89 2724.4 6407.86 2732.43 6407.86 2742.33C6407.86 2752.23 6415.89 2760.26 6425.79 2760.26Z" fill="#CCCDD0"/>
<path d="M6425.79 2879.8C6435.69 2879.8 6443.72 2871.77 6443.72 2861.87C6443.72 2851.97 6435.69 2843.94 6425.79 2843.94C6415.89 2843.94 6407.86 2851.97 6407.86 2861.87C6407.86 2871.77 6415.89 2879.8 6425.79 2879.8Z" fill="#CCCDD0"/>
<path d="M6485.56 2879.8C6495.46 2879.8 6503.5 2871.77 6503.5 2861.87C6503.5 2851.97 6495.46 2843.94 6485.56 2843.94C6475.66 2843.94 6467.63 2851.97 6467.63 2861.87C6467.63 2871.77 6475.66 2879.8 6485.56 2879.8Z" fill="#CCCDD0"/>
<path d="M345.497 2555.84L284.527 2591.7L231.925 2659.84L338.324 2722L399.294 2684.95L345.497 2555.84Z" fill="#FF9F92"/>
<path d="M284.527 2690.92L338.324 2722L312.023 2656.26L284.527 2591.7L258.226 2626.37L231.925 2659.84L284.527 2690.92Z" fill="#F54F52"/>
<path d="M17.9324 2413.58C27.8363 2413.58 35.8649 2405.55 35.8649 2395.65C35.8649 2385.75 27.8363 2377.72 17.9324 2377.72C8.02862 2377.72 0 2385.75 0 2395.65C0 2405.55 8.02862 2413.58 17.9324 2413.58Z" fill="#CCCDD0"/>
<path d="M77.7068 2413.58C87.6107 2413.58 95.6393 2405.55 95.6393 2395.65C95.6393 2385.75 87.6107 2377.72 77.7068 2377.72C67.803 2377.72 59.7744 2385.75 59.7744 2395.65C59.7744 2405.55 67.803 2413.58 77.7068 2413.58Z" fill="#CCCDD0"/>
<path d="M137.482 2413.58C147.386 2413.58 155.415 2405.55 155.415 2395.65C155.415 2385.75 147.386 2377.72 137.482 2377.72C127.579 2377.72 119.55 2385.75 119.55 2395.65C119.55 2405.55 127.579 2413.58 137.482 2413.58Z" fill="#CCCDD0"/>
<path d="M197.257 2413.58C207.16 2413.58 215.189 2405.55 215.189 2395.65C215.189 2385.75 207.16 2377.72 197.257 2377.72C187.353 2377.72 179.324 2385.75 179.324 2395.65C179.324 2405.55 187.353 2413.58 197.257 2413.58Z" fill="#CCCDD0"/>
<path d="M257.031 2413.58C266.935 2413.58 274.963 2405.55 274.963 2395.65C274.963 2385.75 266.935 2377.72 257.031 2377.72C247.128 2377.72 239.099 2385.75 239.099 2395.65C239.099 2405.55 247.128 2413.58 257.031 2413.58Z" fill="#CCCDD0"/>
<path d="M17.9324 2473.35C27.8363 2473.35 35.8649 2465.32 35.8649 2455.42C35.8649 2445.52 27.8363 2437.49 17.9324 2437.49C8.02862 2437.49 0 2445.52 0 2455.42C0 2465.32 8.02862 2473.35 17.9324 2473.35Z" fill="#CCCDD0"/>
<path d="M77.7068 2473.35C87.6107 2473.35 95.6393 2465.32 95.6393 2455.42C95.6393 2445.52 87.6107 2437.49 77.7068 2437.49C67.803 2437.49 59.7744 2445.52 59.7744 2455.42C59.7744 2465.32 67.803 2473.35 77.7068 2473.35Z" fill="#CCCDD0"/>
<path d="M137.482 2473.35C147.386 2473.35 155.415 2465.32 155.415 2455.42C155.415 2445.52 147.386 2437.49 137.482 2437.49C127.579 2437.49 119.55 2445.52 119.55 2455.42C119.55 2465.32 127.579 2473.35 137.482 2473.35Z" fill="#CCCDD0"/>
<path d="M17.9324 3011.3C27.8363 3011.3 35.8649 3003.27 35.8649 2993.37C35.8649 2983.47 27.8363 2975.44 17.9324 2975.44C8.02862 2975.44 0 2983.47 0 2993.37C0 3003.27 8.02862 3011.3 17.9324 3011.3Z" fill="#CCCDD0"/>
<path d="M17.9324 3071.07C27.8363 3071.07 35.8649 3063.04 35.8649 3053.14C35.8649 3043.24 27.8363 3035.21 17.9324 3035.21C8.02862 3035.21 0 3043.24 0 3053.14C0 3063.04 8.02862 3071.07 17.9324 3071.07Z" fill="#CCCDD0"/>
<path d="M17.9324 3130.84C27.8363 3130.84 35.8649 3122.81 35.8649 3112.91C35.8649 3103.01 27.8363 3094.98 17.9324 3094.98C8.02862 3094.98 0 3103.01 0 3112.91C0 3122.81 8.02862 3130.84 17.9324 3130.84Z" fill="#CCCDD0"/>
<path d="M17.9324 3190.61C27.8363 3190.61 35.8649 3182.58 35.8649 3172.68C35.8649 3162.79 27.8363 3154.75 17.9324 3154.75C8.02862 3154.75 0 3162.79 0 3172.68C0 3182.58 8.02862 3190.61 17.9324 3190.61Z" fill="#CCCDD0"/>
<path d="M17.9324 3250.39C27.8363 3250.39 35.8649 3242.35 35.8649 3232.46C35.8649 3222.56 27.8363 3214.52 17.9324 3214.52C8.02862 3214.52 0 3222.56 0 3232.46C0 3242.35 8.02862 3250.39 17.9324 3250.39Z" fill="#CCCDD0"/>
<path d="M77.7068 3011.3C87.6107 3011.3 95.6393 3003.27 95.6393 2993.37C95.6393 2983.47 87.6107 2975.44 77.7068 2975.44C67.803 2975.44 59.7744 2983.47 59.7744 2993.37C59.7744 3003.27 67.803 3011.3 77.7068 3011.3Z" fill="#CCCDD0"/>
<path d="M77.7068 3071.07C87.6107 3071.07 95.6393 3063.04 95.6393 3053.14C95.6393 3043.24 87.6107 3035.21 77.7068 3035.21C67.803 3035.21 59.7744 3043.24 59.7744 3053.14C59.7744 3063.04 67.803 3071.07 77.7068 3071.07Z" fill="#CCCDD0"/>
<path d="M77.7068 3130.84C87.6107 3130.84 95.6393 3122.81 95.6393 3112.91C95.6393 3103.01 87.6107 3094.98 77.7068 3094.98C67.803 3094.98 59.7744 3103.01 59.7744 3112.91C59.7744 3122.81 67.803 3130.84 77.7068 3130.84Z" fill="#CCCDD0"/>
<path d="M77.7068 3190.61C87.6107 3190.61 95.6393 3182.58 95.6393 3172.68C95.6393 3162.79 87.6107 3154.75 77.7068 3154.75C67.803 3154.75 59.7744 3162.79 59.7744 3172.68C59.7744 3182.58 67.803 3190.61 77.7068 3190.61Z" fill="#CCCDD0"/>
<path d="M77.7068 3250.39C87.6107 3250.39 95.6393 3242.35 95.6393 3232.46C95.6393 3222.56 87.6107 3214.52 77.7068 3214.52C67.803 3214.52 59.7744 3222.56 59.7744 3232.46C59.7744 3242.35 67.803 3250.39 77.7068 3250.39Z" fill="#CCCDD0"/>
<path d="M137.482 3011.3C147.386 3011.3 155.415 3003.27 155.415 2993.37C155.415 2983.47 147.386 2975.44 137.482 2975.44C127.579 2975.44 119.55 2983.47 119.55 2993.37C119.55 3003.27 127.579 3011.3 137.482 3011.3Z" fill="#CCCDD0"/>
<path d="M137.482 3071.07C147.386 3071.07 155.415 3063.04 155.415 3053.14C155.415 3043.24 147.386 3035.21 137.482 3035.21C127.579 3035.21 119.55 3043.24 119.55 3053.14C119.55 3063.04 127.579 3071.07 137.482 3071.07Z" fill="#CCCDD0"/>
<path d="M137.482 3130.84C147.386 3130.84 155.415 3122.81 155.415 3112.91C155.415 3103.01 147.386 3094.98 137.482 3094.98C127.579 3094.98 119.55 3103.01 119.55 3112.91C119.55 3122.81 127.579 3130.84 137.482 3130.84Z" fill="#CCCDD0"/>
<path d="M137.482 3190.61C147.386 3190.61 155.415 3182.58 155.415 3172.68C155.415 3162.79 147.386 3154.75 137.482 3154.75C127.579 3154.75 119.55 3162.79 119.55 3172.68C119.55 3182.58 127.579 3190.61 137.482 3190.61Z" fill="#CCCDD0"/>
<path d="M137.482 3250.39C147.386 3250.39 155.415 3242.35 155.415 3232.46C155.415 3222.56 147.386 3214.52 137.482 3214.52C127.579 3214.52 119.55 3222.56 119.55 3232.46C119.55 3242.35 127.579 3250.39 137.482 3250.39Z" fill="#CCCDD0"/>
<path d="M197.257 3011.3C207.16 3011.3 215.189 3003.27 215.189 2993.37C215.189 2983.47 207.16 2975.44 197.257 2975.44C187.353 2975.44 179.324 2983.47 179.324 2993.37C179.324 3003.27 187.353 3011.3 197.257 3011.3Z" fill="#CCCDD0"/>
<path d="M197.257 3071.07C207.16 3071.07 215.189 3063.04 215.189 3053.14C215.189 3043.24 207.16 3035.21 197.257 3035.21C187.353 3035.21 179.324 3043.24 179.324 3053.14C179.324 3063.04 187.353 3071.07 197.257 3071.07Z" fill="#CCCDD0"/>
<path d="M197.257 3130.84C207.16 3130.84 215.189 3122.81 215.189 3112.91C215.189 3103.01 207.16 3094.98 197.257 3094.98C187.353 3094.98 179.324 3103.01 179.324 3112.91C179.324 3122.81 187.353 3130.84 197.257 3130.84Z" fill="#CCCDD0"/>
<path d="M197.257 3190.61C207.16 3190.61 215.189 3182.58 215.189 3172.68C215.189 3162.79 207.16 3154.75 197.257 3154.75C187.353 3154.75 179.324 3162.79 179.324 3172.68C179.324 3182.58 187.353 3190.61 197.257 3190.61Z" fill="#CCCDD0"/>
<path d="M197.257 3250.39C207.16 3250.39 215.189 3242.35 215.189 3232.46C215.189 3222.56 207.16 3214.52 197.257 3214.52C187.353 3214.52 179.324 3222.56 179.324 3232.46C179.324 3242.35 187.353 3250.39 197.257 3250.39Z" fill="#CCCDD0"/>
<path d="M257.031 3011.3C266.935 3011.3 274.963 3003.27 274.963 2993.37C274.963 2983.47 266.935 2975.44 257.031 2975.44C247.128 2975.44 239.099 2983.47 239.099 2993.37C239.099 3003.27 247.128 3011.3 257.031 3011.3Z" fill="#CCCDD0"/>
<path d="M257.031 3071.07C266.935 3071.07 274.963 3063.04 274.963 3053.14C274.963 3043.24 266.935 3035.21 257.031 3035.21C247.128 3035.21 239.099 3043.24 239.099 3053.14C239.099 3063.04 247.128 3071.07 257.031 3071.07Z" fill="#CCCDD0"/>
<path d="M257.031 3130.84C266.935 3130.84 274.963 3122.81 274.963 3112.91C274.963 3103.01 266.935 3094.98 257.031 3094.98C247.128 3094.98 239.099 3103.01 239.099 3112.91C239.099 3122.81 247.128 3130.84 257.031 3130.84Z" fill="#CCCDD0"/>
<path d="M257.031 3190.61C266.935 3190.61 274.963 3182.58 274.963 3172.68C274.963 3162.79 266.935 3154.75 257.031 3154.75C247.128 3154.75 239.099 3162.79 239.099 3172.68C239.099 3182.58 247.128 3190.61 257.031 3190.61Z" fill="#CCCDD0"/>
<path d="M257.031 3250.39C266.935 3250.39 274.963 3242.35 274.963 3232.46C274.963 3222.56 266.935 3214.52 257.031 3214.52C247.128 3214.52 239.099 3222.56 239.099 3232.46C239.099 3242.35 247.128 3250.39 257.031 3250.39Z" fill="#CCCDD0"/>
<path d="M316.806 3011.3C326.71 3011.3 334.739 3003.27 334.739 2993.37C334.739 2983.47 326.71 2975.44 316.806 2975.44C306.903 2975.44 298.874 2983.47 298.874 2993.37C298.874 3003.27 306.903 3011.3 316.806 3011.3Z" fill="#CCCDD0"/>
<path d="M316.806 3071.07C326.71 3071.07 334.739 3063.04 334.739 3053.14C334.739 3043.24 326.71 3035.21 316.806 3035.21C306.903 3035.21 298.874 3043.24 298.874 3053.14C298.874 3063.04 306.903 3071.07 316.806 3071.07Z" fill="#CCCDD0"/>
<path d="M316.806 3130.84C326.71 3130.84 334.739 3122.81 334.739 3112.91C334.739 3103.01 326.71 3094.98 316.806 3094.98C306.903 3094.98 298.874 3103.01 298.874 3112.91C298.874 3122.81 306.903 3130.84 316.806 3130.84Z" fill="#CCCDD0"/>
<path d="M316.806 3190.61C326.71 3190.61 334.739 3182.58 334.739 3172.68C334.739 3162.79 326.71 3154.75 316.806 3154.75C306.903 3154.75 298.874 3162.79 298.874 3172.68C298.874 3182.58 306.903 3190.61 316.806 3190.61Z" fill="#CCCDD0"/>
<path d="M316.806 3250.39C326.71 3250.39 334.739 3242.35 334.739 3232.46C334.739 3222.56 326.71 3214.52 316.806 3214.52C306.903 3214.52 298.874 3222.56 298.874 3232.46C298.874 3242.35 306.903 3250.39 316.806 3250.39Z" fill="#CCCDD0"/>
<path d="M376.581 3011.3C386.484 3011.3 394.513 3003.27 394.513 2993.37C394.513 2983.47 386.484 2975.44 376.581 2975.44C366.677 2975.44 358.648 2983.47 358.648 2993.37C358.648 3003.27 366.677 3011.3 376.581 3011.3Z" fill="#CCCDD0"/>
<path d="M376.581 3071.07C386.484 3071.07 394.513 3063.04 394.513 3053.14C394.513 3043.24 386.484 3035.21 376.581 3035.21C366.677 3035.21 358.648 3043.24 358.648 3053.14C358.648 3063.04 366.677 3071.07 376.581 3071.07Z" fill="#CCCDD0"/>
<path d="M376.581 3130.84C386.484 3130.84 394.513 3122.81 394.513 3112.91C394.513 3103.01 386.484 3094.98 376.581 3094.98C366.677 3094.98 358.648 3103.01 358.648 3112.91C358.648 3122.81 366.677 3130.84 376.581 3130.84Z" fill="#CCCDD0"/>
<path d="M376.581 3190.61C386.484 3190.61 394.513 3182.58 394.513 3172.68C394.513 3162.79 386.484 3154.75 376.581 3154.75C366.677 3154.75 358.648 3162.79 358.648 3172.68C358.648 3182.58 366.677 3190.61 376.581 3190.61Z" fill="#CCCDD0"/>
<path d="M376.581 3250.39C386.484 3250.39 394.513 3242.35 394.513 3232.46C394.513 3222.56 386.484 3214.52 376.581 3214.52C366.677 3214.52 358.648 3222.56 358.648 3232.46C358.648 3242.35 366.677 3250.39 376.581 3250.39Z" fill="#CCCDD0"/>
<path d="M436.356 3011.3C446.26 3011.3 454.289 3003.27 454.289 2993.37C454.289 2983.47 446.26 2975.44 436.356 2975.44C426.453 2975.44 418.424 2983.47 418.424 2993.37C418.424 3003.27 426.453 3011.3 436.356 3011.3Z" fill="#CCCDD0"/>
<path d="M436.356 3071.07C446.26 3071.07 454.289 3063.04 454.289 3053.14C454.289 3043.24 446.26 3035.21 436.356 3035.21C426.453 3035.21 418.424 3043.24 418.424 3053.14C418.424 3063.04 426.453 3071.07 436.356 3071.07Z" fill="#CCCDD0"/>
<path d="M436.356 3130.84C446.26 3130.84 454.289 3122.81 454.289 3112.91C454.289 3103.01 446.26 3094.98 436.356 3094.98C426.453 3094.98 418.424 3103.01 418.424 3112.91C418.424 3122.81 426.453 3130.84 436.356 3130.84Z" fill="#CCCDD0"/>
<path d="M436.356 3190.61C446.26 3190.61 454.289 3182.58 454.289 3172.68C454.289 3162.79 446.26 3154.75 436.356 3154.75C426.453 3154.75 418.424 3162.79 418.424 3172.68C418.424 3182.58 426.453 3190.61 436.356 3190.61Z" fill="#CCCDD0"/>
<path d="M436.356 3250.39C446.26 3250.39 454.289 3242.35 454.289 3232.46C454.289 3222.56 446.26 3214.52 436.356 3214.52C426.453 3214.52 418.424 3222.56 418.424 3232.46C418.424 3242.35 426.453 3250.39 436.356 3250.39Z" fill="#CCCDD0"/>
<path d="M496.131 3011.3C506.034 3011.3 514.063 3003.27 514.063 2993.37C514.063 2983.47 506.034 2975.44 496.131 2975.44C486.227 2975.44 478.198 2983.47 478.198 2993.37C478.198 3003.27 486.227 3011.3 496.131 3011.3Z" fill="#CCCDD0"/>
<path d="M496.131 3071.07C506.034 3071.07 514.063 3063.04 514.063 3053.14C514.063 3043.24 506.034 3035.21 496.131 3035.21C486.227 3035.21 478.198 3043.24 478.198 3053.14C478.198 3063.04 486.227 3071.07 496.131 3071.07Z" fill="#CCCDD0"/>
<path d="M496.131 3130.84C506.034 3130.84 514.063 3122.81 514.063 3112.91C514.063 3103.01 506.034 3094.98 496.131 3094.98C486.227 3094.98 478.198 3103.01 478.198 3112.91C478.198 3122.81 486.227 3130.84 496.131 3130.84Z" fill="#CCCDD0"/>
<path d="M496.131 3190.61C506.034 3190.61 514.063 3182.58 514.063 3172.68C514.063 3162.79 506.034 3154.75 496.131 3154.75C486.227 3154.75 478.198 3162.79 478.198 3172.68C478.198 3182.58 486.227 3190.61 496.131 3190.61Z" fill="#CCCDD0"/>
<path d="M496.131 3250.39C506.034 3250.39 514.063 3242.35 514.063 3232.46C514.063 3222.56 506.034 3214.52 496.131 3214.52C486.227 3214.52 478.198 3222.56 478.198 3232.46C478.198 3242.35 486.227 3250.39 496.131 3250.39Z" fill="#CCCDD0"/>
<path d="M555.905 3011.3C565.809 3011.3 573.838 3003.27 573.838 2993.37C573.838 2983.47 565.809 2975.44 555.905 2975.44C546.002 2975.44 537.973 2983.47 537.973 2993.37C537.973 3003.27 546.002 3011.3 555.905 3011.3Z" fill="#CCCDD0"/>
<path d="M555.905 3071.07C565.809 3071.07 573.838 3063.04 573.838 3053.14C573.838 3043.24 565.809 3035.21 555.905 3035.21C546.002 3035.21 537.973 3043.24 537.973 3053.14C537.973 3063.04 546.002 3071.07 555.905 3071.07Z" fill="#CCCDD0"/>
<path d="M555.905 3130.84C565.809 3130.84 573.838 3122.81 573.838 3112.91C573.838 3103.01 565.809 3094.98 555.905 3094.98C546.002 3094.98 537.973 3103.01 537.973 3112.91C537.973 3122.81 546.002 3130.84 555.905 3130.84Z" fill="#CCCDD0"/>
<path d="M555.905 3190.61C565.809 3190.61 573.838 3182.58 573.838 3172.68C573.838 3162.79 565.809 3154.75 555.905 3154.75C546.002 3154.75 537.973 3162.79 537.973 3172.68C537.973 3182.58 546.002 3190.61 555.905 3190.61Z" fill="#CCCDD0"/>
<path d="M555.905 3250.39C565.809 3250.39 573.838 3242.35 573.838 3232.46C573.838 3222.56 565.809 3214.52 555.905 3214.52C546.002 3214.52 537.973 3222.56 537.973 3232.46C537.973 3242.35 546.002 3250.39 555.905 3250.39Z" fill="#CCCDD0"/>
<path d="M615.68 3011.3C625.584 3011.3 633.613 3003.27 633.613 2993.37C633.613 2983.47 625.584 2975.44 615.68 2975.44C605.777 2975.44 597.748 2983.47 597.748 2993.37C597.748 3003.27 605.777 3011.3 615.68 3011.3Z" fill="#CCCDD0"/>
<path d="M615.68 3071.07C625.584 3071.07 633.613 3063.04 633.613 3053.14C633.613 3043.24 625.584 3035.21 615.68 3035.21C605.777 3035.21 597.748 3043.24 597.748 3053.14C597.748 3063.04 605.777 3071.07 615.68 3071.07Z" fill="#CCCDD0"/>
<path d="M615.68 3130.84C625.584 3130.84 633.613 3122.81 633.613 3112.91C633.613 3103.01 625.584 3094.98 615.68 3094.98C605.777 3094.98 597.748 3103.01 597.748 3112.91C597.748 3122.81 605.777 3130.84 615.68 3130.84Z" fill="#CCCDD0"/>
<path d="M615.68 3190.61C625.584 3190.61 633.613 3182.58 633.613 3172.68C633.613 3162.79 625.584 3154.75 615.68 3154.75C605.777 3154.75 597.748 3162.79 597.748 3172.68C597.748 3182.58 605.777 3190.61 615.68 3190.61Z" fill="#CCCDD0"/>
<path d="M615.68 3250.39C625.584 3250.39 633.613 3242.35 633.613 3232.46C633.613 3222.56 625.584 3214.52 615.68 3214.52C605.777 3214.52 597.748 3222.56 597.748 3232.46C597.748 3242.35 605.777 3250.39 615.68 3250.39Z" fill="#CCCDD0"/>
<path d="M675.455 3011.3C685.358 3011.3 693.387 3003.27 693.387 2993.37C693.387 2983.47 685.358 2975.44 675.455 2975.44C665.551 2975.44 657.522 2983.47 657.522 2993.37C657.522 3003.27 665.551 3011.3 675.455 3011.3Z" fill="#CCCDD0"/>
<path d="M675.455 3071.07C685.358 3071.07 693.387 3063.04 693.387 3053.14C693.387 3043.24 685.358 3035.21 675.455 3035.21C665.551 3035.21 657.522 3043.24 657.522 3053.14C657.522 3063.04 665.551 3071.07 675.455 3071.07Z" fill="#CCCDD0"/>
<path d="M675.455 3130.84C685.358 3130.84 693.387 3122.81 693.387 3112.91C693.387 3103.01 685.358 3094.98 675.455 3094.98C665.551 3094.98 657.522 3103.01 657.522 3112.91C657.522 3122.81 665.551 3130.84 675.455 3130.84Z" fill="#CCCDD0"/>
<path d="M675.455 3190.61C685.358 3190.61 693.387 3182.58 693.387 3172.68C693.387 3162.79 685.358 3154.75 675.455 3154.75C665.551 3154.75 657.522 3162.79 657.522 3172.68C657.522 3182.58 665.551 3190.61 675.455 3190.61Z" fill="#CCCDD0"/>
<path d="M675.455 3250.39C685.358 3250.39 693.387 3242.35 693.387 3232.46C693.387 3222.56 685.358 3214.52 675.455 3214.52C665.551 3214.52 657.522 3222.56 657.522 3232.46C657.522 3242.35 665.551 3250.39 675.455 3250.39Z" fill="#CCCDD0"/>
<path d="M735.229 3011.3C745.133 3011.3 753.162 3003.27 753.162 2993.37C753.162 2983.47 745.133 2975.44 735.229 2975.44C725.326 2975.44 717.297 2983.47 717.297 2993.37C717.297 3003.27 725.326 3011.3 735.229 3011.3Z" fill="#CCCDD0"/>
<path d="M735.229 3071.07C745.133 3071.07 753.162 3063.04 753.162 3053.14C753.162 3043.24 745.133 3035.21 735.229 3035.21C725.326 3035.21 717.297 3043.24 717.297 3053.14C717.297 3063.04 725.326 3071.07 735.229 3071.07Z" fill="#CCCDD0"/>
<path d="M735.229 3130.84C745.133 3130.84 753.162 3122.81 753.162 3112.91C753.162 3103.01 745.133 3094.98 735.229 3094.98C725.326 3094.98 717.297 3103.01 717.297 3112.91C717.297 3122.81 725.326 3130.84 735.229 3130.84Z" fill="#CCCDD0"/>
<path d="M735.229 3190.61C745.133 3190.61 753.162 3182.58 753.162 3172.68C753.162 3162.79 745.133 3154.75 735.229 3154.75C725.326 3154.75 717.297 3162.79 717.297 3172.68C717.297 3182.58 725.326 3190.61 735.229 3190.61Z" fill="#CCCDD0"/>
<path d="M735.229 3250.39C745.133 3250.39 753.162 3242.35 753.162 3232.46C753.162 3222.56 745.133 3214.52 735.229 3214.52C725.326 3214.52 717.297 3222.56 717.297 3232.46C717.297 3242.35 725.326 3250.39 735.229 3250.39Z" fill="#CCCDD0"/>
<path d="M795.005 3011.3C804.908 3011.3 812.937 3003.27 812.937 2993.37C812.937 2983.47 804.908 2975.44 795.005 2975.44C785.101 2975.44 777.072 2983.47 777.072 2993.37C777.072 3003.27 785.101 3011.3 795.005 3011.3Z" fill="#CCCDD0"/>
<path d="M795.005 3071.07C804.908 3071.07 812.937 3063.04 812.937 3053.14C812.937 3043.24 804.908 3035.21 795.005 3035.21C785.101 3035.21 777.072 3043.24 777.072 3053.14C777.072 3063.04 785.101 3071.07 795.005 3071.07Z" fill="#CCCDD0"/>
<path d="M795.005 3130.84C804.908 3130.84 812.937 3122.81 812.937 3112.91C812.937 3103.01 804.908 3094.98 795.005 3094.98C785.101 3094.98 777.072 3103.01 777.072 3112.91C777.072 3122.81 785.101 3130.84 795.005 3130.84Z" fill="#CCCDD0"/>
<path d="M795.005 3190.61C804.908 3190.61 812.937 3182.58 812.937 3172.68C812.937 3162.79 804.908 3154.75 795.005 3154.75C785.101 3154.75 777.072 3162.79 777.072 3172.68C777.072 3182.58 785.101 3190.61 795.005 3190.61Z" fill="#CCCDD0"/>
<path d="M795.005 3250.39C804.908 3250.39 812.937 3242.35 812.937 3232.46C812.937 3222.56 804.908 3214.52 795.005 3214.52C785.101 3214.52 777.072 3222.56 777.072 3232.46C777.072 3242.35 785.101 3250.39 795.005 3250.39Z" fill="#CCCDD0"/>
<path d="M854.779 3011.3C864.683 3011.3 872.712 3003.27 872.712 2993.37C872.712 2983.47 864.683 2975.44 854.779 2975.44C844.876 2975.44 836.847 2983.47 836.847 2993.37C836.847 3003.27 844.876 3011.3 854.779 3011.3Z" fill="#CCCDD0"/>
<path d="M854.779 3071.07C864.683 3071.07 872.712 3063.04 872.712 3053.14C872.712 3043.24 864.683 3035.21 854.779 3035.21C844.876 3035.21 836.847 3043.24 836.847 3053.14C836.847 3063.04 844.876 3071.07 854.779 3071.07Z" fill="#CCCDD0"/>
<path d="M854.779 3130.84C864.683 3130.84 872.712 3122.81 872.712 3112.91C872.712 3103.01 864.683 3094.98 854.779 3094.98C844.876 3094.98 836.847 3103.01 836.847 3112.91C836.847 3122.81 844.876 3130.84 854.779 3130.84Z" fill="#CCCDD0"/>
<path d="M854.779 3190.61C864.683 3190.61 872.712 3182.58 872.712 3172.68C872.712 3162.79 864.683 3154.75 854.779 3154.75C844.876 3154.75 836.847 3162.79 836.847 3172.68C836.847 3182.58 844.876 3190.61 854.779 3190.61Z" fill="#CCCDD0"/>
<path d="M854.779 3250.39C864.683 3250.39 872.712 3242.35 872.712 3232.46C872.712 3222.56 864.683 3214.52 854.779 3214.52C844.876 3214.52 836.847 3222.56 836.847 3232.46C836.847 3242.35 844.876 3250.39 854.779 3250.39Z" fill="#CCCDD0"/>
<path d="M914.555 3011.3C924.458 3011.3 932.487 3003.27 932.487 2993.37C932.487 2983.47 924.458 2975.44 914.555 2975.44C904.651 2975.44 896.622 2983.47 896.622 2993.37C896.622 3003.27 904.651 3011.3 914.555 3011.3Z" fill="#CCCDD0"/>
<path d="M914.555 3071.07C924.458 3071.07 932.487 3063.04 932.487 3053.14C932.487 3043.24 924.458 3035.21 914.555 3035.21C904.651 3035.21 896.622 3043.24 896.622 3053.14C896.622 3063.04 904.651 3071.07 914.555 3071.07Z" fill="#CCCDD0"/>
<path d="M914.555 3130.84C924.458 3130.84 932.487 3122.81 932.487 3112.91C932.487 3103.01 924.458 3094.98 914.555 3094.98C904.651 3094.98 896.622 3103.01 896.622 3112.91C896.622 3122.81 904.651 3130.84 914.555 3130.84Z" fill="#CCCDD0"/>
<path d="M914.555 3190.61C924.458 3190.61 932.487 3182.58 932.487 3172.68C932.487 3162.79 924.458 3154.75 914.555 3154.75C904.651 3154.75 896.622 3162.79 896.622 3172.68C896.622 3182.58 904.651 3190.61 914.555 3190.61Z" fill="#CCCDD0"/>
<path d="M914.555 3250.39C924.458 3250.39 932.487 3242.35 932.487 3232.46C932.487 3222.56 924.458 3214.52 914.555 3214.52C904.651 3214.52 896.622 3222.56 896.622 3232.46C896.622 3242.35 904.651 3250.39 914.555 3250.39Z" fill="#CCCDD0"/>
<path d="M974.329 3011.3C984.232 3011.3 992.261 3003.27 992.261 2993.37C992.261 2983.47 984.232 2975.44 974.329 2975.44C964.425 2975.44 956.396 2983.47 956.396 2993.37C956.396 3003.27 964.425 3011.3 974.329 3011.3Z" fill="#CCCDD0"/>
<path d="M974.329 3071.07C984.232 3071.07 992.261 3063.04 992.261 3053.14C992.261 3043.24 984.232 3035.21 974.329 3035.21C964.425 3035.21 956.396 3043.24 956.396 3053.14C956.396 3063.04 964.425 3071.07 974.329 3071.07Z" fill="#CCCDD0"/>
<path d="M974.329 3130.84C984.232 3130.84 992.261 3122.81 992.261 3112.91C992.261 3103.01 984.232 3094.98 974.329 3094.98C964.425 3094.98 956.396 3103.01 956.396 3112.91C956.396 3122.81 964.425 3130.84 974.329 3130.84Z" fill="#CCCDD0"/>
<path d="M974.329 3190.61C984.232 3190.61 992.261 3182.58 992.261 3172.68C992.261 3162.79 984.232 3154.75 974.329 3154.75C964.425 3154.75 956.396 3162.79 956.396 3172.68C956.396 3182.58 964.425 3190.61 974.329 3190.61Z" fill="#CCCDD0"/>
<path d="M974.329 3250.39C984.232 3250.39 992.261 3242.35 992.261 3232.46C992.261 3222.56 984.232 3214.52 974.329 3214.52C964.425 3214.52 956.396 3222.56 956.396 3232.46C956.396 3242.35 964.425 3250.39 974.329 3250.39Z" fill="#CCCDD0"/>
<path d="M5648.72 3011.3C5658.61 3011.3 5666.65 3003.27 5666.65 2993.37C5666.65 2983.47 5658.61 2975.44 5648.72 2975.44C5638.82 2975.44 5630.78 2983.47 5630.78 2993.37C5630.78 3003.27 5638.82 3011.3 5648.72 3011.3Z" fill="#CCCDD0"/>
<path d="M5648.72 3071.07C5658.61 3071.07 5666.65 3063.04 5666.65 3053.14C5666.65 3043.24 5658.61 3035.21 5648.72 3035.21C5638.82 3035.21 5630.78 3043.24 5630.78 3053.14C5630.78 3063.04 5638.82 3071.07 5648.72 3071.07Z" fill="#CCCDD0"/>
<path d="M5648.72 3130.84C5658.61 3130.84 5666.65 3122.81 5666.65 3112.91C5666.65 3103.01 5658.61 3094.98 5648.72 3094.98C5638.82 3094.98 5630.78 3103.01 5630.78 3112.91C5630.78 3122.81 5638.82 3130.84 5648.72 3130.84Z" fill="#CCCDD0"/>
<path d="M5648.72 3190.61C5658.61 3190.61 5666.65 3182.58 5666.65 3172.68C5666.65 3162.79 5658.61 3154.75 5648.72 3154.75C5638.82 3154.75 5630.78 3162.79 5630.78 3172.68C5630.78 3182.58 5638.82 3190.61 5648.72 3190.61Z" fill="#CCCDD0"/>
<path d="M5648.72 3250.39C5658.61 3250.39 5666.65 3242.35 5666.65 3232.46C5666.65 3222.56 5658.61 3214.52 5648.72 3214.52C5638.82 3214.52 5630.78 3222.56 5630.78 3232.46C5630.78 3242.35 5638.82 3250.39 5648.72 3250.39Z" fill="#CCCDD0"/>
<path d="M5708.49 3011.3C5718.39 3011.3 5726.42 3003.27 5726.42 2993.37C5726.42 2983.47 5718.39 2975.44 5708.49 2975.44C5698.59 2975.44 5690.56 2983.47 5690.56 2993.37C5690.56 3003.27 5698.59 3011.3 5708.49 3011.3Z" fill="#CCCDD0"/>
<path d="M5708.49 3071.07C5718.39 3071.07 5726.42 3063.04 5726.42 3053.14C5726.42 3043.24 5718.39 3035.21 5708.49 3035.21C5698.59 3035.21 5690.56 3043.24 5690.56 3053.14C5690.56 3063.04 5698.59 3071.07 5708.49 3071.07Z" fill="#CCCDD0"/>
<path d="M5708.49 3130.84C5718.39 3130.84 5726.42 3122.81 5726.42 3112.91C5726.42 3103.01 5718.39 3094.98 5708.49 3094.98C5698.59 3094.98 5690.56 3103.01 5690.56 3112.91C5690.56 3122.81 5698.59 3130.84 5708.49 3130.84Z" fill="#CCCDD0"/>
<path d="M5708.49 3190.61C5718.39 3190.61 5726.42 3182.58 5726.42 3172.68C5726.42 3162.79 5718.39 3154.75 5708.49 3154.75C5698.59 3154.75 5690.56 3162.79 5690.56 3172.68C5690.56 3182.58 5698.59 3190.61 5708.49 3190.61Z" fill="#CCCDD0"/>
<path d="M5708.49 3250.39C5718.39 3250.39 5726.42 3242.35 5726.42 3232.46C5726.42 3222.56 5718.39 3214.52 5708.49 3214.52C5698.59 3214.52 5690.56 3222.56 5690.56 3232.46C5690.56 3242.35 5698.59 3250.39 5708.49 3250.39Z" fill="#CCCDD0"/>
<path d="M5768.27 3011.3C5778.17 3011.3 5786.2 3003.27 5786.2 2993.37C5786.2 2983.47 5778.17 2975.44 5768.27 2975.44C5758.37 2975.44 5750.33 2983.47 5750.33 2993.37C5750.33 3003.27 5758.37 3011.3 5768.27 3011.3Z" fill="#CCCDD0"/>
<path d="M5768.27 3071.07C5778.17 3071.07 5786.2 3063.04 5786.2 3053.14C5786.2 3043.24 5778.17 3035.21 5768.27 3035.21C5758.37 3035.21 5750.33 3043.24 5750.33 3053.14C5750.33 3063.04 5758.37 3071.07 5768.27 3071.07Z" fill="#CCCDD0"/>
<path d="M5768.27 3130.84C5778.17 3130.84 5786.2 3122.81 5786.2 3112.91C5786.2 3103.01 5778.17 3094.98 5768.27 3094.98C5758.37 3094.98 5750.33 3103.01 5750.33 3112.91C5750.33 3122.81 5758.37 3130.84 5768.27 3130.84Z" fill="#CCCDD0"/>
<path d="M5768.27 3190.61C5778.17 3190.61 5786.2 3182.58 5786.2 3172.68C5786.2 3162.79 5778.17 3154.75 5768.27 3154.75C5758.37 3154.75 5750.33 3162.79 5750.33 3172.68C5750.33 3182.58 5758.37 3190.61 5768.27 3190.61Z" fill="#CCCDD0"/>
<path d="M5768.27 3250.39C5778.17 3250.39 5786.2 3242.35 5786.2 3232.46C5786.2 3222.56 5778.17 3214.52 5768.27 3214.52C5758.37 3214.52 5750.33 3222.56 5750.33 3232.46C5750.33 3242.35 5758.37 3250.39 5768.27 3250.39Z" fill="#CCCDD0"/>
<path d="M5828.04 3011.3C5837.94 3011.3 5845.97 3003.27 5845.97 2993.37C5845.97 2983.47 5837.94 2975.44 5828.04 2975.44C5818.14 2975.44 5810.11 2983.47 5810.11 2993.37C5810.11 3003.27 5818.14 3011.3 5828.04 3011.3Z" fill="#CCCDD0"/>
<path d="M5828.04 3071.07C5837.94 3071.07 5845.97 3063.04 5845.97 3053.14C5845.97 3043.24 5837.94 3035.21 5828.04 3035.21C5818.14 3035.21 5810.11 3043.24 5810.11 3053.14C5810.11 3063.04 5818.14 3071.07 5828.04 3071.07Z" fill="#CCCDD0"/>
<path d="M5828.04 3130.84C5837.94 3130.84 5845.97 3122.81 5845.97 3112.91C5845.97 3103.01 5837.94 3094.98 5828.04 3094.98C5818.14 3094.98 5810.11 3103.01 5810.11 3112.91C5810.11 3122.81 5818.14 3130.84 5828.04 3130.84Z" fill="#CCCDD0"/>
<path d="M5828.04 3190.61C5837.94 3190.61 5845.97 3182.58 5845.97 3172.68C5845.97 3162.79 5837.94 3154.75 5828.04 3154.75C5818.14 3154.75 5810.11 3162.79 5810.11 3172.68C5810.11 3182.58 5818.14 3190.61 5828.04 3190.61Z" fill="#CCCDD0"/>
<path d="M5828.04 3250.39C5837.94 3250.39 5845.97 3242.35 5845.97 3232.46C5845.97 3222.56 5837.94 3214.52 5828.04 3214.52C5818.14 3214.52 5810.11 3222.56 5810.11 3232.46C5810.11 3242.35 5818.14 3250.39 5828.04 3250.39Z" fill="#CCCDD0"/>
<path d="M5313.98 3011.3C5323.88 3011.3 5331.91 3003.27 5331.91 2993.37C5331.91 2983.47 5323.88 2975.44 5313.98 2975.44C5304.08 2975.44 5296.04 2983.47 5296.04 2993.37C5296.04 3003.27 5304.08 3011.3 5313.98 3011.3Z" fill="#CCCDD0"/>
<path d="M5313.98 3071.07C5323.88 3071.07 5331.91 3063.04 5331.91 3053.14C5331.91 3043.24 5323.88 3035.21 5313.98 3035.21C5304.08 3035.21 5296.04 3043.24 5296.04 3053.14C5296.04 3063.04 5304.08 3071.07 5313.98 3071.07Z" fill="#CCCDD0"/>
<path d="M5313.98 3130.84C5323.88 3130.84 5331.91 3122.81 5331.91 3112.91C5331.91 3103.01 5323.88 3094.98 5313.98 3094.98C5304.08 3094.98 5296.04 3103.01 5296.04 3112.91C5296.04 3122.81 5304.08 3130.84 5313.98 3130.84Z" fill="#CCCDD0"/>
<path d="M5313.98 3190.61C5323.88 3190.61 5331.91 3182.58 5331.91 3172.68C5331.91 3162.79 5323.88 3154.75 5313.98 3154.75C5304.08 3154.75 5296.04 3162.79 5296.04 3172.68C5296.04 3182.58 5304.08 3190.61 5313.98 3190.61Z" fill="#CCCDD0"/>
<path d="M5313.98 3250.39C5323.88 3250.39 5331.91 3242.35 5331.91 3232.46C5331.91 3222.56 5323.88 3214.52 5313.98 3214.52C5304.08 3214.52 5296.04 3222.56 5296.04 3232.46C5296.04 3242.35 5304.08 3250.39 5313.98 3250.39Z" fill="#CCCDD0"/>
<path d="M5373.75 3011.3C5383.65 3011.3 5391.69 3003.27 5391.69 2993.37C5391.69 2983.47 5383.65 2975.44 5373.75 2975.44C5363.85 2975.44 5355.82 2983.47 5355.82 2993.37C5355.82 3003.27 5363.85 3011.3 5373.75 3011.3Z" fill="#CCCDD0"/>
<path d="M5373.75 3071.07C5383.65 3071.07 5391.69 3063.04 5391.69 3053.14C5391.69 3043.24 5383.65 3035.21 5373.75 3035.21C5363.85 3035.21 5355.82 3043.24 5355.82 3053.14C5355.82 3063.04 5363.85 3071.07 5373.75 3071.07Z" fill="#CCCDD0"/>
<path d="M5373.75 3130.84C5383.65 3130.84 5391.69 3122.81 5391.69 3112.91C5391.69 3103.01 5383.65 3094.98 5373.75 3094.98C5363.85 3094.98 5355.82 3103.01 5355.82 3112.91C5355.82 3122.81 5363.85 3130.84 5373.75 3130.84Z" fill="#CCCDD0"/>
<path d="M5373.75 3190.61C5383.65 3190.61 5391.69 3182.58 5391.69 3172.68C5391.69 3162.79 5383.65 3154.75 5373.75 3154.75C5363.85 3154.75 5355.82 3162.79 5355.82 3172.68C5355.82 3182.58 5363.85 3190.61 5373.75 3190.61Z" fill="#CCCDD0"/>
<path d="M5373.75 3250.39C5383.65 3250.39 5391.69 3242.35 5391.69 3232.46C5391.69 3222.56 5383.65 3214.52 5373.75 3214.52C5363.85 3214.52 5355.82 3222.56 5355.82 3232.46C5355.82 3242.35 5363.85 3250.39 5373.75 3250.39Z" fill="#CCCDD0"/>
<path d="M5433.53 3011.3C5443.43 3011.3 5451.46 3003.27 5451.46 2993.37C5451.46 2983.47 5443.43 2975.44 5433.53 2975.44C5423.63 2975.44 5415.59 2983.47 5415.59 2993.37C5415.59 3003.27 5423.63 3011.3 5433.53 3011.3Z" fill="#CCCDD0"/>
<path d="M5433.53 3071.07C5443.43 3071.07 5451.46 3063.04 5451.46 3053.14C5451.46 3043.24 5443.43 3035.21 5433.53 3035.21C5423.63 3035.21 5415.59 3043.24 5415.59 3053.14C5415.59 3063.04 5423.63 3071.07 5433.53 3071.07Z" fill="#CCCDD0"/>
<path d="M5433.53 3130.84C5443.43 3130.84 5451.46 3122.81 5451.46 3112.91C5451.46 3103.01 5443.43 3094.98 5433.53 3094.98C5423.63 3094.98 5415.59 3103.01 5415.59 3112.91C5415.59 3122.81 5423.63 3130.84 5433.53 3130.84Z" fill="#CCCDD0"/>
<path d="M5433.53 3190.61C5443.43 3190.61 5451.46 3182.58 5451.46 3172.68C5451.46 3162.79 5443.43 3154.75 5433.53 3154.75C5423.63 3154.75 5415.59 3162.79 5415.59 3172.68C5415.59 3182.58 5423.63 3190.61 5433.53 3190.61Z" fill="#CCCDD0"/>
<path d="M5433.53 3250.39C5443.43 3250.39 5451.46 3242.35 5451.46 3232.46C5451.46 3222.56 5443.43 3214.52 5433.53 3214.52C5423.63 3214.52 5415.59 3222.56 5415.59 3232.46C5415.59 3242.35 5423.63 3250.39 5433.53 3250.39Z" fill="#CCCDD0"/>
<path d="M5493.3 3011.3C5503.2 3011.3 5511.23 3003.27 5511.23 2993.37C5511.23 2983.47 5503.2 2975.44 5493.3 2975.44C5483.4 2975.44 5475.37 2983.47 5475.37 2993.37C5475.37 3003.27 5483.4 3011.3 5493.3 3011.3Z" fill="#CCCDD0"/>
<path d="M5493.3 3071.07C5503.2 3071.07 5511.23 3063.04 5511.23 3053.14C5511.23 3043.24 5503.2 3035.21 5493.3 3035.21C5483.4 3035.21 5475.37 3043.24 5475.37 3053.14C5475.37 3063.04 5483.4 3071.07 5493.3 3071.07Z" fill="#CCCDD0"/>
<path d="M5493.3 3130.84C5503.2 3130.84 5511.23 3122.81 5511.23 3112.91C5511.23 3103.01 5503.2 3094.98 5493.3 3094.98C5483.4 3094.98 5475.37 3103.01 5475.37 3112.91C5475.37 3122.81 5483.4 3130.84 5493.3 3130.84Z" fill="#CCCDD0"/>
<path d="M5493.3 3190.61C5503.2 3190.61 5511.23 3182.58 5511.23 3172.68C5511.23 3162.79 5503.2 3154.75 5493.3 3154.75C5483.4 3154.75 5475.37 3162.79 5475.37 3172.68C5475.37 3182.58 5483.4 3190.61 5493.3 3190.61Z" fill="#CCCDD0"/>
<path d="M5493.3 3250.39C5503.2 3250.39 5511.23 3242.35 5511.23 3232.46C5511.23 3222.56 5503.2 3214.52 5493.3 3214.52C5483.4 3214.52 5475.37 3222.56 5475.37 3232.46C5475.37 3242.35 5483.4 3250.39 5493.3 3250.39Z" fill="#CCCDD0"/>
<path d="M5887.82 3011.3C5897.71 3011.3 5905.75 3003.27 5905.75 2993.37C5905.75 2983.47 5897.71 2975.44 5887.82 2975.44C5877.92 2975.44 5869.88 2983.47 5869.88 2993.37C5869.88 3003.27 5877.92 3011.3 5887.82 3011.3Z" fill="#CCCDD0"/>
<path d="M5887.82 3071.07C5897.71 3071.07 5905.75 3063.04 5905.75 3053.14C5905.75 3043.24 5897.71 3035.21 5887.82 3035.21C5877.92 3035.21 5869.88 3043.24 5869.88 3053.14C5869.88 3063.04 5877.92 3071.07 5887.82 3071.07Z" fill="#CCCDD0"/>
<path d="M5887.82 3130.84C5897.71 3130.84 5905.75 3122.81 5905.75 3112.91C5905.75 3103.01 5897.71 3094.98 5887.82 3094.98C5877.92 3094.98 5869.88 3103.01 5869.88 3112.91C5869.88 3122.81 5877.92 3130.84 5887.82 3130.84Z" fill="#CCCDD0"/>
<path d="M5887.82 3190.61C5897.71 3190.61 5905.75 3182.58 5905.75 3172.68C5905.75 3162.79 5897.71 3154.75 5887.82 3154.75C5877.92 3154.75 5869.88 3162.79 5869.88 3172.68C5869.88 3182.58 5877.92 3190.61 5887.82 3190.61Z" fill="#CCCDD0"/>
<path d="M5887.82 3250.39C5897.71 3250.39 5905.75 3242.35 5905.75 3232.46C5905.75 3222.56 5897.71 3214.52 5887.82 3214.52C5877.92 3214.52 5869.88 3222.56 5869.88 3232.46C5869.88 3242.35 5877.92 3250.39 5887.82 3250.39Z" fill="#CCCDD0"/>
<path d="M5947.59 3011.3C5957.49 3011.3 5965.52 3003.27 5965.52 2993.37C5965.52 2983.47 5957.49 2975.44 5947.59 2975.44C5937.69 2975.44 5929.66 2983.47 5929.66 2993.37C5929.66 3003.27 5937.69 3011.3 5947.59 3011.3Z" fill="#CCCDD0"/>
<path d="M5947.59 3071.07C5957.49 3071.07 5965.52 3063.04 5965.52 3053.14C5965.52 3043.24 5957.49 3035.21 5947.59 3035.21C5937.69 3035.21 5929.66 3043.24 5929.66 3053.14C5929.66 3063.04 5937.69 3071.07 5947.59 3071.07Z" fill="#CCCDD0"/>
<path d="M5947.59 3130.84C5957.49 3130.84 5965.52 3122.81 5965.52 3112.91C5965.52 3103.01 5957.49 3094.98 5947.59 3094.98C5937.69 3094.98 5929.66 3103.01 5929.66 3112.91C5929.66 3122.81 5937.69 3130.84 5947.59 3130.84Z" fill="#CCCDD0"/>
<path d="M5947.59 3190.61C5957.49 3190.61 5965.52 3182.58 5965.52 3172.68C5965.52 3162.79 5957.49 3154.75 5947.59 3154.75C5937.69 3154.75 5929.66 3162.79 5929.66 3172.68C5929.66 3182.58 5937.69 3190.61 5947.59 3190.61Z" fill="#CCCDD0"/>
<path d="M5947.59 3250.39C5957.49 3250.39 5965.52 3242.35 5965.52 3232.46C5965.52 3222.56 5957.49 3214.52 5947.59 3214.52C5937.69 3214.52 5929.66 3222.56 5929.66 3232.46C5929.66 3242.35 5937.69 3250.39 5947.59 3250.39Z" fill="#CCCDD0"/>
<path d="M6007.37 3011.3C6017.26 3011.3 6025.3 3003.27 6025.3 2993.37C6025.3 2983.47 6017.26 2975.44 6007.37 2975.44C5997.47 2975.44 5989.43 2983.47 5989.43 2993.37C5989.43 3003.27 5997.47 3011.3 6007.37 3011.3Z" fill="#CCCDD0"/>
<path d="M6007.37 3071.07C6017.26 3071.07 6025.3 3063.04 6025.3 3053.14C6025.3 3043.24 6017.26 3035.21 6007.37 3035.21C5997.47 3035.21 5989.43 3043.24 5989.43 3053.14C5989.43 3063.04 5997.47 3071.07 6007.37 3071.07Z" fill="#CCCDD0"/>
<path d="M6007.37 3130.84C6017.26 3130.84 6025.3 3122.81 6025.3 3112.91C6025.3 3103.01 6017.26 3094.98 6007.37 3094.98C5997.47 3094.98 5989.43 3103.01 5989.43 3112.91C5989.43 3122.81 5997.47 3130.84 6007.37 3130.84Z" fill="#CCCDD0"/>
<path d="M6007.37 3190.61C6017.26 3190.61 6025.3 3182.58 6025.3 3172.68C6025.3 3162.79 6017.26 3154.75 6007.37 3154.75C5997.47 3154.75 5989.43 3162.79 5989.43 3172.68C5989.43 3182.58 5997.47 3190.61 6007.37 3190.61Z" fill="#CCCDD0"/>
<path d="M6007.37 3250.39C6017.26 3250.39 6025.3 3242.35 6025.3 3232.46C6025.3 3222.56 6017.26 3214.52 6007.37 3214.52C5997.47 3214.52 5989.43 3222.56 5989.43 3232.46C5989.43 3242.35 5997.47 3250.39 6007.37 3250.39Z" fill="#CCCDD0"/>
<path d="M6067.14 3011.3C6077.04 3011.3 6085.07 3003.27 6085.07 2993.37C6085.07 2983.47 6077.04 2975.44 6067.14 2975.44C6057.24 2975.44 6049.21 2983.47 6049.21 2993.37C6049.21 3003.27 6057.24 3011.3 6067.14 3011.3Z" fill="#CCCDD0"/>
<path d="M6067.14 3071.07C6077.04 3071.07 6085.07 3063.04 6085.07 3053.14C6085.07 3043.24 6077.04 3035.21 6067.14 3035.21C6057.24 3035.21 6049.21 3043.24 6049.21 3053.14C6049.21 3063.04 6057.24 3071.07 6067.14 3071.07Z" fill="#CCCDD0"/>
<path d="M6067.14 3130.84C6077.04 3130.84 6085.07 3122.81 6085.07 3112.91C6085.07 3103.01 6077.04 3094.98 6067.14 3094.98C6057.24 3094.98 6049.21 3103.01 6049.21 3112.91C6049.21 3122.81 6057.24 3130.84 6067.14 3130.84Z" fill="#CCCDD0"/>
<path d="M6067.14 3190.61C6077.04 3190.61 6085.07 3182.58 6085.07 3172.68C6085.07 3162.79 6077.04 3154.75 6067.14 3154.75C6057.24 3154.75 6049.21 3162.79 6049.21 3172.68C6049.21 3182.58 6057.24 3190.61 6067.14 3190.61Z" fill="#CCCDD0"/>
<path d="M6067.14 3250.39C6077.04 3250.39 6085.07 3242.35 6085.07 3232.46C6085.07 3222.56 6077.04 3214.52 6067.14 3214.52C6057.24 3214.52 6049.21 3222.56 6049.21 3232.46C6049.21 3242.35 6057.24 3250.39 6067.14 3250.39Z" fill="#CCCDD0"/>
<path d="M6126.91 3011.3C6136.81 3011.3 6144.85 3003.27 6144.85 2993.37C6144.85 2983.47 6136.81 2975.44 6126.91 2975.44C6117.02 2975.44 6108.98 2983.47 6108.98 2993.37C6108.98 3003.27 6117.02 3011.3 6126.91 3011.3Z" fill="#CCCDD0"/>
<path d="M6126.91 3071.07C6136.81 3071.07 6144.85 3063.04 6144.85 3053.14C6144.85 3043.24 6136.81 3035.21 6126.91 3035.21C6117.02 3035.21 6108.98 3043.24 6108.98 3053.14C6108.98 3063.04 6117.02 3071.07 6126.91 3071.07Z" fill="#CCCDD0"/>
<path d="M6126.91 3130.84C6136.81 3130.84 6144.85 3122.81 6144.85 3112.91C6144.85 3103.01 6136.81 3094.98 6126.91 3094.98C6117.02 3094.98 6108.98 3103.01 6108.98 3112.91C6108.98 3122.81 6117.02 3130.84 6126.91 3130.84Z" fill="#CCCDD0"/>
<path d="M6126.91 3190.61C6136.81 3190.61 6144.85 3182.58 6144.85 3172.68C6144.85 3162.79 6136.81 3154.75 6126.91 3154.75C6117.02 3154.75 6108.98 3162.79 6108.98 3172.68C6108.98 3182.58 6117.02 3190.61 6126.91 3190.61Z" fill="#CCCDD0"/>
<path d="M6126.91 3250.39C6136.81 3250.39 6144.85 3242.35 6144.85 3232.46C6144.85 3222.56 6136.81 3214.52 6126.91 3214.52C6117.02 3214.52 6108.98 3222.56 6108.98 3232.46C6108.98 3242.35 6117.02 3250.39 6126.91 3250.39Z" fill="#CCCDD0"/>
<path d="M6186.69 3011.3C6196.59 3011.3 6204.62 3003.27 6204.62 2993.37C6204.62 2983.47 6196.59 2975.44 6186.69 2975.44C6176.79 2975.44 6168.76 2983.47 6168.76 2993.37C6168.76 3003.27 6176.79 3011.3 6186.69 3011.3Z" fill="#CCCDD0"/>
<path d="M6186.69 3071.07C6196.59 3071.07 6204.62 3063.04 6204.62 3053.14C6204.62 3043.24 6196.59 3035.21 6186.69 3035.21C6176.79 3035.21 6168.76 3043.24 6168.76 3053.14C6168.76 3063.04 6176.79 3071.07 6186.69 3071.07Z" fill="#CCCDD0"/>
<path d="M6186.69 3130.84C6196.59 3130.84 6204.62 3122.81 6204.62 3112.91C6204.62 3103.01 6196.59 3094.98 6186.69 3094.98C6176.79 3094.98 6168.76 3103.01 6168.76 3112.91C6168.76 3122.81 6176.79 3130.84 6186.69 3130.84Z" fill="#CCCDD0"/>
<path d="M6186.69 3190.61C6196.59 3190.61 6204.62 3182.58 6204.62 3172.68C6204.62 3162.79 6196.59 3154.75 6186.69 3154.75C6176.79 3154.75 6168.76 3162.79 6168.76 3172.68C6168.76 3182.58 6176.79 3190.61 6186.69 3190.61Z" fill="#CCCDD0"/>
<path d="M6186.69 3250.39C6196.59 3250.39 6204.62 3242.35 6204.62 3232.46C6204.62 3222.56 6196.59 3214.52 6186.69 3214.52C6176.79 3214.52 6168.76 3222.56 6168.76 3232.46C6168.76 3242.35 6176.79 3250.39 6186.69 3250.39Z" fill="#CCCDD0"/>
<path d="M6246.46 3011.3C6256.36 3011.3 6264.4 3003.27 6264.4 2993.37C6264.4 2983.47 6256.36 2975.44 6246.46 2975.44C6236.56 2975.44 6228.53 2983.47 6228.53 2993.37C6228.53 3003.27 6236.56 3011.3 6246.46 3011.3Z" fill="#CCCDD0"/>
<path d="M6246.46 3071.07C6256.36 3071.07 6264.4 3063.04 6264.4 3053.14C6264.4 3043.24 6256.36 3035.21 6246.46 3035.21C6236.56 3035.21 6228.53 3043.24 6228.53 3053.14C6228.53 3063.04 6236.56 3071.07 6246.46 3071.07Z" fill="#CCCDD0"/>
<path d="M6246.46 3130.84C6256.36 3130.84 6264.4 3122.81 6264.4 3112.91C6264.4 3103.01 6256.36 3094.98 6246.46 3094.98C6236.56 3094.98 6228.53 3103.01 6228.53 3112.91C6228.53 3122.81 6236.56 3130.84 6246.46 3130.84Z" fill="#CCCDD0"/>
<path d="M6246.46 3190.61C6256.36 3190.61 6264.4 3182.58 6264.4 3172.68C6264.4 3162.79 6256.36 3154.75 6246.46 3154.75C6236.56 3154.75 6228.53 3162.79 6228.53 3172.68C6228.53 3182.58 6236.56 3190.61 6246.46 3190.61Z" fill="#CCCDD0"/>
<path d="M6246.46 3250.39C6256.36 3250.39 6264.4 3242.35 6264.4 3232.46C6264.4 3222.56 6256.36 3214.52 6246.46 3214.52C6236.56 3214.52 6228.53 3222.56 6228.53 3232.46C6228.53 3242.35 6236.56 3250.39 6246.46 3250.39Z" fill="#CCCDD0"/>
<path d="M6306.24 3011.3C6316.14 3011.3 6324.17 3003.27 6324.17 2993.37C6324.17 2983.47 6316.14 2975.44 6306.24 2975.44C6296.34 2975.44 6288.31 2983.47 6288.31 2993.37C6288.31 3003.27 6296.34 3011.3 6306.24 3011.3Z" fill="#CCCDD0"/>
<path d="M6306.24 3071.07C6316.14 3071.07 6324.17 3063.04 6324.17 3053.14C6324.17 3043.24 6316.14 3035.21 6306.24 3035.21C6296.34 3035.21 6288.31 3043.24 6288.31 3053.14C6288.31 3063.04 6296.34 3071.07 6306.24 3071.07Z" fill="#CCCDD0"/>
<path d="M6306.24 3130.84C6316.14 3130.84 6324.17 3122.81 6324.17 3112.91C6324.17 3103.01 6316.14 3094.98 6306.24 3094.98C6296.34 3094.98 6288.31 3103.01 6288.31 3112.91C6288.31 3122.81 6296.34 3130.84 6306.24 3130.84Z" fill="#CCCDD0"/>
<path d="M6306.24 3190.61C6316.14 3190.61 6324.17 3182.58 6324.17 3172.68C6324.17 3162.79 6316.14 3154.75 6306.24 3154.75C6296.34 3154.75 6288.31 3162.79 6288.31 3172.68C6288.31 3182.58 6296.34 3190.61 6306.24 3190.61Z" fill="#CCCDD0"/>
<path d="M6306.24 3250.39C6316.14 3250.39 6324.17 3242.35 6324.17 3232.46C6324.17 3222.56 6316.14 3214.52 6306.24 3214.52C6296.34 3214.52 6288.31 3222.56 6288.31 3232.46C6288.31 3242.35 6296.34 3250.39 6306.24 3250.39Z" fill="#CCCDD0"/>
<path d="M6366.01 3011.3C6375.91 3011.3 6383.95 3003.27 6383.95 2993.37C6383.95 2983.47 6375.91 2975.44 6366.01 2975.44C6356.11 2975.44 6348.08 2983.47 6348.08 2993.37C6348.08 3003.27 6356.11 3011.3 6366.01 3011.3Z" fill="#CCCDD0"/>
<path d="M6366.01 3071.07C6375.91 3071.07 6383.95 3063.04 6383.95 3053.14C6383.95 3043.24 6375.91 3035.21 6366.01 3035.21C6356.11 3035.21 6348.08 3043.24 6348.08 3053.14C6348.08 3063.04 6356.11 3071.07 6366.01 3071.07Z" fill="#CCCDD0"/>
<path d="M6366.01 3130.84C6375.91 3130.84 6383.95 3122.81 6383.95 3112.91C6383.95 3103.01 6375.91 3094.98 6366.01 3094.98C6356.11 3094.98 6348.08 3103.01 6348.08 3112.91C6348.08 3122.81 6356.11 3130.84 6366.01 3130.84Z" fill="#CCCDD0"/>
<path d="M6366.01 3190.61C6375.91 3190.61 6383.95 3182.58 6383.95 3172.68C6383.95 3162.79 6375.91 3154.75 6366.01 3154.75C6356.11 3154.75 6348.08 3162.79 6348.08 3172.68C6348.08 3182.58 6356.11 3190.61 6366.01 3190.61Z" fill="#CCCDD0"/>
<path d="M6366.01 3250.39C6375.91 3250.39 6383.95 3242.35 6383.95 3232.46C6383.95 3222.56 6375.91 3214.52 6366.01 3214.52C6356.11 3214.52 6348.08 3222.56 6348.08 3232.46C6348.08 3242.35 6356.11 3250.39 6366.01 3250.39Z" fill="#CCCDD0"/>
<path d="M6425.79 3011.3C6435.69 3011.3 6443.72 3003.27 6443.72 2993.37C6443.72 2983.47 6435.69 2975.44 6425.79 2975.44C6415.89 2975.44 6407.86 2983.47 6407.86 2993.37C6407.86 3003.27 6415.89 3011.3 6425.79 3011.3Z" fill="#CCCDD0"/>
<path d="M6425.79 3071.07C6435.69 3071.07 6443.72 3063.04 6443.72 3053.14C6443.72 3043.24 6435.69 3035.21 6425.79 3035.21C6415.89 3035.21 6407.86 3043.24 6407.86 3053.14C6407.86 3063.04 6415.89 3071.07 6425.79 3071.07Z" fill="#CCCDD0"/>
<path d="M6425.79 3130.84C6435.69 3130.84 6443.72 3122.81 6443.72 3112.91C6443.72 3103.01 6435.69 3094.98 6425.79 3094.98C6415.89 3094.98 6407.86 3103.01 6407.86 3112.91C6407.86 3122.81 6415.89 3130.84 6425.79 3130.84Z" fill="#CCCDD0"/>
<path d="M6425.79 3190.61C6435.69 3190.61 6443.72 3182.58 6443.72 3172.68C6443.72 3162.79 6435.69 3154.75 6425.79 3154.75C6415.89 3154.75 6407.86 3162.79 6407.86 3172.68C6407.86 3182.58 6415.89 3190.61 6425.79 3190.61Z" fill="#CCCDD0"/>
<path d="M6425.79 3250.39C6435.69 3250.39 6443.72 3242.35 6443.72 3232.46C6443.72 3222.56 6435.69 3214.52 6425.79 3214.52C6415.89 3214.52 6407.86 3222.56 6407.86 3232.46C6407.86 3242.35 6415.89 3250.39 6425.79 3250.39Z" fill="#CCCDD0"/>
<path d="M6485.56 3011.3C6495.46 3011.3 6503.5 3003.27 6503.5 2993.37C6503.5 2983.47 6495.46 2975.44 6485.56 2975.44C6475.66 2975.44 6467.63 2983.47 6467.63 2993.37C6467.63 3003.27 6475.66 3011.3 6485.56 3011.3Z" fill="#CCCDD0"/>
<path d="M6485.56 3071.07C6495.46 3071.07 6503.5 3063.04 6503.5 3053.14C6503.5 3043.24 6495.46 3035.21 6485.56 3035.21C6475.66 3035.21 6467.63 3043.24 6467.63 3053.14C6467.63 3063.04 6475.66 3071.07 6485.56 3071.07Z" fill="#CCCDD0"/>
<path d="M6485.56 3130.84C6495.46 3130.84 6503.5 3122.81 6503.5 3112.91C6503.5 3103.01 6495.46 3094.98 6485.56 3094.98C6475.66 3094.98 6467.63 3103.01 6467.63 3112.91C6467.63 3122.81 6475.66 3130.84 6485.56 3130.84Z" fill="#CCCDD0"/>
<path d="M6485.56 3190.61C6495.46 3190.61 6503.5 3182.58 6503.5 3172.68C6503.5 3162.79 6495.46 3154.75 6485.56 3154.75C6475.66 3154.75 6467.63 3162.79 6467.63 3172.68C6467.63 3182.58 6475.66 3190.61 6485.56 3190.61Z" fill="#CCCDD0"/>
<path d="M6485.56 3250.39C6495.46 3250.39 6503.5 3242.35 6503.5 3232.46C6503.5 3222.56 6495.46 3214.52 6485.56 3214.52C6475.66 3214.52 6467.63 3222.56 6467.63 3232.46C6467.63 3242.35 6475.66 3250.39 6485.56 3250.39Z" fill="#CCCDD0"/>
<path d="M6545.34 3011.3C6555.24 3011.3 6563.27 3003.27 6563.27 2993.37C6563.27 2983.47 6555.24 2975.44 6545.34 2975.44C6535.44 2975.44 6527.41 2983.47 6527.41 2993.37C6527.41 3003.27 6535.44 3011.3 6545.34 3011.3Z" fill="#CCCDD0"/>
<path d="M6545.34 3071.07C6555.24 3071.07 6563.27 3063.04 6563.27 3053.14C6563.27 3043.24 6555.24 3035.21 6545.34 3035.21C6535.44 3035.21 6527.41 3043.24 6527.41 3053.14C6527.41 3063.04 6535.44 3071.07 6545.34 3071.07Z" fill="#CCCDD0"/>
<path d="M6545.34 3130.84C6555.24 3130.84 6563.27 3122.81 6563.27 3112.91C6563.27 3103.01 6555.24 3094.98 6545.34 3094.98C6535.44 3094.98 6527.41 3103.01 6527.41 3112.91C6527.41 3122.81 6535.44 3130.84 6545.34 3130.84Z" fill="#CCCDD0"/>
<path d="M6545.34 3190.61C6555.24 3190.61 6563.27 3182.58 6563.27 3172.68C6563.27 3162.79 6555.24 3154.75 6545.34 3154.75C6535.44 3154.75 6527.41 3162.79 6527.41 3172.68C6527.41 3182.58 6535.44 3190.61 6545.34 3190.61Z" fill="#CCCDD0"/>
<path d="M6545.34 3250.39C6555.24 3250.39 6563.27 3242.35 6563.27 3232.46C6563.27 3222.56 6555.24 3214.52 6545.34 3214.52C6535.44 3214.52 6527.41 3222.56 6527.41 3232.46C6527.41 3242.35 6535.44 3250.39 6545.34 3250.39Z" fill="#CCCDD0"/>
<path d="M6605.11 3011.3C6615.01 3011.3 6623.04 3003.27 6623.04 2993.37C6623.04 2983.47 6615.01 2975.44 6605.11 2975.44C6595.21 2975.44 6587.18 2983.47 6587.18 2993.37C6587.18 3003.27 6595.21 3011.3 6605.11 3011.3Z" fill="#CCCDD0"/>
<path d="M6605.11 3071.07C6615.01 3071.07 6623.04 3063.04 6623.04 3053.14C6623.04 3043.24 6615.01 3035.21 6605.11 3035.21C6595.21 3035.21 6587.18 3043.24 6587.18 3053.14C6587.18 3063.04 6595.21 3071.07 6605.11 3071.07Z" fill="#CCCDD0"/>
<path d="M6605.11 3130.84C6615.01 3130.84 6623.04 3122.81 6623.04 3112.91C6623.04 3103.01 6615.01 3094.98 6605.11 3094.98C6595.21 3094.98 6587.18 3103.01 6587.18 3112.91C6587.18 3122.81 6595.21 3130.84 6605.11 3130.84Z" fill="#CCCDD0"/>
<path d="M6605.11 3190.61C6615.01 3190.61 6623.04 3182.58 6623.04 3172.68C6623.04 3162.79 6615.01 3154.75 6605.11 3154.75C6595.21 3154.75 6587.18 3162.79 6587.18 3172.68C6587.18 3182.58 6595.21 3190.61 6605.11 3190.61Z" fill="#CCCDD0"/>
<path d="M6605.11 3250.39C6615.01 3250.39 6623.04 3242.35 6623.04 3232.46C6623.04 3222.56 6615.01 3214.52 6605.11 3214.52C6595.21 3214.52 6587.18 3222.56 6587.18 3232.46C6587.18 3242.35 6595.21 3250.39 6605.11 3250.39Z" fill="#CCCDD0"/>
<path d="M6366.01 3310.16C6375.91 3310.16 6383.95 3302.13 6383.95 3292.23C6383.95 3282.33 6375.91 3274.3 6366.01 3274.3C6356.11 3274.3 6348.08 3282.33 6348.08 3292.23C6348.08 3302.13 6356.11 3310.16 6366.01 3310.16Z" fill="#CCCDD0"/>
<path d="M6366.01 3369.93C6375.91 3369.93 6383.95 3361.9 6383.95 3352C6383.95 3342.1 6375.91 3334.07 6366.01 3334.07C6356.11 3334.07 6348.08 3342.1 6348.08 3352C6348.08 3361.9 6356.11 3369.93 6366.01 3369.93Z" fill="#CCCDD0"/>
<path d="M6366.01 3429.7C6375.91 3429.7 6383.95 3421.67 6383.95 3411.77C6383.95 3401.87 6375.91 3393.84 6366.01 3393.84C6356.11 3393.84 6348.08 3401.87 6348.08 3411.77C6348.08 3421.67 6356.11 3429.7 6366.01 3429.7Z" fill="#CCCDD0"/>
<path d="M6366.01 3489.47C6375.91 3489.47 6383.95 3481.44 6383.95 3471.54C6383.95 3461.64 6375.91 3453.61 6366.01 3453.61C6356.11 3453.61 6348.08 3461.64 6348.08 3471.54C6348.08 3481.44 6356.11 3489.47 6366.01 3489.47Z" fill="#CCCDD0"/>
<path d="M6366.01 3549.25C6375.91 3549.25 6383.95 3541.21 6383.95 3531.31C6383.95 3521.42 6375.91 3513.38 6366.01 3513.38C6356.11 3513.38 6348.08 3521.42 6348.08 3531.31C6348.08 3541.21 6356.11 3549.25 6366.01 3549.25Z" fill="#CCCDD0"/>
<path d="M6425.79 3310.16C6435.69 3310.16 6443.72 3302.13 6443.72 3292.23C6443.72 3282.33 6435.69 3274.3 6425.79 3274.3C6415.89 3274.3 6407.86 3282.33 6407.86 3292.23C6407.86 3302.13 6415.89 3310.16 6425.79 3310.16Z" fill="#CCCDD0"/>
<path d="M6425.79 3369.93C6435.69 3369.93 6443.72 3361.9 6443.72 3352C6443.72 3342.1 6435.69 3334.07 6425.79 3334.07C6415.89 3334.07 6407.86 3342.1 6407.86 3352C6407.86 3361.9 6415.89 3369.93 6425.79 3369.93Z" fill="#CCCDD0"/>
<path d="M6425.79 3429.7C6435.69 3429.7 6443.72 3421.67 6443.72 3411.77C6443.72 3401.87 6435.69 3393.84 6425.79 3393.84C6415.89 3393.84 6407.86 3401.87 6407.86 3411.77C6407.86 3421.67 6415.89 3429.7 6425.79 3429.7Z" fill="#CCCDD0"/>
<path d="M6425.79 3489.47C6435.69 3489.47 6443.72 3481.44 6443.72 3471.54C6443.72 3461.64 6435.69 3453.61 6425.79 3453.61C6415.89 3453.61 6407.86 3461.64 6407.86 3471.54C6407.86 3481.44 6415.89 3489.47 6425.79 3489.47Z" fill="#CCCDD0"/>
<path d="M6425.79 3549.25C6435.69 3549.25 6443.72 3541.21 6443.72 3531.31C6443.72 3521.42 6435.69 3513.38 6425.79 3513.38C6415.89 3513.38 6407.86 3521.42 6407.86 3531.31C6407.86 3541.21 6415.89 3549.25 6425.79 3549.25Z" fill="#CCCDD0"/>
<path d="M6485.56 3310.16C6495.46 3310.16 6503.5 3302.13 6503.5 3292.23C6503.5 3282.33 6495.46 3274.3 6485.56 3274.3C6475.66 3274.3 6467.63 3282.33 6467.63 3292.23C6467.63 3302.13 6475.66 3310.16 6485.56 3310.16Z" fill="#CCCDD0"/>
<path d="M6485.56 3369.93C6495.46 3369.93 6503.5 3361.9 6503.5 3352C6503.5 3342.1 6495.46 3334.07 6485.56 3334.07C6475.66 3334.07 6467.63 3342.1 6467.63 3352C6467.63 3361.9 6475.66 3369.93 6485.56 3369.93Z" fill="#CCCDD0"/>
<path d="M6485.56 3429.7C6495.46 3429.7 6503.5 3421.67 6503.5 3411.77C6503.5 3401.87 6495.46 3393.84 6485.56 3393.84C6475.66 3393.84 6467.63 3401.87 6467.63 3411.77C6467.63 3421.67 6475.66 3429.7 6485.56 3429.7Z" fill="#CCCDD0"/>
<path d="M6485.56 3489.47C6495.46 3489.47 6503.5 3481.44 6503.5 3471.54C6503.5 3461.64 6495.46 3453.61 6485.56 3453.61C6475.66 3453.61 6467.63 3461.64 6467.63 3471.54C6467.63 3481.44 6475.66 3489.47 6485.56 3489.47Z" fill="#CCCDD0"/>
<path d="M6485.56 3549.25C6495.46 3549.25 6503.5 3541.21 6503.5 3531.31C6503.5 3521.42 6495.46 3513.38 6485.56 3513.38C6475.66 3513.38 6467.63 3521.42 6467.63 3531.31C6467.63 3541.21 6475.66 3549.25 6485.56 3549.25Z" fill="#CCCDD0"/>
<path d="M6545.34 3310.16C6555.24 3310.16 6563.27 3302.13 6563.27 3292.23C6563.27 3282.33 6555.24 3274.3 6545.34 3274.3C6535.44 3274.3 6527.41 3282.33 6527.41 3292.23C6527.41 3302.13 6535.44 3310.16 6545.34 3310.16Z" fill="#CCCDD0"/>
<path d="M6545.34 3369.93C6555.24 3369.93 6563.27 3361.9 6563.27 3352C6563.27 3342.1 6555.24 3334.07 6545.34 3334.07C6535.44 3334.07 6527.41 3342.1 6527.41 3352C6527.41 3361.9 6535.44 3369.93 6545.34 3369.93Z" fill="#CCCDD0"/>
<path d="M6545.34 3429.7C6555.24 3429.7 6563.27 3421.67 6563.27 3411.77C6563.27 3401.87 6555.24 3393.84 6545.34 3393.84C6535.44 3393.84 6527.41 3401.87 6527.41 3411.77C6527.41 3421.67 6535.44 3429.7 6545.34 3429.7Z" fill="#CCCDD0"/>
<path d="M6545.34 3489.47C6555.24 3489.47 6563.27 3481.44 6563.27 3471.54C6563.27 3461.64 6555.24 3453.61 6545.34 3453.61C6535.44 3453.61 6527.41 3461.64 6527.41 3471.54C6527.41 3481.44 6535.44 3489.47 6545.34 3489.47Z" fill="#CCCDD0"/>
<path d="M6545.34 3549.25C6555.24 3549.25 6563.27 3541.21 6563.27 3531.31C6563.27 3521.42 6555.24 3513.38 6545.34 3513.38C6535.44 3513.38 6527.41 3521.42 6527.41 3531.31C6527.41 3541.21 6535.44 3549.25 6545.34 3549.25Z" fill="#CCCDD0"/>
<path d="M6605.11 3310.16C6615.01 3310.16 6623.04 3302.13 6623.04 3292.23C6623.04 3282.33 6615.01 3274.3 6605.11 3274.3C6595.21 3274.3 6587.18 3282.33 6587.18 3292.23C6587.18 3302.13 6595.21 3310.16 6605.11 3310.16Z" fill="#CCCDD0"/>
<path d="M6605.11 3369.93C6615.01 3369.93 6623.04 3361.9 6623.04 3352C6623.04 3342.1 6615.01 3334.07 6605.11 3334.07C6595.21 3334.07 6587.18 3342.1 6587.18 3352C6587.18 3361.9 6595.21 3369.93 6605.11 3369.93Z" fill="#CCCDD0"/>
<path d="M6605.11 3429.7C6615.01 3429.7 6623.04 3421.67 6623.04 3411.77C6623.04 3401.87 6615.01 3393.84 6605.11 3393.84C6595.21 3393.84 6587.18 3401.87 6587.18 3411.77C6587.18 3421.67 6595.21 3429.7 6605.11 3429.7Z" fill="#CCCDD0"/>
<path d="M6605.11 3489.47C6615.01 3489.47 6623.04 3481.44 6623.04 3471.54C6623.04 3461.64 6615.01 3453.61 6605.11 3453.61C6595.21 3453.61 6587.18 3461.64 6587.18 3471.54C6587.18 3481.44 6595.21 3489.47 6605.11 3489.47Z" fill="#CCCDD0"/>
<path d="M6605.11 3549.25C6615.01 3549.25 6623.04 3541.21 6623.04 3531.31C6623.04 3521.42 6615.01 3513.38 6605.11 3513.38C6595.21 3513.38 6587.18 3521.42 6587.18 3531.31C6587.18 3541.21 6595.21 3549.25 6605.11 3549.25Z" fill="#CCCDD0"/>
<path d="M5868.69 2841.55C5862.71 2837.96 5853.15 2839.16 5843.58 2843.94C5824.45 2854.7 5808.91 2882.19 5808.91 2903.71C5808.91 2914.47 5812.5 2922.84 5819.67 2926.42L6016.93 3039.99L6065.94 2955.11L5868.69 2841.55Z" fill="#34C2C8"/>
<path d="M6064.84 3012.16C6078.51 2988.79 6078.5 2963.36 6064.81 2955.37C6051.13 2947.38 6028.97 2959.84 6015.3 2983.21C6001.64 3006.58 6001.66 3032 6015.34 3040C6029.02 3048 6051.18 3035.53 6064.84 3012.16Z" fill="#91FAEB"/>
<path d="M406.469 2043H322.784V2126.68H406.469V2043Z" fill="#CCCDD0"/>
<path d="M466.243 1983.23H430.378V2019.09H466.243V1983.23Z" fill="#B3B5B9"/>
<path d="M6303.85 2431.51L6264.4 2380.11L6236.9 2386.09L6263.2 2418.36L6187.88 2432.71L6202.23 2394.46L6172.34 2400.43L6149.63 2463.79C6148.43 2467.38 6150.82 2470.96 6154.41 2469.77L6302.65 2438.69C6305.04 2438.69 6306.24 2435.1 6303.85 2431.51Z" fill="#B3B5B9"/>
<path d="M6211.79 2313.17C6209.4 2310.78 6205.82 2310.78 6204.62 2314.36L6180.71 2378.92L6251.25 2363.37L6211.79 2313.17Z" fill="#B3B5B9"/>
<path d="M6208.21 4602.42L6032.47 4500.81C5975.09 4467.34 5971.5 4415.94 6024.1 4386.05C6076.7 4354.97 6073.12 4303.56 6015.73 4271.29L5547.1 3999.92C5355.82 3889.94 5355.82 3668.79 5355.82 3668.79L4208.14 4331.06C4208.14 4331.06 4208.14 4552.22 4399.42 4662.2L5443.09 5264.69C5500.48 5298.17 5588.94 5300.56 5640.35 5269.48C5692.95 5239.59 5688.17 5188.19 5630.78 5154.71L5455.05 5053.1C5397.66 5019.63 5395.27 4968.23 5449.07 4937.15C5502.87 4906.06 5588.94 4906.06 5641.54 4935.95C5694.15 4965.84 5780.22 4967.03 5832.82 4935.95C5885.42 4904.87 5881.84 4853.46 5824.45 4821.19L5648.72 4719.58C5591.33 4686.1 5587.75 4634.7 5640.35 4604.81C5692.95 4573.73 5782.61 4576.12 5840 4609.6L6015.73 4711.21C6073.12 4744.68 6161.58 4745.88 6215.38 4715.99C6269.18 4686.1 6265.59 4634.7 6208.21 4602.42Z" fill="white"/>
<path d="M5312.78 847.563L5120.31 736.388C5119.11 736.388 5119.11 735.192 5117.92 735.192C5097.59 724.433 5049.77 716.065 5049.77 716.065C5049.77 716.065 4976.85 729.215 4939.79 750.733L4205.75 1173.92C4081.42 1245.64 3981 1420.18 3969.04 1563.63V4327.47H3981V4515.16C3981 4568.95 3994.15 4614.38 4020.45 4646.66C4027.62 4655.02 4034.8 4662.2 4043.17 4669.37C4051.53 4675.35 4059.9 4681.32 4069.47 4686.1L4249.99 4787.72L4407.79 4572.54L4975.65 4246.18C5099.98 4174.46 5200.41 3999.92 5200.41 3856.47L5212.36 3214.52V3152.36H5200.41V1195.43L5298.44 1169.14C5313.98 1165.55 5324.74 1151.2 5324.74 1135.66L5330.71 878.645C5330.71 865.495 5324.74 853.54 5312.78 847.563Z" fill="url(#paint0_linear_154_1466)"/>
<path d="M4321.72 4786.52C4282.26 4786.52 4248.79 4770.98 4224.88 4741.09C4200.97 4711.21 4189.02 4670.56 4189.02 4620.36V3965.26L5372.56 3286.25L5374.95 3959.28C5374.95 4096.75 5278.11 4264.12 5159.76 4333.45L4423.33 4756.63C4388.66 4776.96 4353.99 4786.52 4321.72 4786.52Z" fill="#333943"/>
<path d="M5354.62 3318.53L5357.02 3960.48C5357.02 4091.97 5264.96 4253.36 5150.19 4319.11L4414.96 4742.29C4381.49 4761.42 4350.41 4769.78 4322.91 4769.78C4254.77 4769.78 4208.14 4715.99 4208.14 4621.55V3977.21L5354.62 3318.53ZM5390.49 3256.36L5336.69 3287.45L4189.02 3946.13L4171.08 3956.89V3977.21V4621.55C4171.08 4675.35 4184.23 4720.77 4210.54 4753.05C4238.03 4786.52 4277.48 4805.65 4321.72 4805.65C4356.39 4805.65 4393.45 4794.89 4431.7 4773.37L5166.93 4350.19C5293.65 4277.27 5391.68 4106.32 5391.68 3960.48L5389.29 3318.53L5390.49 3256.36Z" fill="#333943"/>
<path d="M5241.05 864.299C5309.2 864.299 5355.82 918.094 5355.82 1012.53V3866.04L4208.14 4194.78V1674.8C4208.14 1543.31 4301.39 1381.92 4414.96 1316.17L5149 892.99C5182.47 873.863 5213.56 864.299 5241.05 864.299ZM5241.05 823.655C5206.38 823.655 5168.13 834.413 5131.07 857.127L4397.03 1280.31C4272.7 1352.04 4172.28 1526.57 4172.28 1670.02V4188.8V4236.62L4217.71 4223.47L5365.38 3894.73L5391.68 3887.55V3860.06V1007.75C5391.68 897.772 5330.71 823.655 5241.05 823.655Z" fill="#333943"/>
<path d="M5355.82 3643.68V1012.53C5355.82 881.035 5262.57 827.241 5149 892.99L4414.97 1316.17C4301.39 1381.92 4208.14 1543.31 4208.14 1674.8V4307.15C4208.14 4307.15 4208.14 4528.31 4399.42 4638.29L5547.1 3976.02C5355.82 3864.84 5355.82 3643.68 5355.82 3643.68Z" fill="url(#paint1_linear_154_1466)"/>
<path d="M4981.63 1134.47L4625.37 1340.08C4556.03 1379.53 4501.04 1337.69 4501.04 1245.64L5105.96 896.576C5105.96 987.429 5049.77 1093.82 4981.63 1134.47Z" fill="#333943"/>
<path d="M4875.23 1134.47L4680.36 1246.84C4668.41 1254.01 4660.04 1251.62 4660.04 1243.25C4660.04 1234.88 4669.61 1222.93 4680.36 1215.76L4875.23 1103.39C4887.19 1096.21 4895.55 1098.6 4895.55 1106.97C4895.55 1115.34 4885.99 1127.29 4875.23 1134.47Z" fill="#4D525B"/>
<path d="M4944.11 1089.86C4949.45 1080.74 4949.6 1070.91 4944.47 1067.92C4939.34 1064.92 4930.87 1069.88 4925.54 1079C4920.2 1088.12 4920.04 1097.94 4925.17 1100.94C4930.29 1103.94 4938.78 1098.98 4944.11 1089.86Z" fill="#FF757A"/>
<path d="M5641.54 5246.76C5694.15 5216.88 5689.36 5165.47 5631.98 5132L5456.24 5030.39C5398.86 4996.92 5396.47 4945.51 5450.26 4914.43C5504.06 4883.35 5590.14 4883.35 5642.74 4913.24C5695.34 4943.12 5781.42 4944.32 5834.02 4913.24C5886.62 4882.16 5883.03 4830.75 5825.65 4798.48L5649.91 4696.86C5592.53 4663.39 5588.94 4611.99 5641.54 4582.1C5694.15 4551.02 5783.81 4553.41 5841.19 4586.88L6016.93 4688.5C6074.31 4721.97 6162.78 4723.16 6216.58 4693.28C6269.18 4662.2 6265.59 4610.79 6208.21 4578.52L6032.47 4476.9C5975.09 4443.43 5971.5 4392.03 6024.1 4362.14C6076.7 4332.26 6073.12 4279.66 6015.73 4247.38L5547.1 3976.02L4399.42 4638.29L5443.09 5240.79C5500.47 5274.26 5588.94 5276.65 5641.54 5246.76Z" fill="#FAFAFA"/>
<path d="M5641.54 5246.76C5694.15 5216.88 5689.36 5165.47 5631.98 5132L5456.24 5030.39C5398.86 4996.92 5396.47 4945.51 5450.26 4914.43C5504.06 4883.35 5590.14 4883.35 5642.74 4913.24C5695.34 4943.12 5781.42 4944.32 5834.02 4913.24C5886.62 4882.16 5883.03 4830.75 5825.65 4798.48L5649.91 4696.86C5592.53 4663.39 5588.94 4611.99 5641.54 4582.1C5694.15 4551.02 5783.81 4553.41 5841.19 4586.88L6016.93 4688.5C6074.31 4721.97 6162.78 4723.16 6216.58 4693.28C6269.18 4662.2 6265.59 4610.79 6208.21 4578.52L6032.47 4476.9C5975.09 4443.43 5971.5 4392.03 6024.1 4362.14C6076.7 4332.26 6073.12 4279.66 6015.73 4247.38L5547.1 3976.02L4399.42 4638.29L5443.09 5240.79C5500.47 5274.26 5588.94 5276.65 5641.54 5246.76Z" fill="url(#paint2_linear_154_1466)"/>
<path d="M5898.57 4435.06L5193.23 4842.71C5176.5 4852.27 5176.5 4869.01 5193.23 4878.57L5457.44 5030.39C5400.05 4996.92 5397.66 4945.51 5451.46 4914.43C5505.26 4883.35 5591.33 4883.35 5643.93 4913.24C5696.54 4943.12 5782.61 4944.32 5835.21 4913.24C5887.82 4882.16 5884.23 4830.75 5826.85 4798.47L5651.11 4696.86C5593.72 4663.39 5590.14 4611.99 5642.74 4582.1C5695.34 4551.02 5785 4553.41 5842.39 4586.88L6018.12 4688.5C6075.51 4721.97 6163.97 4723.16 6217.77 4693.28C6270.37 4662.2 6266.79 4610.79 6209.4 4578.51L5961.94 4435.06C5944 4425.5 5915.31 4425.5 5898.57 4435.06Z" fill="#E6E7E8"/>
<path d="M4419.75 3964.06L5143.02 3545.66C5154.98 3538.49 5163.35 3544.46 5163.35 3557.61V3754.86L4398.23 4197.17V3999.92C4399.42 3985.58 4408.99 3970.04 4419.75 3964.06Z" fill="#999CA1"/>
<path d="M4399.42 4195.98C4399.42 4195.98 4399.42 4419.52 4588.31 4528.31L5357.02 4084.8C5165.74 3974.82 5165.74 3753.67 5165.74 3753.67L4399.42 4195.98Z" fill="#999CA1"/>
<path d="M4949.35 4738.7C4961.31 4745.88 4979.24 4745.88 4991.19 4738.7L5718.05 4319.11C5730.01 4311.93 5730.01 4302.37 5718.05 4295.2L5355.82 4086L4587.12 4529.5L4949.35 4738.7Z" fill="#E6E7E8"/>
<path d="M5232.68 4235.43L4850.13 4456.58L4829.8 4444.63L5212.36 4223.47L5232.68 4235.43Z" fill="#999CA1"/>
<path d="M4890.77 4480.49L5273.33 4259.33L5294.85 4271.29L4911.09 4492.44" fill="#999CA1"/>
<path d="M5170.52 4413.55L4973.26 4527.11L4952.94 4515.16L5149 4401.59L5170.52 4413.55Z" fill="#999CA1"/>
<path d="M4815.46 4075.24L4608.64 4193.59L4603.85 4173.26L4809.48 4054.92L4815.46 4075.24Z" fill="#666A72"/>
<path d="M4992.39 3973.62L4921.85 4014.27L4917.07 3992.75L4986.41 3953.3L4992.39 3973.62Z" fill="#666A72"/>
<path d="M4887.19 4034.59L4848.93 4056.11L4842.95 4035.79L4881.21 4014.27L4887.19 4034.59Z" fill="#666A72"/>
<path d="M4866.86 3950.91L4590.7 4109.9V4086L4866.86 3927V3950.91Z" fill="#666A72"/>
<path d="M4902.73 4120.66L4640.91 4272.48L4631.35 4253.36L4894.36 4101.54L4902.73 4120.66Z" fill="#666A72"/>
<path d="M4399.42 1689.15V1862.49C4399.42 1875.64 4408.99 1881.61 4419.75 1874.44L4569.18 1788.37C4581.14 1781.2 4589.51 1765.66 4589.51 1752.51V1579.17C4589.51 1566.02 4579.94 1560.04 4569.18 1567.21L4419.75 1653.29C4408.99 1660.46 4399.42 1676 4399.42 1689.15Z" fill="#666A72"/>
<path d="M4590.7 1579.17C4590.7 1572 4588.31 1568.41 4584.72 1566.02L4405.4 1876.83C4408.99 1879.22 4413.77 1879.22 4419.75 1875.64L4569.18 1789.57C4581.14 1782.39 4589.51 1766.85 4589.51 1753.7L4590.7 1579.17Z" fill="#80838A"/>
<path d="M5042.6 1346.06C5042.6 1352.04 5047.38 1355.62 5053.36 1352.04L5157.37 1292.26C5163.34 1288.68 5168.13 1281.51 5168.13 1274.33C5168.13 1268.36 5163.34 1264.77 5157.37 1268.36L5053.36 1328.13C5047.38 1331.71 5042.6 1340.08 5042.6 1346.06Z" fill="#80838A"/>
<path d="M5042.6 1393.88C5042.6 1399.85 5047.38 1403.44 5053.36 1399.85L5157.37 1340.08C5163.34 1336.5 5168.13 1329.32 5168.13 1322.15C5168.13 1316.17 5163.34 1312.59 5157.37 1316.17L5053.36 1375.95C5047.38 1379.53 5042.6 1386.7 5042.6 1393.88Z" fill="#80838A"/>
<path d="M5042.6 1441.69C5042.6 1447.67 5047.38 1451.26 5053.36 1447.67L5157.37 1387.9C5163.34 1384.31 5168.13 1377.14 5168.13 1369.97C5168.13 1363.99 5163.34 1360.4 5157.37 1363.99L5053.36 1423.76C5047.38 1426.15 5042.6 1434.52 5042.6 1441.69Z" fill="#80838A"/>
<path d="M5144.22 1670.02L4420.94 2086.03C4408.99 2093.21 4400.62 2106.36 4400.62 2115.92C4400.62 2125.48 4410.18 2127.87 4420.94 2121.9L5144.22 1705.89C5156.17 1698.71 5164.54 1685.56 5164.54 1676C5164.54 1666.44 5154.98 1664.05 5144.22 1670.02Z" fill="#80838A"/>
<path d="M4991.19 1837.38L4419.75 2166.13C4407.79 2173.3 4399.42 2186.45 4399.42 2196.01C4399.42 2205.58 4408.99 2207.97 4419.75 2201.99L4991.19 1873.25C5003.15 1866.07 5011.52 1852.92 5011.52 1843.36C5011.52 1833.8 5003.15 1830.21 4991.19 1837.38Z" fill="#80838A"/>
<path d="M5144.22 2884.58L4420.94 3300.6C4408.99 3307.77 4400.62 3320.92 4400.62 3330.48C4400.62 3340.04 4410.18 3342.44 4420.94 3336.46L5144.22 2920.45C5156.17 2913.27 5164.54 2900.12 5164.54 2890.56C5164.54 2881 5154.98 2878.61 5144.22 2884.58Z" fill="#80838A"/>
<path d="M5144.22 2964.68L4420.94 3380.69C4408.99 3387.86 4400.62 3401.01 4400.62 3410.58C4400.62 3420.14 4410.18 3422.53 4420.94 3416.55L5144.22 3000.54C5156.17 2993.37 5164.54 2980.22 5164.54 2970.66C5164.54 2961.09 5154.98 2957.51 5144.22 2964.68Z" fill="#80838A"/>
<path d="M4679.17 3629.34L4419.75 3778.77C4407.79 3785.94 4399.42 3782.36 4399.42 3772.79C4399.42 3763.23 4408.99 3750.08 4419.75 3742.91L4679.17 3593.48C4691.12 3586.3 4699.49 3589.89 4699.49 3599.45C4699.49 3609.02 4689.93 3622.17 4679.17 3629.34Z" fill="#80838A"/>
<path d="M4757.33 3578.84C4763.33 3568.59 4763.12 3557.29 4756.84 3553.63C4750.58 3549.96 4740.63 3555.31 4734.63 3565.58C4728.63 3575.83 4728.85 3587.12 4735.12 3590.79C4741.39 3594.45 4751.34 3589.1 4757.33 3578.84Z" fill="#80838A"/>
<path d="M5547.1 3976.02C5355.82 3866.04 5355.82 3644.88 5355.82 3644.88L4208.14 4307.15C4208.14 4307.15 4208.14 4528.31 4399.42 4638.29L5547.1 3976.02Z" fill="url(#paint3_linear_154_1466)"/>
<path d="M5164.54 1988.01L5547.1 2209.16L4781.98 2650.28L4399.42 2429.12L5164.54 1988.01Z" fill="#FCBD2E"/>
<path d="M4781.98 3312.55V2650.28L5547.1 2209.16V2871.43L4781.98 3312.55Z" fill="url(#paint4_linear_154_1466)"/>
<path d="M4399.42 2429.12V3092.59L4781.98 3312.55V2650.28L4399.42 2429.12Z" fill="url(#paint5_linear_154_1466)"/>
<path d="M5109.55 2928.82C5096.4 2928.82 5083.25 2925.23 5071.29 2919.25C5044.99 2903.71 5029.45 2872.63 5029.45 2830.79C5029.45 2749.5 5086.83 2651.47 5157.37 2610.83C5194.43 2589.31 5229.1 2586.92 5255.4 2602.46C5281.7 2618 5297.24 2649.08 5297.24 2690.92C5297.24 2772.21 5239.86 2870.24 5169.32 2910.88C5149 2922.84 5128.68 2928.82 5109.55 2928.82ZM5170.52 2631.15C5107.16 2668.21 5054.55 2757.87 5054.55 2830.79C5054.55 2863.07 5065.31 2888.17 5084.44 2898.93C5103.57 2909.69 5129.87 2907.3 5158.56 2890.56C5221.92 2853.5 5274.53 2763.85 5274.53 2690.92C5274.53 2658.65 5263.77 2633.54 5244.64 2622.78C5225.51 2612.02 5199.21 2614.42 5170.52 2631.15Z" fill="#D3E0F2"/>
<path d="M5132.26 2736.35C5132.26 2729.18 5138.24 2723.2 5144.22 2723.2L5209.97 2727.98C5214.75 2729.18 5215.95 2733.96 5209.97 2741.13L5144.22 2822.42C5138.24 2829.59 5132.26 2830.79 5132.26 2823.62V2736.35Z" fill="#D3E0F2"/>
<path d="M5872.99 5104.28C5873.22 5061.36 5812.93 5026.24 5738.32 5025.85C5663.71 5025.44 5603.04 5059.89 5602.81 5102.81C5602.57 5145.72 5662.87 5180.85 5737.47 5181.25C5812.08 5181.65 5872.75 5147.2 5872.99 5104.28Z" fill="white"/>
<path d="M5872.99 5080.37C5873.22 5037.45 5812.93 5002.33 5738.32 5001.94C5663.71 5001.53 5603.04 5035.98 5602.81 5078.9C5602.57 5121.82 5662.87 5156.94 5737.47 5157.34C5812.08 5157.74 5872.75 5123.29 5872.99 5080.37Z" fill="#E6E7E8"/>
<path d="M6255.92 5104.14C6256.15 5061.22 6195.86 5026.11 6121.25 5025.7C6046.64 5025.3 5985.97 5059.76 5985.74 5102.68C5985.5 5145.59 6045.8 5180.7 6120.41 5181.11C6195.01 5181.52 6255.68 5147.05 6255.92 5104.14Z" fill="white"/>
<path d="M6255.92 5080.23C6256.15 5037.31 6195.86 5002.2 6121.25 5001.79C6046.64 5001.39 5985.97 5035.85 5985.74 5078.77C5985.5 5121.68 6045.8 5156.79 6120.41 5157.2C6195.01 5157.61 6255.68 5123.14 6255.92 5080.23Z" fill="#E6E7E8"/>
<path d="M6447.36 4772.71C6447.58 4729.8 6387.29 4694.69 6312.68 4694.28C6238.07 4693.87 6177.4 4728.34 6177.17 4771.25C6176.93 4814.16 6237.23 4849.28 6311.85 4849.69C6386.46 4850.09 6447.12 4815.63 6447.36 4772.71Z" fill="white"/>
<path d="M6447.36 4748.8C6447.58 4705.89 6387.29 4670.78 6312.68 4670.37C6238.07 4669.97 6177.4 4704.43 6177.17 4747.35C6176.93 4790.25 6237.23 4825.37 6311.85 4825.78C6386.46 4826.19 6447.12 4791.72 6447.36 4748.8Z" fill="#E6E7E8"/>
<path d="M4016.87 4969.42L4208.14 4859.44L4016.87 4748.27L3825.59 4857.05L4016.87 4969.42Z" fill="#F2F2F3"/>
<path d="M4016.87 5410.54V4969.42L4208.14 4859.44V5410.54H4016.87Z" fill="url(#paint6_linear_154_1466)"/>
<path d="M3443.03 4638.29L4016.87 4969.42V5410.54H3443.03V4638.29Z" fill="url(#paint7_linear_154_1466)"/>
<path d="M1338.96 3202.57V671.834C1338.96 606.086 1385.58 578.591 1442.96 612.063L4105.33 2149.39C4162.72 2182.86 4209.34 2262.96 4209.34 2328.71V4859.44L1338.96 3202.57Z" fill="#F2F2F3"/>
<path d="M4016.87 2437.49L4208.14 2327.51V4859.44L4016.87 4969.42V2437.49Z" fill="url(#paint8_linear_154_1466)"/>
<path d="M1205.06 695.743L1395.14 584.568L4104.14 2148.2L3912.86 2259.37L1256.47 724.433H1166.8L1205.06 695.743Z" fill="#F2F2F3"/>
<path d="M1147.68 3312.55V781.814C1147.68 716.066 1194.3 688.571 1251.68 722.043L3912.86 2259.37C3970.24 2292.84 4016.87 2372.94 4016.87 2438.69V4969.42L1147.68 3312.55Z" fill="#E6E7E8"/>
<path d="M1412.56 1071.78C1428.52 1062.45 1428.22 1032.24 1411.89 1004.31C1395.56 976.386 1369.39 961.309 1353.43 970.639C1337.47 979.968 1337.77 1010.17 1354.1 1038.1C1370.43 1066.03 1396.6 1081.11 1412.56 1071.78Z" fill="#FA6058"/>
<path d="M1547.58 1149.23C1563.54 1139.9 1563.24 1109.69 1546.92 1081.76C1530.59 1053.84 1504.41 1038.76 1488.45 1048.09C1472.49 1057.42 1472.79 1087.62 1489.12 1115.55C1505.45 1143.48 1531.62 1158.56 1547.58 1149.23Z" fill="#FCBD2E"/>
<path d="M1682.61 1226.67C1698.57 1217.35 1698.27 1187.14 1681.94 1159.21C1665.61 1131.29 1639.44 1116.21 1623.48 1125.54C1607.52 1134.87 1607.82 1165.07 1624.15 1193C1640.47 1220.93 1666.65 1236.01 1682.61 1226.67Z" fill="#30CA41"/>
<path d="M3849.5 2536.71C3849.5 2470.96 3806.46 2392.07 3753.86 2362.18C3709.62 2335.88 3671.37 2350.22 3661.8 2392.07C3645.07 2402.82 3634.31 2423.15 3634.31 2453.03C3634.31 2462.6 3633.11 2470.96 3630.72 2478.14C3612.79 2488.9 3588.88 2487.7 3562.58 2472.16C3509.97 2441.08 3466.94 2363.37 3466.94 2297.63V1653.29C3466.94 1587.54 3423.9 1508.64 3371.3 1478.75C3328.26 1453.65 3292.39 1467.99 3280.44 1511.03C3262.51 1522.98 3252.94 1546.89 3252.94 1579.17V2223.51C3252.94 2235.46 3251.75 2246.22 3249.36 2255.79C3232.62 2267.74 3208.71 2266.54 3181.21 2252.2C3128.61 2221.12 3085.57 2147 3085.57 2087.23C3085.57 2026.26 3042.54 1952.15 2989.93 1922.26C2945.7 1895.96 2907.45 1910.3 2896.69 1952.15C2879.95 1962.9 2870.38 1983.23 2870.38 2013.11C2870.38 2022.68 2869.19 2031.04 2867.99 2038.22C2850.06 2048.98 2826.15 2047.78 2799.85 2032.24C2747.25 2002.35 2704.21 1953.34 2704.21 1923.45C2704.21 1893.57 2661.17 1836.19 2608.57 1806.3C2555.97 1775.22 2512.93 1784.78 2512.93 1813.47C2512.93 1818.26 2511.74 1821.84 2509.34 1824.23C2503.37 1825.43 2498.59 1829.02 2495 1832.6C2475.87 1836.19 2444.79 1826.62 2408.92 1806.3L1034.1 1012.53C1004.21 995.797 980.304 1008.95 980.304 1041.22C965.958 1043.61 956.394 1056.76 956.394 1078.28V3227.67C956.394 3227.67 956.394 3328.09 897.815 3427.31C871.514 3463.17 835.649 3496.65 789.025 3522.95L127.916 3905.49C102.81 3919.83 88.4639 3937.76 83.682 3955.69C46.6216 3987.97 50.2081 4029.81 95.6369 4056.11C148.239 4087.19 234.315 4087.19 286.916 4056.11C339.518 4025.03 425.594 4025.03 478.196 4056.11C508.083 4072.85 520.038 4097.95 514.061 4120.66C508.083 4125.45 502.106 4130.23 493.737 4135.01L126.72 4346.6C101.614 4360.95 87.2684 4378.88 82.4865 4396.81C45.4261 4429.09 49.0126 4470.93 94.4414 4497.23C147.043 4528.31 233.119 4528.31 285.721 4497.23C338.323 4466.14 424.398 4466.14 477 4497.23C506.888 4513.96 518.843 4539.07 512.865 4561.78C506.888 4566.56 500.91 4571.34 492.542 4576.12L316.804 4677.74C291.698 4692.08 277.352 4710.01 272.571 4727.94C235.51 4760.22 239.097 4802.06 284.525 4828.36C337.127 4859.44 426.789 4857.05 484.173 4823.58L851.19 4611.99C908.574 4578.52 997.041 4577.32 1050.84 4607.21C1080.73 4623.94 1092.68 4649.05 1086.7 4671.76C1080.73 4676.54 1074.75 4681.32 1066.38 4686.1L890.642 4787.72C865.536 4802.06 851.19 4819.99 846.408 4837.92C809.348 4870.2 812.934 4912.04 858.363 4938.34C910.965 4969.42 1000.63 4967.03 1058.01 4933.56L1133.33 4890.52C1190.71 4857.05 1279.18 4855.86 1332.98 4885.74C1364.06 4903.67 1376.02 4929.97 1367.65 4953.88L1274.4 5007.68C1249.29 5022.02 1234.95 5039.95 1230.16 5057.88C1193.1 5090.16 1196.69 5132 1242.12 5158.3C1294.72 5189.38 1384.38 5186.99 1441.77 5153.52L1808.78 4941.93C1866.17 4908.46 1954.64 4907.26 2008.43 4937.15C2038.32 4955.08 2051.47 4978.99 2046.69 5001.7C2041.91 5005.29 2037.12 5008.87 2032.34 5011.26C2009.63 5024.41 1997.67 5039.95 1994.09 5056.69C1957.03 5087.77 1961.81 5129.61 2008.43 5157.11C2061.03 5188.19 2150.7 5185.8 2208.08 5152.32L2383.82 5050.71C2441.2 5017.24 2529.67 5016.04 2583.47 5045.93C2613.35 5063.86 2626.5 5087.77 2621.72 5110.48C2616.94 5114.07 2612.16 5117.66 2607.38 5120.05C2584.66 5133.2 2572.71 5148.74 2569.12 5165.47C2532.06 5196.56 2536.84 5238.4 2583.47 5265.89C2636.07 5296.97 2725.73 5294.58 2783.11 5261.11L2958.85 5159.5C3016.24 5126.02 3104.7 5124.83 3158.5 5154.71C3188.39 5172.65 3201.54 5196.56 3196.75 5219.27C3191.97 5222.85 3187.19 5226.44 3182.41 5228.83C3159.69 5241.98 3147.74 5257.52 3144.15 5274.26C3107.09 5305.34 3111.87 5347.18 3158.5 5374.67C3211.1 5405.76 3300.76 5403.37 3358.15 5369.89L3533.88 5268.28C3591.27 5234.81 3685.71 5183.41 3729.95 5134.39C3747.88 5114.07 3763.42 5093.75 3775.37 5072.23C3851.89 4969.42 3853.08 4859.44 3853.08 4859.44V2536.71H3849.5Z" fill="white"/>
<path d="M2486.63 1824.23C2486.63 1794.35 2529.67 1785.98 2582.27 1817.06C2634.87 1848.14 2677.91 1905.52 2677.91 1934.21C2677.91 1964.1 2720.95 2011.92 2773.55 2043C2826.15 2072.88 2869.19 2048.98 2869.19 1988.01C2869.19 1927.04 2912.23 1903.13 2964.83 1933.02C3017.43 1964.1 3060.47 2037.02 3060.47 2097.99C3060.47 2158.96 3103.51 2233.07 3156.11 2262.96C3208.71 2294.04 3251.75 2264.15 3251.75 2198.4V1554.07C3251.75 1488.32 3294.79 1459.63 3347.39 1489.51C3399.99 1519.4 3443.03 1598.3 3443.03 1664.05V2308.38C3443.03 2374.13 3486.07 2453.03 3538.67 2482.92C3591.27 2514 3634.31 2488.9 3634.31 2427.93C3634.31 2366.96 3677.34 2341.86 3729.95 2372.94C3782.55 2404.02 3825.59 2481.72 3825.59 2547.47V4874.98C3825.59 4874.98 3825.59 5005.29 3727.56 5114.07C3683.32 5163.08 3588.88 5215.68 3531.49 5247.96L3355.76 5349.57C3298.37 5383.04 3209.91 5384.24 3156.11 5354.35C3102.31 5324.47 3103.51 5274.26 3156.11 5244.37C3208.71 5213.29 3208.71 5164.28 3156.11 5134.39C3103.51 5103.31 3013.84 5105.7 2956.46 5139.17L2780.72 5240.79C2723.34 5274.26 2634.87 5275.45 2581.08 5245.57C2528.47 5214.49 2528.47 5165.47 2581.08 5135.59C2633.68 5104.51 2633.68 5055.49 2581.08 5025.61C2528.47 4994.53 2438.81 4996.92 2381.43 5030.39L2205.69 5132C2148.31 5165.47 2059.84 5166.67 2006.04 5136.78C1953.44 5105.7 1953.44 5056.69 2006.04 5026.8C2058.64 4995.72 2058.64 4946.71 2006.04 4916.82C1953.44 4886.94 1863.78 4888.13 1806.39 4921.61L1439.38 5133.2C1381.99 5166.67 1293.53 5167.86 1239.73 5137.98C1187.13 5106.9 1190.71 5055.49 1248.1 5023.22L1329.39 4986.16C1386.78 4952.69 1390.36 4901.28 1337.76 4871.4C1285.16 4840.32 1195.49 4842.71 1138.11 4876.18L1056.82 4913.24C999.433 4946.71 910.967 4947.9 857.169 4918.02C803.372 4888.13 808.154 4835.53 865.538 4803.26L1041.28 4701.65C1098.66 4668.17 1102.25 4616.77 1049.64 4586.88C997.042 4555.8 907.38 4558.19 849.996 4591.67L482.979 4803.26C425.596 4836.73 337.129 4837.93 283.332 4808.04C229.534 4778.15 234.316 4725.55 291.7 4693.28L467.438 4591.67C524.822 4558.19 528.408 4506.79 475.806 4476.9C423.205 4445.82 337.129 4445.82 284.527 4476.9C231.925 4507.98 145.85 4507.98 93.2476 4476.9C40.6458 4445.82 44.2322 4394.42 101.616 4362.14L468.633 4150.55C526.017 4117.08 529.604 4065.67 477.002 4035.79C424.4 4004.71 338.324 4004.71 285.723 4035.79C233.121 4066.87 147.045 4066.87 94.4431 4035.79C41.8413 4004.71 45.4277 3953.3 102.812 3921.03L763.921 3538.49C955.2 3428.51 955.2 3207.35 955.2 3207.35V1053.18C955.2 1019.71 977.914 1006.56 1006.61 1023.29L2381.43 1817.06C2440.01 1850.53 2486.63 1852.92 2486.63 1824.23Z" fill="url(#paint9_linear_154_1466)"/>
<path d="M469.827 4145.77L104.006 4357.36C46.6219 4390.83 43.0354 4442.24 95.6372 4472.12C148.239 4503.2 234.314 4503.2 286.916 4472.12C339.518 4441.04 425.594 4441.04 478.195 4472.12C530.797 4503.2 527.211 4554.61 469.827 4586.88L294.089 4688.5C236.705 4721.97 233.119 4773.37 285.721 4803.26C338.322 4833.14 427.985 4831.95 485.368 4798.47L852.386 4586.88C909.769 4553.41 998.236 4552.22 1052.03 4582.1C1104.64 4613.18 1101.05 4664.59 1043.66 4696.86L867.927 4798.47C810.543 4831.95 806.957 4883.35 859.559 4913.24C912.16 4943.12 1001.82 4941.93 1059.21 4908.46L1140.5 4870.2C1197.89 4836.73 1286.35 4835.53 1340.15 4865.42C1393.95 4895.31 1389.17 4947.9 1331.78 4980.18L1250.49 5018.43C1193.1 5051.91 1189.52 5103.31 1242.12 5133.2C1294.72 5163.08 1384.38 5161.89 1441.77 5128.41L1808.78 4916.82C1866.17 4883.35 1954.63 4882.16 2008.43 4912.04C2062.23 4941.93 2061.03 4992.14 2008.43 5022.02C1955.83 5051.91 1955.83 5102.12 2008.43 5132C2061.03 5161.89 2150.7 5160.69 2208.08 5127.22L2383.82 5025.61C2441.2 4992.14 2529.67 4990.94 2583.47 5020.83C2637.26 5050.71 2636.07 5100.92 2583.47 5130.81C2530.86 5160.69 2530.86 5210.9 2583.47 5240.79C2636.07 5270.67 2725.73 5269.48 2783.11 5236L2958.85 5134.39C3016.23 5100.92 3104.7 5099.72 3158.5 5129.61C3212.3 5159.5 3211.1 5209.7 3158.5 5239.59C3105.9 5269.48 3105.9 5319.68 3158.5 5349.57C3211.1 5379.46 3300.76 5378.26 3358.15 5344.79L3533.88 5243.18C3562.58 5226.44 3599.64 5206.12 3635.5 5182.21L765.114 3533.71L104.006 3916.24C46.6219 3949.72 43.0354 4001.12 95.6372 4031.01C148.239 4060.89 234.314 4062.09 286.916 4031.01C339.518 3999.92 425.594 3999.92 478.195 4031.01C530.797 4062.09 527.211 4112.3 469.827 4145.77Z" fill="white"/>
<path d="M2889.51 4097.95L3612.79 4516.35C3624.74 4523.53 3633.11 4539.07 3633.11 4552.22V4749.46C3633.11 4749.46 3633.11 4970.62 3441.83 5080.6L3250.55 5190.58L2485.44 4748.27L2676.71 4638.29C2869.19 4527.11 2867.99 4307.15 2867.99 4307.15V4109.9C2869.19 4096.75 2878.75 4090.78 2889.51 4097.95Z" fill="#CCCDD0"/>
<path d="M3156.11 5245.57L3443.03 5079.4L2677.91 4637.09L2008.43 5023.22C1955.83 5054.3 1955.83 5103.31 2008.43 5133.2C2061.03 5163.08 2150.7 5161.89 2208.08 5128.42L2383.82 5026.8C2441.2 4993.33 2529.67 4992.14 2583.47 5022.02C2637.26 5051.91 2636.07 5102.12 2583.47 5132C2530.86 5161.89 2530.86 5212.1 2583.47 5241.98C2636.07 5271.87 2725.73 5270.67 2783.11 5237.2L2958.85 5135.59C3016.24 5102.12 3104.7 5100.92 3158.5 5130.81C3208.71 5165.47 3208.71 5214.49 3156.11 5245.57Z" fill="#E6E7E8"/>
<path d="M2753.23 4919.21L2599.01 4829.56L2619.33 4817.6L2774.74 4907.26L2753.23 4919.21Z" fill="#999CA1"/>
<path d="M3012.65 4974.2L2680.3 4782.93L2701.82 4770.98L3032.97 4962.25L3012.65 4974.2Z" fill="#999CA1"/>
<path d="M3177.63 5069.84L3032.97 4986.16L3053.3 4974.2L3197.95 5057.88L3177.63 5069.84Z" fill="#999CA1"/>
<path d="M3125.03 4944.32L2762.79 4735.12L2783.11 4723.16L3146.54 4932.36L3125.03 4944.32Z" fill="#999CA1"/>
<path d="M3334.24 4969.42L2839.3 4681.32L2860.82 4669.37L3354.56 4957.47L3334.24 4969.42Z" fill="#80838A"/>
<path d="M3472.91 4729.14L3141.76 4537.87C3129.81 4530.7 3121.44 4517.55 3121.44 4507.98C3121.44 4498.42 3131 4496.03 3141.76 4502.01L3472.91 4693.28C3484.87 4700.45 3493.24 4713.6 3493.24 4723.16C3493.24 4733.92 3483.67 4736.31 3472.91 4729.14Z" fill="#80838A"/>
<path d="M3273.27 4706.43L3111.87 4615.57C3105.9 4611.99 3101.12 4604.82 3101.12 4597.64C3101.12 4590.47 3105.9 4588.08 3111.87 4591.67L3273.27 4682.52C3279.24 4686.1 3284.03 4693.28 3284.03 4700.45C3282.83 4706.43 3279.24 4708.82 3273.27 4706.43Z" fill="#80838A"/>
<path d="M3067.16 4528.65C3083.12 4519.32 3082.82 4489.12 3066.49 4461.2C3050.16 4433.26 3023.99 4418.18 3008.03 4427.52C2992.07 4436.84 2992.37 4467.05 3008.7 4494.98C3025.03 4522.9 3051.2 4537.98 3067.16 4528.65Z" fill="#80838A"/>
<path d="M1892.47 4847.49L402.879 3987.97C390.924 3980.8 372.992 3980.8 361.037 3987.97L285.721 4031.01C338.322 3999.92 424.398 3999.92 477 4031.01C529.602 4062.09 526.015 4113.49 468.631 4145.77L104.006 4357.36C46.6219 4390.83 43.0354 4442.24 95.6372 4472.12C148.239 4503.2 234.314 4503.2 286.916 4472.12C339.518 4441.04 425.594 4441.04 478.195 4472.12C530.797 4503.2 527.211 4554.61 469.827 4586.88L382.556 4638.29L573.835 4748.27L852.386 4586.88C909.769 4553.41 998.236 4552.22 1052.03 4582.1C1104.64 4613.18 1101.05 4664.59 1043.66 4696.86L867.927 4798.47C810.543 4831.95 806.957 4883.35 859.559 4913.24C912.16 4944.32 1001.82 4941.93 1059.21 4908.46L1140.5 4871.4C1197.89 4837.92 1286.35 4836.73 1340.15 4866.61C1393.95 4896.5 1389.17 4949.1 1331.78 4981.38L1250.49 5018.43C1193.1 5051.91 1189.52 5103.31 1242.12 5133.2C1294.72 5164.28 1384.38 5161.89 1441.77 5128.41L1624.68 5022.02L1807.59 4915.63L1890.08 4867.81C1903.23 4864.22 1903.23 4853.46 1892.47 4847.49Z" fill="#CCCDD0"/>
<path d="M1530.23 4859.44L956.395 4527.11L976.718 4516.35L1550.56 4847.49L1530.23 4859.44Z" fill="white"/>
<path d="M1244.51 4845.1L1017.37 4713.6L997.042 4725.55L1208.65 4848.68C1220.6 4846.29 1232.56 4845.1 1244.51 4845.1Z" fill="white"/>
<path d="M1372.43 4943.12L1378.41 4946.71L1398.73 4934.75L1378.41 4922.8C1377.21 4929.97 1376.02 4935.95 1372.43 4943.12Z" fill="white"/>
<path d="M1013.78 4757.83L976.718 4736.31L956.395 4748.27L993.455 4769.79L1013.78 4757.83Z" fill="white"/>
<path d="M469.827 4586.88L382.556 4638.29L956.394 4307.15L402.879 3987.97C390.924 3980.8 372.992 3980.8 361.037 3987.97L285.721 4031.01C338.322 3999.92 424.398 3999.92 477 4031.01C529.602 4062.09 526.015 4113.49 468.631 4145.77L104.006 4357.36C46.6219 4390.83 43.0354 4442.24 95.6372 4472.12C148.239 4503.2 234.314 4503.2 286.916 4472.12C339.518 4441.04 425.594 4441.04 478.195 4472.12C530.797 4503.2 527.211 4554.61 469.827 4586.88Z" fill="#B3B5B9"/>
<path d="M394.511 4290.42V4188.8L377.774 4198.37L370.601 4201.95V4289.22H218.773L176.931 4313.13H370.601V4448.21C378.969 4448.21 386.142 4448.21 394.511 4448.21V4313.13H943.243L956.394 4304.76L928.897 4289.22H394.511V4290.42Z" fill="#CCCDD0"/>
<path d="M370.602 4008.29C378.97 4008.29 386.143 4008.29 394.511 4008.29V3979.6H370.602V4008.29Z" fill="#CCCDD0"/>
<path d="M394.512 4631.11L383.753 4637.09H394.512V4631.11Z" fill="#CCCDD0"/>
<path d="M2870.38 3226.48V3840.93C2870.38 3854.08 2879.95 3869.62 2890.71 3876.79L3613.98 4294C3625.94 4301.17 3634.31 4295.2 3634.31 4282.05V3667.59C3634.31 3654.44 3624.74 3638.9 3613.98 3631.73L2890.71 3214.52C2878.75 3208.55 2870.38 3213.33 2870.38 3226.48Z" fill="#B3B5B9"/>
<path d="M3637.89 4290.42L3270.88 3762.03L3631.92 3659.23L3624.74 3636.51L3256.53 3740.52L2885.93 3207.35L2865.6 3220.5L3231.42 3747.69L2872.78 3849.3L2878.75 3873.21L3245.77 3768.01L3618.76 4304.76L3637.89 4290.42Z" fill="#E6E7E8"/>
<path d="M2889.51 2993.37L3612.79 3411.77C3624.74 3418.94 3633.11 3414.16 3633.11 3403.4C3633.11 3392.64 3623.55 3377.1 3612.79 3371.13L2889.51 2952.72C2877.56 2945.55 2869.19 2950.33 2869.19 2961.09C2869.19 2971.85 2878.75 2987.39 2889.51 2993.37Z" fill="#B3B5B9"/>
<path d="M1168 2041.8L1700 2349.03C1711.95 2356.2 1720.32 2351.42 1720.32 2340.66C1720.32 2329.9 1710.75 2314.36 1700 2308.38L1168 2001.16C1156.04 1993.99 1147.67 1998.77 1147.67 2009.53C1147.67 2020.28 1157.24 2034.63 1168 2041.8Z" fill="#999CA1"/>
<path d="M1778.9 2393.26L2083.75 2567.79C2095.7 2574.97 2104.07 2570.18 2104.07 2559.43C2104.07 2548.67 2094.51 2533.13 2083.75 2527.15L1778.9 2352.62C1766.94 2345.44 1758.57 2350.22 1758.57 2360.98C1758.57 2371.74 1766.94 2387.28 1778.9 2393.26Z" fill="#999CA1"/>
<path d="M2486.63 1824.23C2486.63 1794.35 2529.67 1785.98 2582.27 1817.06C2634.87 1848.14 2677.91 1905.52 2677.91 1934.21C2677.91 1964.1 2720.95 2011.92 2773.55 2043C2826.15 2072.88 2869.19 2048.98 2869.19 1988.01C2869.19 1927.04 2912.23 1903.13 2964.83 1933.02C3017.43 1964.1 3060.47 2037.02 3060.47 2097.99C3060.47 2158.96 3103.51 2233.07 3156.11 2262.96C3208.71 2294.04 3251.75 2264.15 3251.75 2198.4V1554.07C3251.75 1488.32 3294.79 1459.63 3347.39 1489.51C3399.99 1519.4 3443.03 1598.3 3443.03 1664.05V2308.38C3443.03 2374.13 3486.07 2453.03 3538.67 2482.92C3591.27 2514 3634.31 2488.9 3634.31 2427.93C3634.31 2366.96 3677.34 2341.86 3729.95 2372.94C3782.55 2404.02 3825.59 2481.72 3825.59 2547.47V4874.98C3825.59 4874.98 3825.59 5005.29 3727.56 5114.07C3683.32 5163.08 3588.88 5215.68 3531.49 5247.96L3355.76 5349.57C3298.37 5383.04 3209.91 5384.24 3156.11 5354.35C3102.31 5324.47 3103.51 5274.26 3156.11 5244.37C3208.71 5213.29 3208.71 5164.28 3156.11 5134.39C3103.51 5103.31 3013.84 5105.7 2956.46 5139.17L2780.72 5240.79C2723.34 5274.26 2634.87 5275.45 2581.08 5245.57C2528.47 5214.49 2528.47 5165.47 2581.08 5135.59C2633.68 5104.51 2633.68 5055.49 2581.08 5025.61C2528.47 4994.53 2438.81 4996.92 2381.43 5030.39L2205.69 5132C2148.31 5165.47 2059.84 5166.67 2006.04 5136.78C1953.44 5105.7 1953.44 5056.69 2006.04 5026.8C2058.64 4995.72 2058.64 4946.71 2006.04 4916.82C1953.44 4886.94 1863.78 4888.13 1806.39 4921.61L1439.38 5133.2C1381.99 5166.67 1293.53 5167.86 1239.73 5137.98C1187.13 5106.9 1190.71 5055.49 1248.1 5023.22L1329.39 4986.16C1386.78 4952.69 1390.36 4901.28 1337.76 4871.4C1285.16 4840.32 1195.49 4842.71 1138.11 4876.18L1056.82 4913.24C999.433 4946.71 910.967 4947.9 857.169 4918.02C803.372 4888.13 808.154 4835.53 865.538 4803.26L1041.28 4701.65C1098.66 4668.17 1102.25 4616.77 1049.64 4586.88C997.042 4555.8 907.38 4558.19 849.996 4591.67L482.979 4803.26C425.596 4836.73 337.129 4837.93 283.332 4808.04C229.534 4778.15 234.316 4725.55 291.7 4693.28L467.438 4591.67C524.822 4558.19 528.408 4506.79 475.806 4476.9C423.205 4445.82 337.129 4445.82 284.527 4476.9C231.925 4507.98 145.85 4507.98 93.2476 4476.9C40.6458 4445.82 44.2322 4394.42 101.616 4362.14L468.633 4150.55C526.017 4117.08 529.604 4065.67 477.002 4035.79C424.4 4004.71 338.324 4004.71 285.723 4035.79C233.121 4066.87 147.045 4066.87 94.4431 4035.79C41.8413 4004.71 45.4277 3953.3 102.812 3921.03L763.921 3538.49C955.2 3428.51 955.2 3207.35 955.2 3207.35V1053.18C955.2 1019.71 977.914 1006.56 1006.61 1023.29L2381.43 1817.06C2440.01 1850.53 2486.63 1852.92 2486.63 1824.23Z" fill="url(#paint10_linear_154_1466)"/>
<path d="M956.396 3202.57L3825.59 4859.44C3825.59 4859.44 3825.59 5080.6 3634.31 5190.58L765.117 3533.71C956.396 3423.73 956.396 3202.57 956.396 3202.57Z" fill="url(#paint11_linear_154_1466)"/>
<path d="M1856.74 5323.93C1856.96 5281.01 1796.67 5245.89 1722.06 5245.48C1647.45 5245.08 1586.78 5279.54 1586.55 5322.46C1586.33 5365.37 1646.62 5400.48 1721.23 5400.89C1795.84 5401.3 1856.51 5366.83 1856.74 5323.93Z" fill="white"/>
<path d="M1856.62 5301.32C1856.86 5258.41 1796.55 5223.3 1721.94 5222.89C1647.34 5222.48 1586.67 5256.95 1586.43 5299.86C1586.21 5342.77 1646.5 5377.89 1721.11 5378.3C1795.72 5378.7 1856.39 5344.24 1856.62 5301.32Z" fill="#CCCDD0"/>
<path d="M3004.29 5323.78C3004.52 5280.87 2944.23 5245.75 2869.62 5245.35C2795.01 5244.95 2734.34 5279.4 2734.11 5322.31C2733.87 5365.23 2794.17 5400.35 2868.78 5400.76C2943.38 5401.15 3004.05 5366.7 3004.29 5323.78Z" fill="white"/>
<path d="M3004.29 5301.31C3004.53 5258.4 2944.23 5223.27 2869.62 5222.87C2795.02 5222.47 2734.35 5256.92 2734.11 5299.84C2733.88 5342.76 2794.17 5377.88 2868.78 5378.27C2943.39 5378.68 3004.06 5344.23 3004.29 5301.31Z" fill="#E6E7E8"/>
<path d="M2430.91 5214.8C2431.14 5171.88 2370.85 5136.77 2296.24 5136.36C2221.62 5135.96 2160.95 5170.42 2160.73 5213.33C2160.49 5256.24 2220.79 5291.36 2295.39 5291.77C2370 5292.18 2430.67 5257.71 2430.91 5214.8Z" fill="white"/>
<path d="M2430.91 5190.89C2431.14 5147.97 2370.85 5112.86 2296.24 5112.46C2221.62 5112.05 2160.95 5146.51 2160.73 5189.42C2160.49 5232.33 2220.79 5267.46 2295.39 5267.86C2370 5268.27 2430.67 5233.8 2430.91 5190.89Z" fill="#CCCDD0"/>
<path d="M708.977 4882.78C709.209 4839.87 648.915 4804.75 574.307 4804.34C499.698 4803.94 439.027 4838.4 438.794 4881.32C438.562 4924.23 498.855 4959.34 573.464 4959.75C648.072 4960.16 708.744 4925.69 708.977 4882.78Z" fill="white"/>
<path d="M708.929 4858.87C709.162 4815.95 648.868 4780.83 574.26 4780.42C499.651 4780.03 438.98 4814.48 438.747 4857.4C438.515 4900.31 498.808 4935.44 573.417 4935.83C648.025 4936.24 708.697 4901.77 708.929 4858.87Z" fill="#E6E7E8"/>
<path d="M3056.57 1706.85C3093.79 1685.46 3093.52 1615.22 3056 1549.98C3018.48 1484.73 2957.91 1449.18 2920.7 1470.58C2883.5 1491.96 2883.75 1562.21 2921.28 1627.45C2958.79 1692.7 3019.37 1728.25 3056.57 1706.85Z" fill="white"/>
<path d="M3032.66 1718.81C3069.88 1697.42 3069.61 1627.18 3032.09 1561.93C2994.57 1496.68 2934 1461.13 2896.79 1482.53C2859.59 1503.92 2859.84 1574.16 2897.37 1639.41C2934.88 1704.65 2995.46 1740.21 3032.66 1718.81Z" fill="#CCCDD0"/>
<path d="M3630.35 2259.16C3667.55 2237.76 3667.3 2167.53 3629.78 2102.28C3592.26 2037.03 3531.68 2001.48 3494.48 2022.87C3457.28 2044.27 3457.53 2114.5 3495.05 2179.74C3532.57 2244.99 3593.15 2280.54 3630.35 2259.16Z" fill="white"/>
<path d="M3606.44 2271.11C3643.64 2249.71 3643.39 2179.48 3605.87 2114.23C3568.35 2048.99 3507.77 2013.43 3470.57 2034.82C3433.37 2056.22 3433.62 2126.45 3471.14 2191.7C3508.66 2256.94 3569.24 2292.5 3606.44 2271.11Z" fill="#F2F2F3"/>
<path d="M3439.29 1265.69C3476.49 1244.29 3476.23 1174.06 3438.71 1108.81C3401.18 1043.57 3340.61 1008.01 3303.41 1029.41C3266.2 1050.8 3266.46 1121.04 3303.98 1186.28C3341.51 1251.52 3402.08 1287.08 3439.29 1265.69Z" fill="white"/>
<path d="M3415.38 1277.64C3452.58 1256.25 3452.32 1186.02 3414.8 1120.77C3377.27 1055.52 3316.7 1019.97 3279.5 1041.36C3242.29 1062.76 3242.55 1132.99 3280.07 1198.24C3317.6 1263.49 3378.17 1299.03 3415.38 1277.64Z" fill="#E6E7E8"/>
<path d="M1147.67 2207.97L572.641 2540.3L2102.88 3423.73L2677.91 3092.59L1147.67 2207.97Z" fill="#FFAF13"/>
<path d="M2102.88 4748.27L2677.91 4417.13V3092.59L2102.88 3423.73V4748.27Z" fill="url(#paint12_linear_154_1466)"/>
<path d="M573.838 2540.3V3864.84L2104.07 4748.27V3423.73L573.838 2540.3Z" fill="url(#paint13_linear_154_1466)"/>
<path d="M1434.59 3932.98C1402.32 3932.98 1367.65 3922.22 1331.78 3901.9C1209.84 3831.37 1110.61 3660.42 1110.61 3520.56C1110.61 3450.02 1134.52 3397.43 1178.76 3372.32C1222.99 3346.02 1281.57 3352 1343.74 3387.86C1465.68 3458.39 1564.9 3629.34 1564.9 3769.21C1564.9 3839.74 1540.99 3892.34 1496.76 3917.44C1477.63 3928.2 1457.31 3932.98 1434.59 3932.98ZM1240.92 3379.49C1222.99 3379.49 1205.06 3384.28 1190.71 3392.64C1153.65 3414.16 1134.52 3459.59 1134.52 3520.56C1134.52 3653.25 1228.97 3814.63 1343.74 3881.58C1397.53 3912.66 1447.75 3918.64 1484.81 3897.12C1521.87 3875.6 1540.99 3830.17 1540.99 3769.21C1540.99 3636.51 1446.55 3475.13 1331.78 3408.18C1299.5 3389.06 1268.42 3379.49 1240.92 3379.49Z" fill="white"/>
<path d="M1280.38 3534.9C1280.38 3522.95 1289.94 3522.95 1300.7 3536.1L1416.66 3679.55C1426.23 3691.5 1426.23 3702.26 1416.66 3702.26L1300.7 3710.63C1291.14 3711.83 1280.38 3701.07 1280.38 3689.11V3534.9Z" fill="white"/>
<path d="M3603.22 3184.64L796.2 1563.63C779.463 1554.07 765.117 1530.16 765.117 1509.83V1139.25C765.117 1118.93 779.463 1111.75 796.2 1121.32L3603.22 2742.33C3619.96 2751.89 3634.31 2775.8 3634.31 2796.12V3166.71C3634.31 3185.83 3619.96 3194.2 3603.22 3184.64Z" fill="white"/>
<path d="M3579.31 3196.59L772.29 1575.58C755.553 1566.02 741.207 1542.11 741.207 1521.79V1151.2C741.207 1130.88 755.553 1123.71 772.29 1133.27L3579.31 2754.28C3596.05 2763.85 3610.4 2787.75 3610.4 2808.08V3178.66C3610.4 3197.79 3596.05 3206.16 3579.31 3196.59Z" fill="#CCCDD0"/>
<path d="M952.81 1349.65L1103.44 1436.91C1115.4 1444.09 1123.77 1459.63 1123.77 1472.78V1644.92C1123.77 1658.07 1114.2 1664.05 1103.44 1656.87L952.81 1570.8C940.855 1564.82 932.486 1548.09 932.486 1534.94V1361.6C932.486 1348.45 942.05 1342.47 952.81 1349.65Z" fill="#999CA1"/>
<path d="M938.464 1555.26C942.05 1561.24 946.832 1567.21 952.81 1570.8L1103.44 1656.87C1115.4 1662.85 1123.77 1658.07 1123.77 1644.92V1472.78C1123.77 1465.6 1121.37 1458.43 1117.79 1452.45L938.464 1555.26Z" fill="#B3B5B9"/>
<path d="M1194.3 1592.32V1616.23C1194.3 1629.38 1203.86 1644.92 1214.62 1652.09L1723.9 1947.36C1735.86 1954.54 1744.23 1948.56 1744.23 1935.41V1910.3C1744.23 1897.16 1734.66 1881.61 1723.9 1874.44L1214.62 1579.17C1203.86 1573.19 1194.3 1579.17 1194.3 1592.32Z" fill="#B3B5B9"/>
<path d="M3395.21 2976.63L2961.24 2700.49C2949.29 2693.31 2939.72 2675.38 2939.72 2661.04L2915.81 2536.71C2915.81 2511.61 2949.29 2502.04 2961.24 2509.22L3421.51 2774.6C3433.46 2781.78 3443.03 2799.71 3443.03 2814.05V2950.33C3443.03 2965.87 3419.12 2992.17 3395.21 2976.63Z" fill="#80838A"/>
<path d="M3398.79 2977.83L2938.53 2712.44C2926.57 2705.27 2917.01 2687.34 2917.01 2672.99V2536.71C2917.01 2521.17 2926.57 2514 2938.53 2521.17L3398.79 2786.56C3410.75 2793.73 3420.31 2811.66 3420.31 2826.01V2962.29C3419.12 2977.83 3409.55 2983.81 3398.79 2977.83Z" fill="#999CA1"/>
<path d="M3316.3 2858.28L3021.02 2687.34C3011.45 2681.36 3003.08 2665.82 3003.08 2653.86C3003.08 2640.72 3011.45 2634.74 3021.02 2640.71L3316.3 2811.66C3325.87 2817.64 3334.24 2833.18 3334.24 2845.13C3334.24 2857.09 3325.87 2863.07 3316.3 2858.28Z" fill="#B3B5B9"/>
<path d="M2828.54 2565.4L2719.75 2502.05C2710.19 2496.07 2701.82 2480.53 2701.82 2468.57C2701.82 2455.42 2710.19 2449.45 2719.75 2455.42L2828.54 2518.78C2838.11 2524.76 2846.48 2540.3 2846.48 2552.25C2846.48 2565.4 2838.11 2571.38 2828.54 2565.4Z" fill="#B3B5B9"/>
<path d="M2637.26 2455.42L2528.47 2392.07C2518.91 2386.09 2510.54 2370.55 2510.54 2358.59C2510.54 2345.44 2518.91 2339.47 2528.47 2345.44L2637.26 2408.8C2646.83 2414.78 2655.2 2430.32 2655.2 2442.27C2655.2 2455.42 2646.83 2461.4 2637.26 2455.42Z" fill="#B3B5B9"/>
<path d="M2445.98 2345.44L2337.19 2282.08C2327.63 2276.11 2319.26 2260.57 2319.26 2248.61C2319.26 2235.46 2327.63 2229.49 2337.19 2235.46L2445.98 2298.82C2455.55 2304.8 2463.92 2320.34 2463.92 2332.29C2463.92 2344.25 2455.55 2350.22 2445.98 2345.44Z" fill="#B3B5B9"/>
<defs>
<linearGradient id="paint0_linear_154_1466" x1="3969.04" y1="2751.09" x2="5331" y2="2751.09" gradientUnits="userSpaceOnUse">
<stop stop-color="#4D525B"/>
<stop offset="1" stop-color="#333943"/>
</linearGradient>
<linearGradient id="paint1_linear_154_1466" x1="4877.62" y1="864.489" x2="4877.62" y2="4638.04" gradientUnits="userSpaceOnUse">
<stop stop-color="#CCCDD0"/>
<stop offset="1" stop-color="#B3B5B9"/>
</linearGradient>
<linearGradient id="paint2_linear_154_1466" x1="4399.36" y1="4621.36" x2="6253.92" y2="4621.36" gradientUnits="userSpaceOnUse">
<stop stop-color="#000714" stop-opacity="0"/>
<stop offset="1" stop-color="#000714" stop-opacity="0.05"/>
</linearGradient>
<linearGradient id="paint3_linear_154_1466" x1="4703.88" y1="4040.83" x2="5564.62" y2="4537.81" gradientUnits="userSpaceOnUse">
<stop stop-color="#000714" stop-opacity="0"/>
<stop offset="1" stop-color="#000714" stop-opacity="0.05"/>
</linearGradient>
<linearGradient id="paint4_linear_154_1466" x1="4781.92" y1="2760.74" x2="5547.04" y2="2760.74" gradientUnits="userSpaceOnUse">
<stop stop-color="#F69400"/>
<stop offset="1" stop-color="#FCBD2E"/>
</linearGradient>
<linearGradient id="paint5_linear_154_1466" x1="4399.36" y1="2871.17" x2="4781.92" y2="2871.17" gradientUnits="userSpaceOnUse">
<stop stop-color="#FFBD13"/>
<stop offset="1" stop-color="#FCBD2E"/>
</linearGradient>
<linearGradient id="paint6_linear_154_1466" x1="4016.87" y1="4969.33" x2="4255.95" y2="5383.45" gradientUnits="userSpaceOnUse">
<stop stop-color="#CCCDD0"/>
<stop offset="1" stop-color="#F2F2F3" stop-opacity="0"/>
</linearGradient>
<linearGradient id="paint7_linear_154_1466" x1="3729.95" y1="4638.04" x2="3729.95" y2="5411.05" gradientUnits="userSpaceOnUse">
<stop stop-color="#CCCDD0"/>
<stop offset="1" stop-color="#F2F2F3" stop-opacity="0"/>
</linearGradient>
<linearGradient id="paint8_linear_154_1466" x1="4112.5" y1="2327.39" x2="4112.5" y2="4969.33" gradientUnits="userSpaceOnUse">
<stop stop-color="#F2F2F3"/>
<stop offset="1" stop-color="#CCCDD0"/>
</linearGradient>
<linearGradient id="paint9_linear_154_1466" x1="58.2243" y1="3197.06" x2="3825.59" y2="3197.06" gradientUnits="userSpaceOnUse">
<stop stop-color="#FAFAFA"/>
<stop offset="1" stop-color="#E6E7E8"/>
</linearGradient>
<linearGradient id="paint10_linear_154_1466" x1="58.2243" y1="3197.06" x2="3825.59" y2="3197.06" gradientUnits="userSpaceOnUse">
<stop stop-color="#000714" stop-opacity="0.05"/>
<stop offset="1" stop-color="#000714" stop-opacity="0"/>
</linearGradient>
<linearGradient id="paint11_linear_154_1466" x1="2412.25" y1="4042.95" x2="2220.98" y2="4374.25" gradientUnits="userSpaceOnUse">
<stop stop-color="#000714" stop-opacity="0"/>
<stop offset="1" stop-color="#000714" stop-opacity="0.05"/>
</linearGradient>
<linearGradient id="paint12_linear_154_1466" x1="2102.95" y1="3920.42" x2="2677.41" y2="3920.42" gradientUnits="userSpaceOnUse">
<stop stop-color="#FFBD13"/>
<stop offset="1" stop-color="#FCBD2E"/>
</linearGradient>
<linearGradient id="paint13_linear_154_1466" x1="573.838" y1="3644.52" x2="2104.07" y2="3644.52" gradientUnits="userSpaceOnUse">
<stop stop-color="#FCBD2E"/>
<stop offset="1" stop-color="#FBA500"/>
</linearGradient>
</defs>
</svg>
