<svg width="1471" height="1471" viewBox="0 0 1471 1471" fill="none" xmlns="http://www.w3.org/2000/svg">
<g clip-path="url(#clip0_156_2393)">
<mask id="mask0_156_2393" style="mask-type:luminance" maskUnits="userSpaceOnUse" x="0" y="0" width="1471" height="1471">
<path d="M1471 0H0V1471H1471V0Z" fill="white"/>
</mask>
<g mask="url(#mask0_156_2393)">
<path d="M0 258.54C0 238.845 15.9658 222.879 35.6606 222.879H1372.93C1392.63 222.879 1408.59 238.845 1408.59 258.54V1212.46C1408.59 1232.15 1392.63 1248.12 1372.93 1248.12H35.6606C15.9658 1248.12 0 1232.15 0 1212.46V258.54Z" fill="#F2F2F3"/>
<path fill-rule="evenodd" clip-rule="evenodd" d="M1408.59 419.012H0V401.182H1408.59V419.012Z" fill="#E6E7E8"/>
<path d="M89.1516 338.776C98.999 338.776 106.982 330.793 106.982 320.946C106.982 311.098 98.999 303.115 89.1516 303.115C79.3042 303.115 71.3213 311.098 71.3213 320.946C71.3213 330.793 79.3042 338.776 89.1516 338.776Z" fill="#CCCDD0"/>
<path d="M142.643 338.776C152.49 338.776 160.473 330.793 160.473 320.946C160.473 311.098 152.49 303.115 142.643 303.115C132.795 303.115 124.812 311.098 124.812 320.946C124.812 330.793 132.795 338.776 142.643 338.776Z" fill="#CCCDD0"/>
<path d="M196.133 338.776C205.98 338.776 213.963 330.793 213.963 320.946C213.963 311.098 205.98 303.115 196.133 303.115C186.286 303.115 178.303 311.098 178.303 320.946C178.303 330.793 186.286 338.776 196.133 338.776Z" fill="#CCCDD0"/>
<path d="M383.352 419.012C383.352 423.936 387.343 427.927 392.267 427.927H757.788C762.712 427.927 766.703 423.936 766.703 419.012H383.352Z" fill="#CCCDD0"/>
<path d="M767 537C767 532.029 759.931 528 751.209 528H103.791C95.0695 528 88 532.029 88 537C88 541.971 95.0695 546 103.791 546H751.209C759.931 546 767 541.971 767 537Z" fill="#CCCDD0"/>
<path d="M767 590C767 585.029 759.931 581 751.209 581H103.791C95.0695 581 88 585.029 88 590C88 594.971 95.0695 599 103.791 599H751.209C759.931 599 767 594.971 767 590Z" fill="#CCCDD0"/>
<path d="M526 1074C526 1069.03 521.565 1065 516.093 1065H109.907C104.435 1065 100 1069.03 100 1074C100 1078.97 104.435 1083 109.907 1083H516.093C521.565 1083 526 1078.97 526 1074Z" fill="#CCCDD0"/>
<path d="M659 1127C659 1131.97 653.18 1136 646 1136H113C105.82 1136 100 1131.97 100 1127C100 1122.03 105.82 1118 113 1118H646C653.18 1118 659 1122.03 659 1127Z" fill="#CCCDD0"/>
<path d="M766.703 1183.38C766.703 1188.3 762.712 1192.29 757.788 1192.29H392.267C387.343 1192.29 383.352 1188.3 383.352 1183.38C383.352 1178.45 387.343 1174.46 392.267 1174.46H757.788C762.712 1174.46 766.703 1178.45 766.703 1183.38Z" fill="#CCCDD0"/>
<path d="M88 644C88 639.029 95.0737 635 103.8 635H467.2C475.926 635 483 639.029 483 644C483 648.971 475.926 653 467.2 653H103.8C95.0737 653 88 648.971 88 644Z" fill="#CCCDD0"/>
<path d="M109.92 1172C104.441 1172 100 1176.03 100 1181C100 1185.97 104.441 1190 109.92 1190H338.08C343.559 1190 348 1185.97 348 1181C348 1176.03 343.559 1172 338.08 1172H109.92Z" fill="#CCCDD0"/>
<path d="M91 472.5C91 467.805 103.052 464 117.92 464H737.08C751.948 464 764 467.805 764 472.5C764 477.195 751.948 481 737.08 481H117.92C103.052 481 91 477.195 91 472.5Z" fill="#CCCDD0"/>
<path d="M1127.77 124.812C1135.15 124.812 1141.14 118.824 1141.14 111.439C1141.14 104.054 1135.15 98.0664 1127.77 98.0664C1120.38 98.0664 1114.39 104.054 1114.39 111.439C1114.39 118.824 1120.38 124.812 1127.77 124.812Z" fill="#CCCDD0"/>
<path d="M1127.77 169.388C1135.15 169.388 1141.14 163.401 1141.14 156.015C1141.14 148.63 1135.15 142.643 1127.77 142.643C1120.38 142.643 1114.39 148.63 1114.39 156.015C1114.39 163.401 1120.38 169.388 1127.77 169.388Z" fill="#CCCDD0"/>
<path d="M1172.34 124.812C1179.72 124.812 1185.72 118.824 1185.72 111.439C1185.72 104.054 1179.72 98.0664 1172.34 98.0664C1164.96 98.0664 1158.97 104.054 1158.97 111.439C1158.97 118.824 1164.96 124.812 1172.34 124.812Z" fill="#CCCDD0"/>
<path d="M1172.34 169.388C1179.72 169.388 1185.72 163.401 1185.72 156.015C1185.72 148.63 1179.72 142.643 1172.34 142.643C1164.96 142.643 1158.97 148.63 1158.97 156.015C1158.97 163.401 1164.96 169.388 1172.34 169.388Z" fill="#CCCDD0"/>
<path d="M164.93 1328.36C172.316 1328.36 178.303 1322.37 178.303 1314.99C178.303 1307.6 172.316 1301.61 164.93 1301.61C157.545 1301.61 151.558 1307.6 151.558 1314.99C151.558 1322.37 157.545 1328.36 164.93 1328.36Z" fill="#CCCDD0"/>
<path d="M164.93 1372.93C172.316 1372.93 178.303 1366.94 178.303 1359.56C178.303 1352.18 172.316 1346.19 164.93 1346.19C157.545 1346.19 151.558 1352.18 151.558 1359.56C151.558 1366.94 157.545 1372.93 164.93 1372.93Z" fill="#CCCDD0"/>
<path d="M209.507 1328.36C216.892 1328.36 222.879 1322.37 222.879 1314.99C222.879 1307.6 216.892 1301.61 209.507 1301.61C202.121 1301.61 196.134 1307.6 196.134 1314.99C196.134 1322.37 202.121 1328.36 209.507 1328.36Z" fill="#CCCDD0"/>
<path d="M209.507 1372.93C216.892 1372.93 222.879 1366.94 222.879 1359.56C222.879 1352.18 216.892 1346.19 209.507 1346.19C202.121 1346.19 196.134 1352.18 196.134 1359.56C196.134 1366.94 202.121 1372.93 209.507 1372.93Z" fill="#CCCDD0"/>
<path d="M254.082 1328.36C261.467 1328.36 267.454 1322.37 267.454 1314.99C267.454 1307.6 261.467 1301.61 254.082 1301.61C246.696 1301.61 240.709 1307.6 240.709 1314.99C240.709 1322.37 246.696 1328.36 254.082 1328.36Z" fill="#CCCDD0"/>
<path d="M254.082 1372.93C261.467 1372.93 267.454 1366.94 267.454 1359.56C267.454 1352.18 261.467 1346.19 254.082 1346.19C246.696 1346.19 240.709 1352.18 240.709 1359.56C240.709 1366.94 246.696 1372.93 254.082 1372.93Z" fill="#CCCDD0"/>
<path d="M298.658 1328.36C306.043 1328.36 312.031 1322.37 312.031 1314.99C312.031 1307.6 306.043 1301.61 298.658 1301.61C291.273 1301.61 285.285 1307.6 285.285 1314.99C285.285 1322.37 291.273 1328.36 298.658 1328.36Z" fill="#CCCDD0"/>
<path d="M298.658 1372.93C306.043 1372.93 312.031 1366.94 312.031 1359.56C312.031 1352.18 306.043 1346.19 298.658 1346.19C291.273 1346.19 285.285 1352.18 285.285 1359.56C285.285 1366.94 291.273 1372.93 298.658 1372.93Z" fill="#CCCDD0"/>
</g>
<path fill-rule="evenodd" clip-rule="evenodd" d="M401.145 713.055C401.145 704.74 394.409 698 386.091 698H100.055C91.7369 698 85 704.74 85 713.055V999.091C85 1007.41 91.7369 1014.15 100.055 1014.15H386.091C394.409 1014.15 401.145 1007.41 401.145 999.091V713.055ZM104.179 713.055L243.073 845.666L381.974 713.055H104.179ZM100.055 982.215L232.173 856.073L100.055 729.931V982.215ZM381.966 999.091L243.073 866.48L104.179 999.091H381.966ZM386.091 982.215V729.934L253.972 856.073L386.091 982.215Z" fill="#CCCDD0"/>
<path fill-rule="evenodd" clip-rule="evenodd" d="M778.145 713.055C778.145 704.74 771.409 698 763.091 698H477.055C468.737 698 462 704.74 462 713.055V999.091C462 1007.41 468.737 1014.15 477.055 1014.15H763.091C771.409 1014.15 778.145 1007.41 778.145 999.091V713.055ZM481.179 713.055L620.073 845.666L758.974 713.055H481.179ZM477.055 982.215L609.173 856.073L477.055 729.931V982.215ZM758.966 999.091L620.073 866.48L481.179 999.091H758.966ZM763.091 982.215V729.934L630.972 856.073L763.091 982.215Z" fill="#CCCDD0"/>
<path d="M932 551.956C932 537.62 935.917 526 940.75 526H1273.25C1278.08 526 1282 537.62 1282 551.956V1084.04C1282 1098.38 1278.08 1110 1273.25 1110H940.75C935.917 1110 932 1098.38 932 1084.04V551.956Z" fill="url(#paint0_linear_156_2393)"/>
<path fill-rule="evenodd" clip-rule="evenodd" d="M1107.15 889.473C1146.54 889.473 1178.47 857.539 1178.47 818.152C1178.47 778.764 1146.54 746.83 1107.15 746.83C1067.76 746.83 1035.83 778.764 1035.83 818.152C1035.83 857.539 1067.76 889.473 1107.15 889.473ZM1107.15 907.303C1156.39 907.303 1196.3 867.39 1196.3 818.152C1196.3 768.913 1156.39 729 1107.15 729C1057.91 729 1018 768.913 1018 818.152C1018 867.39 1057.91 907.303 1107.15 907.303Z" fill="white"/>
<path d="M1097.21 786.91C1093.63 784.422 1089 787.329 1089 792.072V851.25C1089 855.993 1093.63 858.9 1097.21 856.412L1139.92 826.823C1143.35 824.46 1143.35 818.862 1139.92 816.499L1097.21 786.91Z" fill="white"/>
</g>
<defs>
<linearGradient id="paint0_linear_156_2393" x1="863.744" y1="818.25" x2="1568.17" y2="867.025" gradientUnits="userSpaceOnUse">
<stop stop-color="#FF9F92"/>
<stop offset="1" stop-color="#FF757A"/>
</linearGradient>
<clipPath id="clip0_156_2393">
<rect width="1471" height="1471" fill="white"/>
</clipPath>
</defs>
</svg>
