<svg width="555" height="460" viewBox="0 0 555 460" fill="none" xmlns="http://www.w3.org/2000/svg">
<path d="M499 189C501.485 189 503.5 186.985 503.5 184.5C503.5 182.015 501.485 180 499 180C496.515 180 494.5 182.015 494.5 184.5C494.5 186.985 496.515 189 499 189Z" fill="#FEAD6F"/>
<path d="M11.5 193.9C12.8807 193.9 14 192.781 14 191.4C14 190.019 12.8807 188.9 11.5 188.9C10.1193 188.9 9 190.019 9 191.4C9 192.781 10.1193 193.9 11.5 193.9Z" fill="#7179FD"/>
<path d="M505.5 170.9C506.881 170.9 508 169.781 508 168.4C508 167.019 506.881 165.9 505.5 165.9C504.119 165.9 503 167.019 503 168.4C503 169.781 504.119 170.9 505.5 170.9Z" fill="#CCCDD0"/>
<path d="M527.5 230.9C528.328 230.9 529 230.228 529 229.4C529 228.572 528.328 227.9 527.5 227.9C526.672 227.9 526 228.572 526 229.4C526 230.228 526.672 230.9 527.5 230.9Z" fill="#CCCDD0"/>
<path d="M532.5 230.9C533.328 230.9 534 230.228 534 229.4C534 228.572 533.328 227.9 532.5 227.9C531.672 227.9 531 228.572 531 229.4C531 230.228 531.672 230.9 532.5 230.9Z" fill="#CCCDD0"/>
<path d="M537.5 230.9C538.328 230.9 539 230.228 539 229.4C539 228.572 538.328 227.9 537.5 227.9C536.672 227.9 536 228.572 536 229.4C536 230.228 536.672 230.9 537.5 230.9Z" fill="#CCCDD0"/>
<path d="M537.5 240.9C538.328 240.9 539 240.228 539 239.4C539 238.572 538.328 237.9 537.5 237.9C536.672 237.9 536 238.572 536 239.4C536 240.228 536.672 240.9 537.5 240.9Z" fill="#CCCDD0"/>
<path d="M542.5 240.9C543.328 240.9 544 240.228 544 239.4C544 238.572 543.328 237.9 542.5 237.9C541.672 237.9 541 238.572 541 239.4C541 240.228 541.672 240.9 542.5 240.9Z" fill="#CCCDD0"/>
<path d="M28.8999 213.8L23.7999 216.8L19.3999 222.5L28.2999 227.7L33.3999 224.6L28.8999 213.8Z" fill="#FF9F92"/>
<path d="M23.7999 225.1L28.2999 227.7L26.0999 222.2L23.7999 216.8L21.5999 219.7L19.3999 222.5L23.7999 225.1Z" fill="#F54F52"/>
<path d="M1.5 201.9C2.32843 201.9 3 201.228 3 200.4C3 199.572 2.32843 198.9 1.5 198.9C0.671573 198.9 0 199.572 0 200.4C0 201.228 0.671573 201.9 1.5 201.9Z" fill="#CCCDD0"/>
<path d="M6.5 201.9C7.32843 201.9 8 201.228 8 200.4C8 199.572 7.32843 198.9 6.5 198.9C5.67157 198.9 5 199.572 5 200.4C5 201.228 5.67157 201.9 6.5 201.9Z" fill="#CCCDD0"/>
<path d="M11.5 201.9C12.3284 201.9 13 201.228 13 200.4C13 199.572 12.3284 198.9 11.5 198.9C10.6716 198.9 10 199.572 10 200.4C10 201.228 10.6716 201.9 11.5 201.9Z" fill="#CCCDD0"/>
<path d="M16.5 201.9C17.3284 201.9 18 201.228 18 200.4C18 199.572 17.3284 198.9 16.5 198.9C15.6716 198.9 15 199.572 15 200.4C15 201.228 15.6716 201.9 16.5 201.9Z" fill="#CCCDD0"/>
<path d="M21.5 201.9C22.3284 201.9 23 201.228 23 200.4C23 199.572 22.3284 198.9 21.5 198.9C20.6716 198.9 20 199.572 20 200.4C20 201.228 20.6716 201.9 21.5 201.9Z" fill="#CCCDD0"/>
<path d="M1.5 206.9C2.32843 206.9 3 206.228 3 205.4C3 204.572 2.32843 203.9 1.5 203.9C0.671573 203.9 0 204.572 0 205.4C0 206.228 0.671573 206.9 1.5 206.9Z" fill="#CCCDD0"/>
<path d="M6.5 206.9C7.32843 206.9 8 206.228 8 205.4C8 204.572 7.32843 203.9 6.5 203.9C5.67157 203.9 5 204.572 5 205.4C5 206.228 5.67157 206.9 6.5 206.9Z" fill="#CCCDD0"/>
<path d="M11.5 206.9C12.3284 206.9 13 206.228 13 205.4C13 204.572 12.3284 203.9 11.5 203.9C10.6716 203.9 10 204.572 10 205.4C10 206.228 10.6716 206.9 11.5 206.9Z" fill="#CCCDD0"/>
<path d="M1.5 251.9C2.32843 251.9 3 251.228 3 250.4C3 249.572 2.32843 248.9 1.5 248.9C0.671573 248.9 0 249.572 0 250.4C0 251.228 0.671573 251.9 1.5 251.9Z" fill="#CCCDD0"/>
<path d="M1.5 256.9C2.32843 256.9 3 256.228 3 255.4C3 254.572 2.32843 253.9 1.5 253.9C0.671573 253.9 0 254.572 0 255.4C0 256.228 0.671573 256.9 1.5 256.9Z" fill="#CCCDD0"/>
<path d="M1.5 261.9C2.32843 261.9 3 261.228 3 260.4C3 259.572 2.32843 258.9 1.5 258.9C0.671573 258.9 0 259.572 0 260.4C0 261.228 0.671573 261.9 1.5 261.9Z" fill="#CCCDD0"/>
<path d="M1.5 266.9C2.32843 266.9 3 266.228 3 265.4C3 264.572 2.32843 263.9 1.5 263.9C0.671573 263.9 0 264.572 0 265.4C0 266.228 0.671573 266.9 1.5 266.9Z" fill="#CCCDD0"/>
<path d="M1.5 271.9C2.32843 271.9 3 271.228 3 270.4C3 269.572 2.32843 268.9 1.5 268.9C0.671573 268.9 0 269.572 0 270.4C0 271.228 0.671573 271.9 1.5 271.9Z" fill="#CCCDD0"/>
<path d="M6.5 251.9C7.32843 251.9 8 251.228 8 250.4C8 249.572 7.32843 248.9 6.5 248.9C5.67157 248.9 5 249.572 5 250.4C5 251.228 5.67157 251.9 6.5 251.9Z" fill="#CCCDD0"/>
<path d="M6.5 256.9C7.32843 256.9 8 256.228 8 255.4C8 254.572 7.32843 253.9 6.5 253.9C5.67157 253.9 5 254.572 5 255.4C5 256.228 5.67157 256.9 6.5 256.9Z" fill="#CCCDD0"/>
<path d="M6.5 261.9C7.32843 261.9 8 261.228 8 260.4C8 259.572 7.32843 258.9 6.5 258.9C5.67157 258.9 5 259.572 5 260.4C5 261.228 5.67157 261.9 6.5 261.9Z" fill="#CCCDD0"/>
<path d="M6.5 266.9C7.32843 266.9 8 266.228 8 265.4C8 264.572 7.32843 263.9 6.5 263.9C5.67157 263.9 5 264.572 5 265.4C5 266.228 5.67157 266.9 6.5 266.9Z" fill="#CCCDD0"/>
<path d="M6.5 271.9C7.32843 271.9 8 271.228 8 270.4C8 269.572 7.32843 268.9 6.5 268.9C5.67157 268.9 5 269.572 5 270.4C5 271.228 5.67157 271.9 6.5 271.9Z" fill="#CCCDD0"/>
<path d="M11.5 251.9C12.3284 251.9 13 251.228 13 250.4C13 249.572 12.3284 248.9 11.5 248.9C10.6716 248.9 10 249.572 10 250.4C10 251.228 10.6716 251.9 11.5 251.9Z" fill="#CCCDD0"/>
<path d="M11.5 256.9C12.3284 256.9 13 256.228 13 255.4C13 254.572 12.3284 253.9 11.5 253.9C10.6716 253.9 10 254.572 10 255.4C10 256.228 10.6716 256.9 11.5 256.9Z" fill="#CCCDD0"/>
<path d="M11.5 261.9C12.3284 261.9 13 261.228 13 260.4C13 259.572 12.3284 258.9 11.5 258.9C10.6716 258.9 10 259.572 10 260.4C10 261.228 10.6716 261.9 11.5 261.9Z" fill="#CCCDD0"/>
<path d="M11.5 266.9C12.3284 266.9 13 266.228 13 265.4C13 264.572 12.3284 263.9 11.5 263.9C10.6716 263.9 10 264.572 10 265.4C10 266.228 10.6716 266.9 11.5 266.9Z" fill="#CCCDD0"/>
<path d="M11.5 271.9C12.3284 271.9 13 271.228 13 270.4C13 269.572 12.3284 268.9 11.5 268.9C10.6716 268.9 10 269.572 10 270.4C10 271.228 10.6716 271.9 11.5 271.9Z" fill="#CCCDD0"/>
<path d="M16.5 251.9C17.3284 251.9 18 251.228 18 250.4C18 249.572 17.3284 248.9 16.5 248.9C15.6716 248.9 15 249.572 15 250.4C15 251.228 15.6716 251.9 16.5 251.9Z" fill="#CCCDD0"/>
<path d="M16.5 256.9C17.3284 256.9 18 256.228 18 255.4C18 254.572 17.3284 253.9 16.5 253.9C15.6716 253.9 15 254.572 15 255.4C15 256.228 15.6716 256.9 16.5 256.9Z" fill="#CCCDD0"/>
<path d="M16.5 261.9C17.3284 261.9 18 261.228 18 260.4C18 259.572 17.3284 258.9 16.5 258.9C15.6716 258.9 15 259.572 15 260.4C15 261.228 15.6716 261.9 16.5 261.9Z" fill="#CCCDD0"/>
<path d="M16.5 266.9C17.3284 266.9 18 266.228 18 265.4C18 264.572 17.3284 263.9 16.5 263.9C15.6716 263.9 15 264.572 15 265.4C15 266.228 15.6716 266.9 16.5 266.9Z" fill="#CCCDD0"/>
<path d="M16.5 271.9C17.3284 271.9 18 271.228 18 270.4C18 269.572 17.3284 268.9 16.5 268.9C15.6716 268.9 15 269.572 15 270.4C15 271.228 15.6716 271.9 16.5 271.9Z" fill="#CCCDD0"/>
<path d="M21.5 251.9C22.3284 251.9 23 251.228 23 250.4C23 249.572 22.3284 248.9 21.5 248.9C20.6716 248.9 20 249.572 20 250.4C20 251.228 20.6716 251.9 21.5 251.9Z" fill="#CCCDD0"/>
<path d="M21.5 256.9C22.3284 256.9 23 256.228 23 255.4C23 254.572 22.3284 253.9 21.5 253.9C20.6716 253.9 20 254.572 20 255.4C20 256.228 20.6716 256.9 21.5 256.9Z" fill="#CCCDD0"/>
<path d="M21.5 261.9C22.3284 261.9 23 261.228 23 260.4C23 259.572 22.3284 258.9 21.5 258.9C20.6716 258.9 20 259.572 20 260.4C20 261.228 20.6716 261.9 21.5 261.9Z" fill="#CCCDD0"/>
<path d="M21.5 266.9C22.3284 266.9 23 266.228 23 265.4C23 264.572 22.3284 263.9 21.5 263.9C20.6716 263.9 20 264.572 20 265.4C20 266.228 20.6716 266.9 21.5 266.9Z" fill="#CCCDD0"/>
<path d="M21.5 271.9C22.3284 271.9 23 271.228 23 270.4C23 269.572 22.3284 268.9 21.5 268.9C20.6716 268.9 20 269.572 20 270.4C20 271.228 20.6716 271.9 21.5 271.9Z" fill="#CCCDD0"/>
<path d="M26.5 251.9C27.3284 251.9 28 251.228 28 250.4C28 249.572 27.3284 248.9 26.5 248.9C25.6716 248.9 25 249.572 25 250.4C25 251.228 25.6716 251.9 26.5 251.9Z" fill="#CCCDD0"/>
<path d="M26.5 256.9C27.3284 256.9 28 256.228 28 255.4C28 254.572 27.3284 253.9 26.5 253.9C25.6716 253.9 25 254.572 25 255.4C25 256.228 25.6716 256.9 26.5 256.9Z" fill="#CCCDD0"/>
<path d="M26.5 261.9C27.3284 261.9 28 261.228 28 260.4C28 259.572 27.3284 258.9 26.5 258.9C25.6716 258.9 25 259.572 25 260.4C25 261.228 25.6716 261.9 26.5 261.9Z" fill="#CCCDD0"/>
<path d="M26.5 266.9C27.3284 266.9 28 266.228 28 265.4C28 264.572 27.3284 263.9 26.5 263.9C25.6716 263.9 25 264.572 25 265.4C25 266.228 25.6716 266.9 26.5 266.9Z" fill="#CCCDD0"/>
<path d="M26.5 271.9C27.3284 271.9 28 271.228 28 270.4C28 269.572 27.3284 268.9 26.5 268.9C25.6716 268.9 25 269.572 25 270.4C25 271.228 25.6716 271.9 26.5 271.9Z" fill="#CCCDD0"/>
<path d="M31.5 251.9C32.3284 251.9 33 251.228 33 250.4C33 249.572 32.3284 248.9 31.5 248.9C30.6716 248.9 30 249.572 30 250.4C30 251.228 30.6716 251.9 31.5 251.9Z" fill="#CCCDD0"/>
<path d="M31.5 256.9C32.3284 256.9 33 256.228 33 255.4C33 254.572 32.3284 253.9 31.5 253.9C30.6716 253.9 30 254.572 30 255.4C30 256.228 30.6716 256.9 31.5 256.9Z" fill="#CCCDD0"/>
<path d="M31.5 261.9C32.3284 261.9 33 261.228 33 260.4C33 259.572 32.3284 258.9 31.5 258.9C30.6716 258.9 30 259.572 30 260.4C30 261.228 30.6716 261.9 31.5 261.9Z" fill="#CCCDD0"/>
<path d="M31.5 266.9C32.3284 266.9 33 266.228 33 265.4C33 264.572 32.3284 263.9 31.5 263.9C30.6716 263.9 30 264.572 30 265.4C30 266.228 30.6716 266.9 31.5 266.9Z" fill="#CCCDD0"/>
<path d="M31.5 271.9C32.3284 271.9 33 271.228 33 270.4C33 269.572 32.3284 268.9 31.5 268.9C30.6716 268.9 30 269.572 30 270.4C30 271.228 30.6716 271.9 31.5 271.9Z" fill="#CCCDD0"/>
<path d="M36.5 251.9C37.3284 251.9 38 251.228 38 250.4C38 249.572 37.3284 248.9 36.5 248.9C35.6716 248.9 35 249.572 35 250.4C35 251.228 35.6716 251.9 36.5 251.9Z" fill="#CCCDD0"/>
<path d="M36.5 256.9C37.3284 256.9 38 256.228 38 255.4C38 254.572 37.3284 253.9 36.5 253.9C35.6716 253.9 35 254.572 35 255.4C35 256.228 35.6716 256.9 36.5 256.9Z" fill="#CCCDD0"/>
<path d="M36.5 261.9C37.3284 261.9 38 261.228 38 260.4C38 259.572 37.3284 258.9 36.5 258.9C35.6716 258.9 35 259.572 35 260.4C35 261.228 35.6716 261.9 36.5 261.9Z" fill="#CCCDD0"/>
<path d="M36.5 266.9C37.3284 266.9 38 266.228 38 265.4C38 264.572 37.3284 263.9 36.5 263.9C35.6716 263.9 35 264.572 35 265.4C35 266.228 35.6716 266.9 36.5 266.9Z" fill="#CCCDD0"/>
<path d="M36.5 271.9C37.3284 271.9 38 271.228 38 270.4C38 269.572 37.3284 268.9 36.5 268.9C35.6716 268.9 35 269.572 35 270.4C35 271.228 35.6716 271.9 36.5 271.9Z" fill="#CCCDD0"/>
<path d="M41.5 251.9C42.3284 251.9 43 251.228 43 250.4C43 249.572 42.3284 248.9 41.5 248.9C40.6716 248.9 40 249.572 40 250.4C40 251.228 40.6716 251.9 41.5 251.9Z" fill="#CCCDD0"/>
<path d="M41.5 256.9C42.3284 256.9 43 256.228 43 255.4C43 254.572 42.3284 253.9 41.5 253.9C40.6716 253.9 40 254.572 40 255.4C40 256.228 40.6716 256.9 41.5 256.9Z" fill="#CCCDD0"/>
<path d="M41.5 261.9C42.3284 261.9 43 261.228 43 260.4C43 259.572 42.3284 258.9 41.5 258.9C40.6716 258.9 40 259.572 40 260.4C40 261.228 40.6716 261.9 41.5 261.9Z" fill="#CCCDD0"/>
<path d="M41.5 266.9C42.3284 266.9 43 266.228 43 265.4C43 264.572 42.3284 263.9 41.5 263.9C40.6716 263.9 40 264.572 40 265.4C40 266.228 40.6716 266.9 41.5 266.9Z" fill="#CCCDD0"/>
<path d="M41.5 271.9C42.3284 271.9 43 271.228 43 270.4C43 269.572 42.3284 268.9 41.5 268.9C40.6716 268.9 40 269.572 40 270.4C40 271.228 40.6716 271.9 41.5 271.9Z" fill="#CCCDD0"/>
<path d="M46.5 251.9C47.3284 251.9 48 251.228 48 250.4C48 249.572 47.3284 248.9 46.5 248.9C45.6716 248.9 45 249.572 45 250.4C45 251.228 45.6716 251.9 46.5 251.9Z" fill="#CCCDD0"/>
<path d="M46.5 256.9C47.3284 256.9 48 256.228 48 255.4C48 254.572 47.3284 253.9 46.5 253.9C45.6716 253.9 45 254.572 45 255.4C45 256.228 45.6716 256.9 46.5 256.9Z" fill="#CCCDD0"/>
<path d="M46.5 261.9C47.3284 261.9 48 261.228 48 260.4C48 259.572 47.3284 258.9 46.5 258.9C45.6716 258.9 45 259.572 45 260.4C45 261.228 45.6716 261.9 46.5 261.9Z" fill="#CCCDD0"/>
<path d="M46.5 266.9C47.3284 266.9 48 266.228 48 265.4C48 264.572 47.3284 263.9 46.5 263.9C45.6716 263.9 45 264.572 45 265.4C45 266.228 45.6716 266.9 46.5 266.9Z" fill="#CCCDD0"/>
<path d="M46.5 271.9C47.3284 271.9 48 271.228 48 270.4C48 269.572 47.3284 268.9 46.5 268.9C45.6716 268.9 45 269.572 45 270.4C45 271.228 45.6716 271.9 46.5 271.9Z" fill="#CCCDD0"/>
<path d="M51.5 251.9C52.3284 251.9 53 251.228 53 250.4C53 249.572 52.3284 248.9 51.5 248.9C50.6716 248.9 50 249.572 50 250.4C50 251.228 50.6716 251.9 51.5 251.9Z" fill="#CCCDD0"/>
<path d="M51.5 256.9C52.3284 256.9 53 256.228 53 255.4C53 254.572 52.3284 253.9 51.5 253.9C50.6716 253.9 50 254.572 50 255.4C50 256.228 50.6716 256.9 51.5 256.9Z" fill="#CCCDD0"/>
<path d="M51.5 261.9C52.3284 261.9 53 261.228 53 260.4C53 259.572 52.3284 258.9 51.5 258.9C50.6716 258.9 50 259.572 50 260.4C50 261.228 50.6716 261.9 51.5 261.9Z" fill="#CCCDD0"/>
<path d="M51.5 266.9C52.3284 266.9 53 266.228 53 265.4C53 264.572 52.3284 263.9 51.5 263.9C50.6716 263.9 50 264.572 50 265.4C50 266.228 50.6716 266.9 51.5 266.9Z" fill="#CCCDD0"/>
<path d="M51.5 271.9C52.3284 271.9 53 271.228 53 270.4C53 269.572 52.3284 268.9 51.5 268.9C50.6716 268.9 50 269.572 50 270.4C50 271.228 50.6716 271.9 51.5 271.9Z" fill="#CCCDD0"/>
<path d="M56.5 251.9C57.3284 251.9 58 251.228 58 250.4C58 249.572 57.3284 248.9 56.5 248.9C55.6716 248.9 55 249.572 55 250.4C55 251.228 55.6716 251.9 56.5 251.9Z" fill="#CCCDD0"/>
<path d="M56.5 256.9C57.3284 256.9 58 256.228 58 255.4C58 254.572 57.3284 253.9 56.5 253.9C55.6716 253.9 55 254.572 55 255.4C55 256.228 55.6716 256.9 56.5 256.9Z" fill="#CCCDD0"/>
<path d="M56.5 261.9C57.3284 261.9 58 261.228 58 260.4C58 259.572 57.3284 258.9 56.5 258.9C55.6716 258.9 55 259.572 55 260.4C55 261.228 55.6716 261.9 56.5 261.9Z" fill="#CCCDD0"/>
<path d="M56.5 266.9C57.3284 266.9 58 266.228 58 265.4C58 264.572 57.3284 263.9 56.5 263.9C55.6716 263.9 55 264.572 55 265.4C55 266.228 55.6716 266.9 56.5 266.9Z" fill="#CCCDD0"/>
<path d="M56.5 271.9C57.3284 271.9 58 271.228 58 270.4C58 269.572 57.3284 268.9 56.5 268.9C55.6716 268.9 55 269.572 55 270.4C55 271.228 55.6716 271.9 56.5 271.9Z" fill="#CCCDD0"/>
<path d="M61.5 251.9C62.3284 251.9 63 251.228 63 250.4C63 249.572 62.3284 248.9 61.5 248.9C60.6716 248.9 60 249.572 60 250.4C60 251.228 60.6716 251.9 61.5 251.9Z" fill="#CCCDD0"/>
<path d="M61.5 256.9C62.3284 256.9 63 256.228 63 255.4C63 254.572 62.3284 253.9 61.5 253.9C60.6716 253.9 60 254.572 60 255.4C60 256.228 60.6716 256.9 61.5 256.9Z" fill="#CCCDD0"/>
<path d="M61.5 261.9C62.3284 261.9 63 261.228 63 260.4C63 259.572 62.3284 258.9 61.5 258.9C60.6716 258.9 60 259.572 60 260.4C60 261.228 60.6716 261.9 61.5 261.9Z" fill="#CCCDD0"/>
<path d="M61.5 266.9C62.3284 266.9 63 266.228 63 265.4C63 264.572 62.3284 263.9 61.5 263.9C60.6716 263.9 60 264.572 60 265.4C60 266.228 60.6716 266.9 61.5 266.9Z" fill="#CCCDD0"/>
<path d="M61.5 271.9C62.3284 271.9 63 271.228 63 270.4C63 269.572 62.3284 268.9 61.5 268.9C60.6716 268.9 60 269.572 60 270.4C60 271.228 60.6716 271.9 61.5 271.9Z" fill="#CCCDD0"/>
<path d="M66.5 251.9C67.3284 251.9 68 251.228 68 250.4C68 249.572 67.3284 248.9 66.5 248.9C65.6716 248.9 65 249.572 65 250.4C65 251.228 65.6716 251.9 66.5 251.9Z" fill="#CCCDD0"/>
<path d="M66.5 256.9C67.3284 256.9 68 256.228 68 255.4C68 254.572 67.3284 253.9 66.5 253.9C65.6716 253.9 65 254.572 65 255.4C65 256.228 65.6716 256.9 66.5 256.9Z" fill="#CCCDD0"/>
<path d="M66.5 261.9C67.3284 261.9 68 261.228 68 260.4C68 259.572 67.3284 258.9 66.5 258.9C65.6716 258.9 65 259.572 65 260.4C65 261.228 65.6716 261.9 66.5 261.9Z" fill="#CCCDD0"/>
<path d="M66.5 266.9C67.3284 266.9 68 266.228 68 265.4C68 264.572 67.3284 263.9 66.5 263.9C65.6716 263.9 65 264.572 65 265.4C65 266.228 65.6716 266.9 66.5 266.9Z" fill="#CCCDD0"/>
<path d="M66.5 271.9C67.3284 271.9 68 271.228 68 270.4C68 269.572 67.3284 268.9 66.5 268.9C65.6716 268.9 65 269.572 65 270.4C65 271.228 65.6716 271.9 66.5 271.9Z" fill="#CCCDD0"/>
<path d="M71.5 251.9C72.3284 251.9 73 251.228 73 250.4C73 249.572 72.3284 248.9 71.5 248.9C70.6716 248.9 70 249.572 70 250.4C70 251.228 70.6716 251.9 71.5 251.9Z" fill="#CCCDD0"/>
<path d="M71.5 256.9C72.3284 256.9 73 256.228 73 255.4C73 254.572 72.3284 253.9 71.5 253.9C70.6716 253.9 70 254.572 70 255.4C70 256.228 70.6716 256.9 71.5 256.9Z" fill="#CCCDD0"/>
<path d="M71.5 261.9C72.3284 261.9 73 261.228 73 260.4C73 259.572 72.3284 258.9 71.5 258.9C70.6716 258.9 70 259.572 70 260.4C70 261.228 70.6716 261.9 71.5 261.9Z" fill="#CCCDD0"/>
<path d="M71.5 266.9C72.3284 266.9 73 266.228 73 265.4C73 264.572 72.3284 263.9 71.5 263.9C70.6716 263.9 70 264.572 70 265.4C70 266.228 70.6716 266.9 71.5 266.9Z" fill="#CCCDD0"/>
<path d="M71.5 271.9C72.3284 271.9 73 271.228 73 270.4C73 269.572 72.3284 268.9 71.5 268.9C70.6716 268.9 70 269.572 70 270.4C70 271.228 70.6716 271.9 71.5 271.9Z" fill="#CCCDD0"/>
<path d="M76.5 251.9C77.3284 251.9 78 251.228 78 250.4C78 249.572 77.3284 248.9 76.5 248.9C75.6716 248.9 75 249.572 75 250.4C75 251.228 75.6716 251.9 76.5 251.9Z" fill="#CCCDD0"/>
<path d="M76.5 256.9C77.3284 256.9 78 256.228 78 255.4C78 254.572 77.3284 253.9 76.5 253.9C75.6716 253.9 75 254.572 75 255.4C75 256.228 75.6716 256.9 76.5 256.9Z" fill="#CCCDD0"/>
<path d="M76.5 261.9C77.3284 261.9 78 261.228 78 260.4C78 259.572 77.3284 258.9 76.5 258.9C75.6716 258.9 75 259.572 75 260.4C75 261.228 75.6716 261.9 76.5 261.9Z" fill="#CCCDD0"/>
<path d="M76.5 266.9C77.3284 266.9 78 266.228 78 265.4C78 264.572 77.3284 263.9 76.5 263.9C75.6716 263.9 75 264.572 75 265.4C75 266.228 75.6716 266.9 76.5 266.9Z" fill="#CCCDD0"/>
<path d="M76.5 271.9C77.3284 271.9 78 271.228 78 270.4C78 269.572 77.3284 268.9 76.5 268.9C75.6716 268.9 75 269.572 75 270.4C75 271.228 75.6716 271.9 76.5 271.9Z" fill="#CCCDD0"/>
<path d="M81.5 251.9C82.3284 251.9 83 251.228 83 250.4C83 249.572 82.3284 248.9 81.5 248.9C80.6716 248.9 80 249.572 80 250.4C80 251.228 80.6716 251.9 81.5 251.9Z" fill="#CCCDD0"/>
<path d="M81.5 256.9C82.3284 256.9 83 256.228 83 255.4C83 254.572 82.3284 253.9 81.5 253.9C80.6716 253.9 80 254.572 80 255.4C80 256.228 80.6716 256.9 81.5 256.9Z" fill="#CCCDD0"/>
<path d="M81.5 261.9C82.3284 261.9 83 261.228 83 260.4C83 259.572 82.3284 258.9 81.5 258.9C80.6716 258.9 80 259.572 80 260.4C80 261.228 80.6716 261.9 81.5 261.9Z" fill="#CCCDD0"/>
<path d="M81.5 266.9C82.3284 266.9 83 266.228 83 265.4C83 264.572 82.3284 263.9 81.5 263.9C80.6716 263.9 80 264.572 80 265.4C80 266.228 80.6716 266.9 81.5 266.9Z" fill="#CCCDD0"/>
<path d="M81.5 271.9C82.3284 271.9 83 271.228 83 270.4C83 269.572 82.3284 268.9 81.5 268.9C80.6716 268.9 80 269.572 80 270.4C80 271.228 80.6716 271.9 81.5 271.9Z" fill="#CCCDD0"/>
<path d="M472.5 251.9C473.328 251.9 474 251.228 474 250.4C474 249.572 473.328 248.9 472.5 248.9C471.672 248.9 471 249.572 471 250.4C471 251.228 471.672 251.9 472.5 251.9Z" fill="#CCCDD0"/>
<path d="M472.5 256.9C473.328 256.9 474 256.228 474 255.4C474 254.572 473.328 253.9 472.5 253.9C471.672 253.9 471 254.572 471 255.4C471 256.228 471.672 256.9 472.5 256.9Z" fill="#CCCDD0"/>
<path d="M472.5 261.9C473.328 261.9 474 261.228 474 260.4C474 259.572 473.328 258.9 472.5 258.9C471.672 258.9 471 259.572 471 260.4C471 261.228 471.672 261.9 472.5 261.9Z" fill="#CCCDD0"/>
<path d="M472.5 266.9C473.328 266.9 474 266.228 474 265.4C474 264.572 473.328 263.9 472.5 263.9C471.672 263.9 471 264.572 471 265.4C471 266.228 471.672 266.9 472.5 266.9Z" fill="#CCCDD0"/>
<path d="M472.5 271.9C473.328 271.9 474 271.228 474 270.4C474 269.572 473.328 268.9 472.5 268.9C471.672 268.9 471 269.572 471 270.4C471 271.228 471.672 271.9 472.5 271.9Z" fill="#CCCDD0"/>
<path d="M477.5 251.9C478.328 251.9 479 251.228 479 250.4C479 249.572 478.328 248.9 477.5 248.9C476.672 248.9 476 249.572 476 250.4C476 251.228 476.672 251.9 477.5 251.9Z" fill="#CCCDD0"/>
<path d="M477.5 256.9C478.328 256.9 479 256.228 479 255.4C479 254.572 478.328 253.9 477.5 253.9C476.672 253.9 476 254.572 476 255.4C476 256.228 476.672 256.9 477.5 256.9Z" fill="#CCCDD0"/>
<path d="M477.5 261.9C478.328 261.9 479 261.228 479 260.4C479 259.572 478.328 258.9 477.5 258.9C476.672 258.9 476 259.572 476 260.4C476 261.228 476.672 261.9 477.5 261.9Z" fill="#CCCDD0"/>
<path d="M477.5 266.9C478.328 266.9 479 266.228 479 265.4C479 264.572 478.328 263.9 477.5 263.9C476.672 263.9 476 264.572 476 265.4C476 266.228 476.672 266.9 477.5 266.9Z" fill="#CCCDD0"/>
<path d="M477.5 271.9C478.328 271.9 479 271.228 479 270.4C479 269.572 478.328 268.9 477.5 268.9C476.672 268.9 476 269.572 476 270.4C476 271.228 476.672 271.9 477.5 271.9Z" fill="#CCCDD0"/>
<path d="M482.5 251.9C483.328 251.9 484 251.228 484 250.4C484 249.572 483.328 248.9 482.5 248.9C481.672 248.9 481 249.572 481 250.4C481 251.228 481.672 251.9 482.5 251.9Z" fill="#CCCDD0"/>
<path d="M482.5 256.9C483.328 256.9 484 256.228 484 255.4C484 254.572 483.328 253.9 482.5 253.9C481.672 253.9 481 254.572 481 255.4C481 256.228 481.672 256.9 482.5 256.9Z" fill="#CCCDD0"/>
<path d="M482.5 261.9C483.328 261.9 484 261.228 484 260.4C484 259.572 483.328 258.9 482.5 258.9C481.672 258.9 481 259.572 481 260.4C481 261.228 481.672 261.9 482.5 261.9Z" fill="#CCCDD0"/>
<path d="M482.5 266.9C483.328 266.9 484 266.228 484 265.4C484 264.572 483.328 263.9 482.5 263.9C481.672 263.9 481 264.572 481 265.4C481 266.228 481.672 266.9 482.5 266.9Z" fill="#CCCDD0"/>
<path d="M482.5 271.9C483.328 271.9 484 271.228 484 270.4C484 269.572 483.328 268.9 482.5 268.9C481.672 268.9 481 269.572 481 270.4C481 271.228 481.672 271.9 482.5 271.9Z" fill="#CCCDD0"/>
<path d="M487.5 251.9C488.328 251.9 489 251.228 489 250.4C489 249.572 488.328 248.9 487.5 248.9C486.672 248.9 486 249.572 486 250.4C486 251.228 486.672 251.9 487.5 251.9Z" fill="#CCCDD0"/>
<path d="M487.5 256.9C488.328 256.9 489 256.228 489 255.4C489 254.572 488.328 253.9 487.5 253.9C486.672 253.9 486 254.572 486 255.4C486 256.228 486.672 256.9 487.5 256.9Z" fill="#CCCDD0"/>
<path d="M487.5 261.9C488.328 261.9 489 261.228 489 260.4C489 259.572 488.328 258.9 487.5 258.9C486.672 258.9 486 259.572 486 260.4C486 261.228 486.672 261.9 487.5 261.9Z" fill="#CCCDD0"/>
<path d="M487.5 266.9C488.328 266.9 489 266.228 489 265.4C489 264.572 488.328 263.9 487.5 263.9C486.672 263.9 486 264.572 486 265.4C486 266.228 486.672 266.9 487.5 266.9Z" fill="#CCCDD0"/>
<path d="M487.5 271.9C488.328 271.9 489 271.228 489 270.4C489 269.572 488.328 268.9 487.5 268.9C486.672 268.9 486 269.572 486 270.4C486 271.228 486.672 271.9 487.5 271.9Z" fill="#CCCDD0"/>
<path d="M444.5 251.9C445.328 251.9 446 251.228 446 250.4C446 249.572 445.328 248.9 444.5 248.9C443.672 248.9 443 249.572 443 250.4C443 251.228 443.672 251.9 444.5 251.9Z" fill="#CCCDD0"/>
<path d="M444.5 256.9C445.328 256.9 446 256.228 446 255.4C446 254.572 445.328 253.9 444.5 253.9C443.672 253.9 443 254.572 443 255.4C443 256.228 443.672 256.9 444.5 256.9Z" fill="#CCCDD0"/>
<path d="M444.5 261.9C445.328 261.9 446 261.228 446 260.4C446 259.572 445.328 258.9 444.5 258.9C443.672 258.9 443 259.572 443 260.4C443 261.228 443.672 261.9 444.5 261.9Z" fill="#CCCDD0"/>
<path d="M444.5 266.9C445.328 266.9 446 266.228 446 265.4C446 264.572 445.328 263.9 444.5 263.9C443.672 263.9 443 264.572 443 265.4C443 266.228 443.672 266.9 444.5 266.9Z" fill="#CCCDD0"/>
<path d="M444.5 271.9C445.328 271.9 446 271.228 446 270.4C446 269.572 445.328 268.9 444.5 268.9C443.672 268.9 443 269.572 443 270.4C443 271.228 443.672 271.9 444.5 271.9Z" fill="#CCCDD0"/>
<path d="M449.5 251.9C450.328 251.9 451 251.228 451 250.4C451 249.572 450.328 248.9 449.5 248.9C448.672 248.9 448 249.572 448 250.4C448 251.228 448.672 251.9 449.5 251.9Z" fill="#CCCDD0"/>
<path d="M449.5 256.9C450.328 256.9 451 256.228 451 255.4C451 254.572 450.328 253.9 449.5 253.9C448.672 253.9 448 254.572 448 255.4C448 256.228 448.672 256.9 449.5 256.9Z" fill="#CCCDD0"/>
<path d="M449.5 261.9C450.328 261.9 451 261.228 451 260.4C451 259.572 450.328 258.9 449.5 258.9C448.672 258.9 448 259.572 448 260.4C448 261.228 448.672 261.9 449.5 261.9Z" fill="#CCCDD0"/>
<path d="M449.5 266.9C450.328 266.9 451 266.228 451 265.4C451 264.572 450.328 263.9 449.5 263.9C448.672 263.9 448 264.572 448 265.4C448 266.228 448.672 266.9 449.5 266.9Z" fill="#CCCDD0"/>
<path d="M449.5 271.9C450.328 271.9 451 271.228 451 270.4C451 269.572 450.328 268.9 449.5 268.9C448.672 268.9 448 269.572 448 270.4C448 271.228 448.672 271.9 449.5 271.9Z" fill="#CCCDD0"/>
<path d="M454.5 251.9C455.328 251.9 456 251.228 456 250.4C456 249.572 455.328 248.9 454.5 248.9C453.672 248.9 453 249.572 453 250.4C453 251.228 453.672 251.9 454.5 251.9Z" fill="#CCCDD0"/>
<path d="M454.5 256.9C455.328 256.9 456 256.228 456 255.4C456 254.572 455.328 253.9 454.5 253.9C453.672 253.9 453 254.572 453 255.4C453 256.228 453.672 256.9 454.5 256.9Z" fill="#CCCDD0"/>
<path d="M454.5 261.9C455.328 261.9 456 261.228 456 260.4C456 259.572 455.328 258.9 454.5 258.9C453.672 258.9 453 259.572 453 260.4C453 261.228 453.672 261.9 454.5 261.9Z" fill="#CCCDD0"/>
<path d="M454.5 266.9C455.328 266.9 456 266.228 456 265.4C456 264.572 455.328 263.9 454.5 263.9C453.672 263.9 453 264.572 453 265.4C453 266.228 453.672 266.9 454.5 266.9Z" fill="#CCCDD0"/>
<path d="M454.5 271.9C455.328 271.9 456 271.228 456 270.4C456 269.572 455.328 268.9 454.5 268.9C453.672 268.9 453 269.572 453 270.4C453 271.228 453.672 271.9 454.5 271.9Z" fill="#CCCDD0"/>
<path d="M459.5 251.9C460.328 251.9 461 251.228 461 250.4C461 249.572 460.328 248.9 459.5 248.9C458.672 248.9 458 249.572 458 250.4C458 251.228 458.672 251.9 459.5 251.9Z" fill="#CCCDD0"/>
<path d="M459.5 256.9C460.328 256.9 461 256.228 461 255.4C461 254.572 460.328 253.9 459.5 253.9C458.672 253.9 458 254.572 458 255.4C458 256.228 458.672 256.9 459.5 256.9Z" fill="#CCCDD0"/>
<path d="M459.5 261.9C460.328 261.9 461 261.228 461 260.4C461 259.572 460.328 258.9 459.5 258.9C458.672 258.9 458 259.572 458 260.4C458 261.228 458.672 261.9 459.5 261.9Z" fill="#CCCDD0"/>
<path d="M459.5 266.9C460.328 266.9 461 266.228 461 265.4C461 264.572 460.328 263.9 459.5 263.9C458.672 263.9 458 264.572 458 265.4C458 266.228 458.672 266.9 459.5 266.9Z" fill="#CCCDD0"/>
<path d="M459.5 271.9C460.328 271.9 461 271.228 461 270.4C461 269.572 460.328 268.9 459.5 268.9C458.672 268.9 458 269.572 458 270.4C458 271.228 458.672 271.9 459.5 271.9Z" fill="#CCCDD0"/>
<path d="M492.5 251.9C493.328 251.9 494 251.228 494 250.4C494 249.572 493.328 248.9 492.5 248.9C491.672 248.9 491 249.572 491 250.4C491 251.228 491.672 251.9 492.5 251.9Z" fill="#CCCDD0"/>
<path d="M492.5 256.9C493.328 256.9 494 256.228 494 255.4C494 254.572 493.328 253.9 492.5 253.9C491.672 253.9 491 254.572 491 255.4C491 256.228 491.672 256.9 492.5 256.9Z" fill="#CCCDD0"/>
<path d="M492.5 261.9C493.328 261.9 494 261.228 494 260.4C494 259.572 493.328 258.9 492.5 258.9C491.672 258.9 491 259.572 491 260.4C491 261.228 491.672 261.9 492.5 261.9Z" fill="#CCCDD0"/>
<path d="M492.5 266.9C493.328 266.9 494 266.228 494 265.4C494 264.572 493.328 263.9 492.5 263.9C491.672 263.9 491 264.572 491 265.4C491 266.228 491.672 266.9 492.5 266.9Z" fill="#CCCDD0"/>
<path d="M492.5 271.9C493.328 271.9 494 271.228 494 270.4C494 269.572 493.328 268.9 492.5 268.9C491.672 268.9 491 269.572 491 270.4C491 271.228 491.672 271.9 492.5 271.9Z" fill="#CCCDD0"/>
<path d="M497.5 251.9C498.328 251.9 499 251.228 499 250.4C499 249.572 498.328 248.9 497.5 248.9C496.672 248.9 496 249.572 496 250.4C496 251.228 496.672 251.9 497.5 251.9Z" fill="#CCCDD0"/>
<path d="M497.5 256.9C498.328 256.9 499 256.228 499 255.4C499 254.572 498.328 253.9 497.5 253.9C496.672 253.9 496 254.572 496 255.4C496 256.228 496.672 256.9 497.5 256.9Z" fill="#CCCDD0"/>
<path d="M497.5 261.9C498.328 261.9 499 261.228 499 260.4C499 259.572 498.328 258.9 497.5 258.9C496.672 258.9 496 259.572 496 260.4C496 261.228 496.672 261.9 497.5 261.9Z" fill="#CCCDD0"/>
<path d="M497.5 266.9C498.328 266.9 499 266.228 499 265.4C499 264.572 498.328 263.9 497.5 263.9C496.672 263.9 496 264.572 496 265.4C496 266.228 496.672 266.9 497.5 266.9Z" fill="#CCCDD0"/>
<path d="M497.5 271.9C498.328 271.9 499 271.228 499 270.4C499 269.572 498.328 268.9 497.5 268.9C496.672 268.9 496 269.572 496 270.4C496 271.228 496.672 271.9 497.5 271.9Z" fill="#CCCDD0"/>
<path d="M502.5 251.9C503.328 251.9 504 251.228 504 250.4C504 249.572 503.328 248.9 502.5 248.9C501.672 248.9 501 249.572 501 250.4C501 251.228 501.672 251.9 502.5 251.9Z" fill="#CCCDD0"/>
<path d="M502.5 256.9C503.328 256.9 504 256.228 504 255.4C504 254.572 503.328 253.9 502.5 253.9C501.672 253.9 501 254.572 501 255.4C501 256.228 501.672 256.9 502.5 256.9Z" fill="#CCCDD0"/>
<path d="M502.5 261.9C503.328 261.9 504 261.228 504 260.4C504 259.572 503.328 258.9 502.5 258.9C501.672 258.9 501 259.572 501 260.4C501 261.228 501.672 261.9 502.5 261.9Z" fill="#CCCDD0"/>
<path d="M502.5 266.9C503.328 266.9 504 266.228 504 265.4C504 264.572 503.328 263.9 502.5 263.9C501.672 263.9 501 264.572 501 265.4C501 266.228 501.672 266.9 502.5 266.9Z" fill="#CCCDD0"/>
<path d="M502.5 271.9C503.328 271.9 504 271.228 504 270.4C504 269.572 503.328 268.9 502.5 268.9C501.672 268.9 501 269.572 501 270.4C501 271.228 501.672 271.9 502.5 271.9Z" fill="#CCCDD0"/>
<path d="M507.5 251.9C508.328 251.9 509 251.228 509 250.4C509 249.572 508.328 248.9 507.5 248.9C506.672 248.9 506 249.572 506 250.4C506 251.228 506.672 251.9 507.5 251.9Z" fill="#CCCDD0"/>
<path d="M507.5 256.9C508.328 256.9 509 256.228 509 255.4C509 254.572 508.328 253.9 507.5 253.9C506.672 253.9 506 254.572 506 255.4C506 256.228 506.672 256.9 507.5 256.9Z" fill="#CCCDD0"/>
<path d="M507.5 261.9C508.328 261.9 509 261.228 509 260.4C509 259.572 508.328 258.9 507.5 258.9C506.672 258.9 506 259.572 506 260.4C506 261.228 506.672 261.9 507.5 261.9Z" fill="#CCCDD0"/>
<path d="M507.5 266.9C508.328 266.9 509 266.228 509 265.4C509 264.572 508.328 263.9 507.5 263.9C506.672 263.9 506 264.572 506 265.4C506 266.228 506.672 266.9 507.5 266.9Z" fill="#CCCDD0"/>
<path d="M507.5 271.9C508.328 271.9 509 271.228 509 270.4C509 269.572 508.328 268.9 507.5 268.9C506.672 268.9 506 269.572 506 270.4C506 271.228 506.672 271.9 507.5 271.9Z" fill="#CCCDD0"/>
<path d="M512.5 251.9C513.328 251.9 514 251.228 514 250.4C514 249.572 513.328 248.9 512.5 248.9C511.672 248.9 511 249.572 511 250.4C511 251.228 511.672 251.9 512.5 251.9Z" fill="#CCCDD0"/>
<path d="M512.5 256.9C513.328 256.9 514 256.228 514 255.4C514 254.572 513.328 253.9 512.5 253.9C511.672 253.9 511 254.572 511 255.4C511 256.228 511.672 256.9 512.5 256.9Z" fill="#CCCDD0"/>
<path d="M512.5 261.9C513.328 261.9 514 261.228 514 260.4C514 259.572 513.328 258.9 512.5 258.9C511.672 258.9 511 259.572 511 260.4C511 261.228 511.672 261.9 512.5 261.9Z" fill="#CCCDD0"/>
<path d="M512.5 266.9C513.328 266.9 514 266.228 514 265.4C514 264.572 513.328 263.9 512.5 263.9C511.672 263.9 511 264.572 511 265.4C511 266.228 511.672 266.9 512.5 266.9Z" fill="#CCCDD0"/>
<path d="M512.5 271.9C513.328 271.9 514 271.228 514 270.4C514 269.572 513.328 268.9 512.5 268.9C511.672 268.9 511 269.572 511 270.4C511 271.228 511.672 271.9 512.5 271.9Z" fill="#CCCDD0"/>
<path d="M517.5 251.9C518.328 251.9 519 251.228 519 250.4C519 249.572 518.328 248.9 517.5 248.9C516.672 248.9 516 249.572 516 250.4C516 251.228 516.672 251.9 517.5 251.9Z" fill="#CCCDD0"/>
<path d="M517.5 256.9C518.328 256.9 519 256.228 519 255.4C519 254.572 518.328 253.9 517.5 253.9C516.672 253.9 516 254.572 516 255.4C516 256.228 516.672 256.9 517.5 256.9Z" fill="#CCCDD0"/>
<path d="M517.5 261.9C518.328 261.9 519 261.228 519 260.4C519 259.572 518.328 258.9 517.5 258.9C516.672 258.9 516 259.572 516 260.4C516 261.228 516.672 261.9 517.5 261.9Z" fill="#CCCDD0"/>
<path d="M517.5 266.9C518.328 266.9 519 266.228 519 265.4C519 264.572 518.328 263.9 517.5 263.9C516.672 263.9 516 264.572 516 265.4C516 266.228 516.672 266.9 517.5 266.9Z" fill="#CCCDD0"/>
<path d="M517.5 271.9C518.328 271.9 519 271.228 519 270.4C519 269.572 518.328 268.9 517.5 268.9C516.672 268.9 516 269.572 516 270.4C516 271.228 516.672 271.9 517.5 271.9Z" fill="#CCCDD0"/>
<path d="M522.5 251.9C523.328 251.9 524 251.228 524 250.4C524 249.572 523.328 248.9 522.5 248.9C521.672 248.9 521 249.572 521 250.4C521 251.228 521.672 251.9 522.5 251.9Z" fill="#CCCDD0"/>
<path d="M522.5 256.9C523.328 256.9 524 256.228 524 255.4C524 254.572 523.328 253.9 522.5 253.9C521.672 253.9 521 254.572 521 255.4C521 256.228 521.672 256.9 522.5 256.9Z" fill="#CCCDD0"/>
<path d="M522.5 261.9C523.328 261.9 524 261.228 524 260.4C524 259.572 523.328 258.9 522.5 258.9C521.672 258.9 521 259.572 521 260.4C521 261.228 521.672 261.9 522.5 261.9Z" fill="#CCCDD0"/>
<path d="M522.5 266.9C523.328 266.9 524 266.228 524 265.4C524 264.572 523.328 263.9 522.5 263.9C521.672 263.9 521 264.572 521 265.4C521 266.228 521.672 266.9 522.5 266.9Z" fill="#CCCDD0"/>
<path d="M522.5 271.9C523.328 271.9 524 271.228 524 270.4C524 269.572 523.328 268.9 522.5 268.9C521.672 268.9 521 269.572 521 270.4C521 271.228 521.672 271.9 522.5 271.9Z" fill="#CCCDD0"/>
<path d="M527.5 251.9C528.328 251.9 529 251.228 529 250.4C529 249.572 528.328 248.9 527.5 248.9C526.672 248.9 526 249.572 526 250.4C526 251.228 526.672 251.9 527.5 251.9Z" fill="#CCCDD0"/>
<path d="M527.5 256.9C528.328 256.9 529 256.228 529 255.4C529 254.572 528.328 253.9 527.5 253.9C526.672 253.9 526 254.572 526 255.4C526 256.228 526.672 256.9 527.5 256.9Z" fill="#CCCDD0"/>
<path d="M527.5 261.9C528.328 261.9 529 261.228 529 260.4C529 259.572 528.328 258.9 527.5 258.9C526.672 258.9 526 259.572 526 260.4C526 261.228 526.672 261.9 527.5 261.9Z" fill="#CCCDD0"/>
<path d="M527.5 266.9C528.328 266.9 529 266.228 529 265.4C529 264.572 528.328 263.9 527.5 263.9C526.672 263.9 526 264.572 526 265.4C526 266.228 526.672 266.9 527.5 266.9Z" fill="#CCCDD0"/>
<path d="M527.5 271.9C528.328 271.9 529 271.228 529 270.4C529 269.572 528.328 268.9 527.5 268.9C526.672 268.9 526 269.572 526 270.4C526 271.228 526.672 271.9 527.5 271.9Z" fill="#CCCDD0"/>
<path d="M532.5 251.9C533.328 251.9 534 251.228 534 250.4C534 249.572 533.328 248.9 532.5 248.9C531.672 248.9 531 249.572 531 250.4C531 251.228 531.672 251.9 532.5 251.9Z" fill="#CCCDD0"/>
<path d="M532.5 256.9C533.328 256.9 534 256.228 534 255.4C534 254.572 533.328 253.9 532.5 253.9C531.672 253.9 531 254.572 531 255.4C531 256.228 531.672 256.9 532.5 256.9Z" fill="#CCCDD0"/>
<path d="M532.5 261.9C533.328 261.9 534 261.228 534 260.4C534 259.572 533.328 258.9 532.5 258.9C531.672 258.9 531 259.572 531 260.4C531 261.228 531.672 261.9 532.5 261.9Z" fill="#CCCDD0"/>
<path d="M532.5 266.9C533.328 266.9 534 266.228 534 265.4C534 264.572 533.328 263.9 532.5 263.9C531.672 263.9 531 264.572 531 265.4C531 266.228 531.672 266.9 532.5 266.9Z" fill="#CCCDD0"/>
<path d="M532.5 271.9C533.328 271.9 534 271.228 534 270.4C534 269.572 533.328 268.9 532.5 268.9C531.672 268.9 531 269.572 531 270.4C531 271.228 531.672 271.9 532.5 271.9Z" fill="#CCCDD0"/>
<path d="M537.5 251.9C538.328 251.9 539 251.228 539 250.4C539 249.572 538.328 248.9 537.5 248.9C536.672 248.9 536 249.572 536 250.4C536 251.228 536.672 251.9 537.5 251.9Z" fill="#CCCDD0"/>
<path d="M537.5 256.9C538.328 256.9 539 256.228 539 255.4C539 254.572 538.328 253.9 537.5 253.9C536.672 253.9 536 254.572 536 255.4C536 256.228 536.672 256.9 537.5 256.9Z" fill="#CCCDD0"/>
<path d="M537.5 261.9C538.328 261.9 539 261.228 539 260.4C539 259.572 538.328 258.9 537.5 258.9C536.672 258.9 536 259.572 536 260.4C536 261.228 536.672 261.9 537.5 261.9Z" fill="#CCCDD0"/>
<path d="M537.5 266.9C538.328 266.9 539 266.228 539 265.4C539 264.572 538.328 263.9 537.5 263.9C536.672 263.9 536 264.572 536 265.4C536 266.228 536.672 266.9 537.5 266.9Z" fill="#CCCDD0"/>
<path d="M537.5 271.9C538.328 271.9 539 271.228 539 270.4C539 269.572 538.328 268.9 537.5 268.9C536.672 268.9 536 269.572 536 270.4C536 271.228 536.672 271.9 537.5 271.9Z" fill="#CCCDD0"/>
<path d="M542.5 251.9C543.328 251.9 544 251.228 544 250.4C544 249.572 543.328 248.9 542.5 248.9C541.672 248.9 541 249.572 541 250.4C541 251.228 541.672 251.9 542.5 251.9Z" fill="#CCCDD0"/>
<path d="M542.5 256.9C543.328 256.9 544 256.228 544 255.4C544 254.572 543.328 253.9 542.5 253.9C541.672 253.9 541 254.572 541 255.4C541 256.228 541.672 256.9 542.5 256.9Z" fill="#CCCDD0"/>
<path d="M542.5 261.9C543.328 261.9 544 261.228 544 260.4C544 259.572 543.328 258.9 542.5 258.9C541.672 258.9 541 259.572 541 260.4C541 261.228 541.672 261.9 542.5 261.9Z" fill="#CCCDD0"/>
<path d="M542.5 266.9C543.328 266.9 544 266.228 544 265.4C544 264.572 543.328 263.9 542.5 263.9C541.672 263.9 541 264.572 541 265.4C541 266.228 541.672 266.9 542.5 266.9Z" fill="#CCCDD0"/>
<path d="M542.5 271.9C543.328 271.9 544 271.228 544 270.4C544 269.572 543.328 268.9 542.5 268.9C541.672 268.9 541 269.572 541 270.4C541 271.228 541.672 271.9 542.5 271.9Z" fill="#CCCDD0"/>
<path d="M547.5 251.9C548.328 251.9 549 251.228 549 250.4C549 249.572 548.328 248.9 547.5 248.9C546.672 248.9 546 249.572 546 250.4C546 251.228 546.672 251.9 547.5 251.9Z" fill="#CCCDD0"/>
<path d="M547.5 256.9C548.328 256.9 549 256.228 549 255.4C549 254.572 548.328 253.9 547.5 253.9C546.672 253.9 546 254.572 546 255.4C546 256.228 546.672 256.9 547.5 256.9Z" fill="#CCCDD0"/>
<path d="M547.5 261.9C548.328 261.9 549 261.228 549 260.4C549 259.572 548.328 258.9 547.5 258.9C546.672 258.9 546 259.572 546 260.4C546 261.228 546.672 261.9 547.5 261.9Z" fill="#CCCDD0"/>
<path d="M547.5 266.9C548.328 266.9 549 266.228 549 265.4C549 264.572 548.328 263.9 547.5 263.9C546.672 263.9 546 264.572 546 265.4C546 266.228 546.672 266.9 547.5 266.9Z" fill="#CCCDD0"/>
<path d="M547.5 271.9C548.328 271.9 549 271.228 549 270.4C549 269.572 548.328 268.9 547.5 268.9C546.672 268.9 546 269.572 546 270.4C546 271.228 546.672 271.9 547.5 271.9Z" fill="#CCCDD0"/>
<path d="M552.5 251.9C553.328 251.9 554 251.228 554 250.4C554 249.572 553.328 248.9 552.5 248.9C551.672 248.9 551 249.572 551 250.4C551 251.228 551.672 251.9 552.5 251.9Z" fill="#CCCDD0"/>
<path d="M552.5 256.9C553.328 256.9 554 256.228 554 255.4C554 254.572 553.328 253.9 552.5 253.9C551.672 253.9 551 254.572 551 255.4C551 256.228 551.672 256.9 552.5 256.9Z" fill="#CCCDD0"/>
<path d="M552.5 261.9C553.328 261.9 554 261.228 554 260.4C554 259.572 553.328 258.9 552.5 258.9C551.672 258.9 551 259.572 551 260.4C551 261.228 551.672 261.9 552.5 261.9Z" fill="#CCCDD0"/>
<path d="M552.5 266.9C553.328 266.9 554 266.228 554 265.4C554 264.572 553.328 263.9 552.5 263.9C551.672 263.9 551 264.572 551 265.4C551 266.228 551.672 266.9 552.5 266.9Z" fill="#CCCDD0"/>
<path d="M552.5 271.9C553.328 271.9 554 271.228 554 270.4C554 269.572 553.328 268.9 552.5 268.9C551.672 268.9 551 269.572 551 270.4C551 271.228 551.672 271.9 552.5 271.9Z" fill="#CCCDD0"/>
<path d="M532.5 276.9C533.328 276.9 534 276.228 534 275.4C534 274.572 533.328 273.9 532.5 273.9C531.672 273.9 531 274.572 531 275.4C531 276.228 531.672 276.9 532.5 276.9Z" fill="#CCCDD0"/>
<path d="M532.5 281.9C533.328 281.9 534 281.228 534 280.4C534 279.572 533.328 278.9 532.5 278.9C531.672 278.9 531 279.572 531 280.4C531 281.228 531.672 281.9 532.5 281.9Z" fill="#CCCDD0"/>
<path d="M532.5 286.9C533.328 286.9 534 286.228 534 285.4C534 284.572 533.328 283.9 532.5 283.9C531.672 283.9 531 284.572 531 285.4C531 286.228 531.672 286.9 532.5 286.9Z" fill="#CCCDD0"/>
<path d="M532.5 291.9C533.328 291.9 534 291.228 534 290.4C534 289.572 533.328 288.9 532.5 288.9C531.672 288.9 531 289.572 531 290.4C531 291.228 531.672 291.9 532.5 291.9Z" fill="#CCCDD0"/>
<path d="M532.5 296.9C533.328 296.9 534 296.228 534 295.4C534 294.572 533.328 293.9 532.5 293.9C531.672 293.9 531 294.572 531 295.4C531 296.228 531.672 296.9 532.5 296.9Z" fill="#CCCDD0"/>
<path d="M537.5 276.9C538.328 276.9 539 276.228 539 275.4C539 274.572 538.328 273.9 537.5 273.9C536.672 273.9 536 274.572 536 275.4C536 276.228 536.672 276.9 537.5 276.9Z" fill="#CCCDD0"/>
<path d="M537.5 281.9C538.328 281.9 539 281.228 539 280.4C539 279.572 538.328 278.9 537.5 278.9C536.672 278.9 536 279.572 536 280.4C536 281.228 536.672 281.9 537.5 281.9Z" fill="#CCCDD0"/>
<path d="M537.5 286.9C538.328 286.9 539 286.228 539 285.4C539 284.572 538.328 283.9 537.5 283.9C536.672 283.9 536 284.572 536 285.4C536 286.228 536.672 286.9 537.5 286.9Z" fill="#CCCDD0"/>
<path d="M537.5 291.9C538.328 291.9 539 291.228 539 290.4C539 289.572 538.328 288.9 537.5 288.9C536.672 288.9 536 289.572 536 290.4C536 291.228 536.672 291.9 537.5 291.9Z" fill="#CCCDD0"/>
<path d="M537.5 296.9C538.328 296.9 539 296.228 539 295.4C539 294.572 538.328 293.9 537.5 293.9C536.672 293.9 536 294.572 536 295.4C536 296.228 536.672 296.9 537.5 296.9Z" fill="#CCCDD0"/>
<path d="M542.5 276.9C543.328 276.9 544 276.228 544 275.4C544 274.572 543.328 273.9 542.5 273.9C541.672 273.9 541 274.572 541 275.4C541 276.228 541.672 276.9 542.5 276.9Z" fill="#CCCDD0"/>
<path d="M542.5 281.9C543.328 281.9 544 281.228 544 280.4C544 279.572 543.328 278.9 542.5 278.9C541.672 278.9 541 279.572 541 280.4C541 281.228 541.672 281.9 542.5 281.9Z" fill="#CCCDD0"/>
<path d="M542.5 286.9C543.328 286.9 544 286.228 544 285.4C544 284.572 543.328 283.9 542.5 283.9C541.672 283.9 541 284.572 541 285.4C541 286.228 541.672 286.9 542.5 286.9Z" fill="#CCCDD0"/>
<path d="M542.5 291.9C543.328 291.9 544 291.228 544 290.4C544 289.572 543.328 288.9 542.5 288.9C541.672 288.9 541 289.572 541 290.4C541 291.228 541.672 291.9 542.5 291.9Z" fill="#CCCDD0"/>
<path d="M542.5 296.9C543.328 296.9 544 296.228 544 295.4C544 294.572 543.328 293.9 542.5 293.9C541.672 293.9 541 294.572 541 295.4C541 296.228 541.672 296.9 542.5 296.9Z" fill="#CCCDD0"/>
<path d="M547.5 276.9C548.328 276.9 549 276.228 549 275.4C549 274.572 548.328 273.9 547.5 273.9C546.672 273.9 546 274.572 546 275.4C546 276.228 546.672 276.9 547.5 276.9Z" fill="#CCCDD0"/>
<path d="M547.5 281.9C548.328 281.9 549 281.228 549 280.4C549 279.572 548.328 278.9 547.5 278.9C546.672 278.9 546 279.572 546 280.4C546 281.228 546.672 281.9 547.5 281.9Z" fill="#CCCDD0"/>
<path d="M547.5 286.9C548.328 286.9 549 286.228 549 285.4C549 284.572 548.328 283.9 547.5 283.9C546.672 283.9 546 284.572 546 285.4C546 286.228 546.672 286.9 547.5 286.9Z" fill="#CCCDD0"/>
<path d="M547.5 291.9C548.328 291.9 549 291.228 549 290.4C549 289.572 548.328 288.9 547.5 288.9C546.672 288.9 546 289.572 546 290.4C546 291.228 546.672 291.9 547.5 291.9Z" fill="#CCCDD0"/>
<path d="M547.5 296.9C548.328 296.9 549 296.228 549 295.4C549 294.572 548.328 293.9 547.5 293.9C546.672 293.9 546 294.572 546 295.4C546 296.228 546.672 296.9 547.5 296.9Z" fill="#CCCDD0"/>
<path d="M552.5 276.9C553.328 276.9 554 276.228 554 275.4C554 274.572 553.328 273.9 552.5 273.9C551.672 273.9 551 274.572 551 275.4C551 276.228 551.672 276.9 552.5 276.9Z" fill="#CCCDD0"/>
<path d="M552.5 281.9C553.328 281.9 554 281.228 554 280.4C554 279.572 553.328 278.9 552.5 278.9C551.672 278.9 551 279.572 551 280.4C551 281.228 551.672 281.9 552.5 281.9Z" fill="#CCCDD0"/>
<path d="M552.5 286.9C553.328 286.9 554 286.228 554 285.4C554 284.572 553.328 283.9 552.5 283.9C551.672 283.9 551 284.572 551 285.4C551 286.228 551.672 286.9 552.5 286.9Z" fill="#CCCDD0"/>
<path d="M552.5 291.9C553.328 291.9 554 291.228 554 290.4C554 289.572 553.328 288.9 552.5 288.9C551.672 288.9 551 289.572 551 290.4C551 291.228 551.672 291.9 552.5 291.9Z" fill="#CCCDD0"/>
<path d="M552.5 296.9C553.328 296.9 554 296.228 554 295.4C554 294.572 553.328 293.9 552.5 293.9C551.672 293.9 551 294.572 551 295.4C551 296.228 551.672 296.9 552.5 296.9Z" fill="#CCCDD0"/>
<path d="M490.9 237.7C490.4 237.4 489.6 237.5 488.8 237.9C487.2 238.8 485.9 241.1 485.9 242.9C485.9 243.8 486.2 244.5 486.8 244.8L503.3 254.3L507.4 247.2L490.9 237.7Z" fill="#34C2C8"/>
<path d="M507.308 251.972C508.451 250.017 508.45 247.89 507.305 247.221C506.161 246.553 504.307 247.595 503.164 249.55C502.021 251.505 502.023 253.632 503.167 254.301C504.311 254.97 506.165 253.927 507.308 251.972Z" fill="#91FAEB"/>
<path d="M34 170.9H27V177.9H34V170.9Z" fill="#CCCDD0"/>
<path d="M39 165.9H36V168.9H39V165.9Z" fill="#B3B5B9"/>
<path d="M527.3 203.4L524 199.1L521.7 199.6L523.9 202.3L517.6 203.5L518.8 200.3L516.3 200.8L514.4 206.1C514.3 206.4 514.5 206.7 514.8 206.6L527.2 204C527.4 204 527.5 203.7 527.3 203.4Z" fill="#B3B5B9"/>
<path d="M519.6 193.5C519.4 193.3 519.1 193.3 519 193.6L517 199L522.9 197.7L519.6 193.5Z" fill="#B3B5B9"/>
<path d="M519.3 385L504.6 376.5C499.8 373.7 499.5 369.4 503.9 366.9C508.3 364.3 508 360 503.2 357.3L464 334.6C448 325.4 448 306.9 448 306.9L352 362.3C352 362.3 352 380.8 368 390L455.3 440.4C460.1 443.2 467.5 443.4 471.8 440.8C476.2 438.3 475.8 434 471 431.2L456.3 422.7C451.5 419.9 451.3 415.6 455.8 413C460.3 410.4 467.5 410.4 471.9 412.9C476.3 415.4 483.5 415.5 487.9 412.9C492.3 410.3 492 406 487.2 403.3L472.5 394.8C467.7 392 467.4 387.7 471.8 385.2C476.2 382.6 483.7 382.8 488.5 385.6L503.2 394.1C508 396.9 515.4 397 519.9 394.5C524.4 392 524.1 387.7 519.3 385Z" fill="white"/>
<path d="M444.4 70.9L428.3 61.6C428.2 61.6 428.2 61.5 428.1 61.5C426.4 60.6 422.4 59.9 422.4 59.9C422.4 59.9 416.3 61 413.2 62.8L351.8 98.2C341.4 104.2 333 118.8 332 130.8V362H333V377.7C333 382.2 334.1 386 336.3 388.7C336.9 389.4 337.5 390 338.2 390.6C338.9 391.1 339.6 391.6 340.4 392L355.5 400.5L368.7 382.5L416.2 355.2C426.6 349.2 435 334.6 435 322.6L436 268.9V263.7H435V100L443.2 97.8C444.5 97.5 445.4 96.3 445.4 95L445.9 73.5C445.9 72.4 445.4 71.4 444.4 70.9Z" fill="url(#paint0_linear)"/>
<path d="M361.5 400.4C358.2 400.4 355.4 399.1 353.4 396.6C351.4 394.1 350.4 390.7 350.4 386.5V331.7L449.4 274.9L449.6 331.2C449.6 342.7 441.5 356.7 431.6 362.5L370 397.9C367.1 399.6 364.2 400.4 361.5 400.4Z" fill="#333943"/>
<path d="M447.9 277.6L448.1 331.3C448.1 342.3 440.4 355.8 430.8 361.3L369.3 396.7C366.5 398.3 363.9 399 361.6 399C355.9 399 352 394.5 352 386.6V332.7L447.9 277.6ZM450.9 272.4L446.4 275L350.4 330.1L348.9 331V332.7V386.6C348.9 391.1 350 394.9 352.2 397.6C354.5 400.4 357.8 402 361.5 402C364.4 402 367.5 401.1 370.7 399.3L432.2 363.9C442.8 357.8 451 343.5 451 331.3L450.8 277.6L450.9 272.4Z" fill="#333943"/>
<path d="M438.4 72.3C444.1 72.3 448 76.8 448 84.7V323.4L352 350.9V140.1C352 129.1 359.8 115.6 369.3 110.1L430.7 74.7C433.5 73.1 436.1 72.3 438.4 72.3ZM438.4 68.9C435.5 68.9 432.3 69.8 429.2 71.7L367.8 107.1C357.4 113.1 349 127.7 349 139.7V350.4V354.4L352.8 353.3L448.8 325.8L451 325.2V322.9V84.3C451 75.1 445.9 68.9 438.4 68.9Z" fill="#333943"/>
<path d="M448 304.8V84.7C448 73.7 440.2 69.2 430.7 74.7L369.3 110.1C359.8 115.6 352 129.1 352 140.1V360.3C352 360.3 352 378.8 368 388L464 332.6C448 323.3 448 304.8 448 304.8Z" fill="url(#paint1_linear)"/>
<path d="M416.7 94.9L386.9 112.1C381.1 115.4 376.5 111.9 376.5 104.2L427.1 75C427.1 82.6 422.4 91.5 416.7 94.9Z" fill="#333943"/>
<path d="M407.8 94.9L391.5 104.3C390.5 104.9 389.8 104.7 389.8 104C389.8 103.3 390.6 102.3 391.5 101.7L407.8 92.3C408.8 91.7 409.5 91.9 409.5 92.6C409.5 93.3 408.7 94.3 407.8 94.9Z" fill="#4D525B"/>
<path d="M413.562 91.1684C414.008 90.4055 414.021 89.5837 413.592 89.3329C413.163 89.082 412.454 89.4971 412.008 90.2599C411.562 91.0228 411.548 91.8446 411.977 92.0954C412.406 92.3463 413.116 91.9312 413.562 91.1684Z" fill="#FF757A"/>
<path d="M471.9 438.9C476.3 436.4 475.9 432.1 471.1 429.3L456.4 420.8C451.6 418 451.4 413.7 455.9 411.1C460.4 408.5 467.6 408.5 472 411C476.4 413.5 483.6 413.6 488 411C492.4 408.4 492.1 404.1 487.3 401.4L472.6 392.9C467.8 390.1 467.5 385.8 471.9 383.3C476.3 380.7 483.8 380.9 488.6 383.7L503.3 392.2C508.1 395 515.5 395.1 520 392.6C524.4 390 524.1 385.7 519.3 383L504.6 374.5C499.8 371.7 499.5 367.4 503.9 364.9C508.3 362.4 508 358 503.2 355.3L464 332.6L368 388L455.3 438.4C460.1 441.2 467.5 441.4 471.9 438.9Z" fill="#FAFAFA"/>
<path d="M471.9 438.9C476.3 436.4 475.9 432.1 471.1 429.3L456.4 420.8C451.6 418 451.4 413.7 455.9 411.1C460.4 408.5 467.6 408.5 472 411C476.4 413.5 483.6 413.6 488 411C492.4 408.4 492.1 404.1 487.3 401.4L472.6 392.9C467.8 390.1 467.5 385.8 471.9 383.3C476.3 380.7 483.8 380.9 488.6 383.7L503.3 392.2C508.1 395 515.5 395.1 520 392.6C524.4 390 524.1 385.7 519.3 383L504.6 374.5C499.8 371.7 499.5 367.4 503.9 364.9C508.3 362.4 508 358 503.2 355.3L464 332.6L368 388L455.3 438.4C460.1 441.2 467.5 441.4 471.9 438.9Z" fill="url(#paint2_linear)"/>
<path d="M493.4 371L434.4 405.1C433 405.9 433 407.3 434.4 408.1L456.5 420.8C451.7 418 451.5 413.7 456 411.1C460.5 408.5 467.7 408.5 472.1 411C476.5 413.5 483.7 413.6 488.1 411C492.5 408.4 492.2 404.1 487.4 401.4L472.7 392.9C467.9 390.1 467.6 385.8 472 383.3C476.4 380.7 483.9 380.9 488.7 383.7L503.4 392.2C508.2 395 515.6 395.1 520.1 392.6C524.5 390 524.2 385.7 519.4 383L498.7 371C497.2 370.2 494.8 370.2 493.4 371Z" fill="#E6E7E8"/>
<path d="M369.7 331.6L430.2 296.6C431.2 296 431.9 296.5 431.9 297.6V314.1L367.9 351.1V334.6C368 333.4 368.8 332.1 369.7 331.6Z" fill="#999CA1"/>
<path d="M368 351C368 351 368 369.7 383.8 378.8L448.1 341.7C432.1 332.5 432.1 314 432.1 314L368 351Z" fill="#999CA1"/>
<path d="M414 396.4C415 397 416.5 397 417.5 396.4L478.3 361.3C479.3 360.7 479.3 359.9 478.3 359.3L448 341.8L383.7 378.9L414 396.4Z" fill="#E6E7E8"/>
<path d="M437.7 354.3L405.7 372.8L404 371.8L436 353.3L437.7 354.3Z" fill="#999CA1"/>
<path d="M409.1 374.8L441.1 356.3L442.9 357.3L410.8 375.8" fill="#999CA1"/>
<path d="M432.5 369.2L416 378.7L414.3 377.7L430.7 368.2L432.5 369.2Z" fill="#999CA1"/>
<path d="M402.8 340.9L385.5 350.8L385.1 349.1L402.3 339.2L402.8 340.9Z" fill="#666A72"/>
<path d="M417.6 332.4L411.7 335.8L411.3 334L417.1 330.7L417.6 332.4Z" fill="#666A72"/>
<path d="M408.8 337.5L405.6 339.3L405.1 337.6L408.3 335.8L408.8 337.5Z" fill="#666A72"/>
<path d="M407.1 330.5L384 343.8V341.8L407.1 328.5V330.5Z" fill="#666A72"/>
<path d="M410.1 344.7L388.2 357.4L387.4 355.8L409.4 343.1L410.1 344.7Z" fill="#666A72"/>
<path d="M368 141.3V155.8C368 156.9 368.8 157.4 369.7 156.8L382.2 149.6C383.2 149 383.9 147.7 383.9 146.6V132.1C383.9 131 383.1 130.5 382.2 131.1L369.7 138.3C368.8 138.9 368 140.2 368 141.3Z" fill="#666A72"/>
<path d="M384 132.1C384 131.5 383.8 131.2 383.5 131L368.5 157C368.8 157.2 369.2 157.2 369.7 156.9L382.2 149.7C383.2 149.1 383.9 147.8 383.9 146.7L384 132.1Z" fill="#80838A"/>
<path d="M421.8 112.6C421.8 113.1 422.2 113.4 422.7 113.1L431.4 108.1C431.9 107.8 432.3 107.2 432.3 106.6C432.3 106.1 431.9 105.8 431.4 106.1L422.7 111.1C422.2 111.4 421.8 112.1 421.8 112.6Z" fill="#80838A"/>
<path d="M421.8 116.6C421.8 117.1 422.2 117.4 422.7 117.1L431.4 112.1C431.9 111.8 432.3 111.2 432.3 110.6C432.3 110.1 431.9 109.8 431.4 110.1L422.7 115.1C422.2 115.4 421.8 116 421.8 116.6Z" fill="#80838A"/>
<path d="M421.8 120.6C421.8 121.1 422.2 121.4 422.7 121.1L431.4 116.1C431.9 115.8 432.3 115.2 432.3 114.6C432.3 114.1 431.9 113.8 431.4 114.1L422.7 119.1C422.2 119.3 421.8 120 421.8 120.6Z" fill="#80838A"/>
<path d="M430.3 139.7L369.8 174.5C368.8 175.1 368.1 176.2 368.1 177C368.1 177.8 368.9 178 369.8 177.5L430.3 142.7C431.3 142.1 432 141 432 140.2C432 139.4 431.2 139.2 430.3 139.7Z" fill="#80838A"/>
<path d="M417.5 153.7L369.7 181.2C368.7 181.8 368 182.9 368 183.7C368 184.5 368.8 184.7 369.7 184.2L417.5 156.7C418.5 156.1 419.2 155 419.2 154.2C419.2 153.4 418.5 153.1 417.5 153.7Z" fill="#80838A"/>
<path d="M430.3 241.3L369.8 276.1C368.8 276.7 368.1 277.8 368.1 278.6C368.1 279.4 368.9 279.6 369.8 279.1L430.3 244.3C431.3 243.7 432 242.6 432 241.8C432 241 431.2 240.8 430.3 241.3Z" fill="#80838A"/>
<path d="M430.3 248L369.8 282.8C368.8 283.4 368.1 284.5 368.1 285.3C368.1 286.1 368.9 286.3 369.8 285.8L430.3 251C431.3 250.4 432 249.3 432 248.5C432 247.7 431.2 247.4 430.3 248Z" fill="#80838A"/>
<path d="M391.4 303.6L369.7 316.1C368.7 316.7 368 316.4 368 315.6C368 314.8 368.8 313.7 369.7 313.1L391.4 300.6C392.4 300 393.1 300.3 393.1 301.1C393.1 301.9 392.3 303 391.4 303.6Z" fill="#80838A"/>
<path d="M397.938 299.376C398.44 298.518 398.422 297.573 397.897 297.267C397.373 296.96 396.541 297.407 396.039 298.266C395.537 299.124 395.556 300.068 396.08 300.375C396.605 300.681 397.437 300.234 397.938 299.376Z" fill="#80838A"/>
<path d="M464 332.6C448 323.4 448 304.9 448 304.9L352 360.3C352 360.3 352 378.8 368 388L464 332.6Z" fill="url(#paint3_linear)"/>
<path d="M432 166.3L464 184.8L400 221.7L368 203.2L432 166.3Z" fill="#2668EF"/>
<path d="M400 277.1V221.7L464 184.8V240.2L400 277.1Z" fill="url(#paint4_linear)"/>
<path d="M368 203.2V258.7L400 277.1V221.7L368 203.2Z" fill="url(#paint5_linear)"/>
<path d="M427.4 245C426.3 245 425.2 244.7 424.2 244.2C422 242.9 420.7 240.3 420.7 236.8C420.7 230 425.5 221.8 431.4 218.4C434.5 216.6 437.4 216.4 439.6 217.7C441.8 219 443.1 221.6 443.1 225.1C443.1 231.9 438.3 240.1 432.4 243.5C430.7 244.5 429 245 427.4 245ZM432.5 220.1C427.2 223.2 422.8 230.7 422.8 236.8C422.8 239.5 423.7 241.6 425.3 242.5C426.9 243.4 429.1 243.2 431.5 241.8C436.8 238.7 441.2 231.2 441.2 225.1C441.2 222.4 440.3 220.3 438.7 219.4C437.1 218.5 434.9 218.7 432.5 220.1Z" fill="#D3E0F2"/>
<path d="M429.3 228.9C429.3 228.3 429.8 227.8 430.3 227.8L435.8 228.2C436.2 228.3 436.3 228.7 435.8 229.3L430.3 236.1C429.8 236.7 429.3 236.8 429.3 236.2V228.9Z" fill="#D3E0F2"/>
<path d="M491.26 426.981C491.279 423.391 486.236 420.453 479.995 420.42C473.754 420.386 468.679 423.268 468.66 426.858C468.64 430.448 473.684 433.386 479.924 433.42C486.165 433.453 491.24 430.571 491.26 426.981Z" fill="white"/>
<path d="M491.26 424.981C491.279 421.391 486.236 418.453 479.995 418.42C473.754 418.386 468.679 421.268 468.66 424.858C468.64 428.448 473.684 431.386 479.924 431.42C486.165 431.453 491.24 428.571 491.26 424.981Z" fill="#E6E7E8"/>
<path d="M523.291 426.969C523.31 423.379 518.267 420.442 512.026 420.408C505.785 420.374 500.71 423.257 500.691 426.847C500.671 430.437 505.715 433.374 511.956 433.408C518.196 433.442 523.271 430.559 523.291 426.969Z" fill="white"/>
<path d="M523.291 424.969C523.31 421.379 518.267 418.442 512.026 418.408C505.785 418.374 500.71 421.257 500.691 424.847C500.671 428.437 505.715 431.374 511.956 431.408C518.196 431.442 523.271 428.559 523.291 424.969Z" fill="#E6E7E8"/>
<path d="M539.304 399.245C539.323 395.655 534.28 392.718 528.039 392.684C521.798 392.65 516.723 395.533 516.704 399.123C516.684 402.712 521.728 405.65 527.969 405.684C534.21 405.718 539.284 402.835 539.304 399.245Z" fill="white"/>
<path d="M539.304 397.245C539.323 393.655 534.28 390.718 528.039 390.684C521.798 390.65 516.723 393.533 516.704 397.123C516.684 400.712 521.728 403.65 527.969 403.684C534.21 403.718 539.284 400.835 539.304 397.245Z" fill="#E6E7E8"/>
<path d="M336 415.7L352 406.5L336 397.2L320 406.3L336 415.7Z" fill="#F2F2F3"/>
<path d="M336 452.6V415.7L352 406.5V452.6H336Z" fill="url(#paint6_linear)"/>
<path d="M288 388L336 415.7V452.6H288V388Z" fill="url(#paint7_linear)"/>
<path d="M112 267.9V56.2C112 50.7 115.9 48.4 120.7 51.2L343.4 179.8C348.2 182.6 352.1 189.3 352.1 194.8V406.5L112 267.9Z" fill="#F2F2F3"/>
<path d="M336 203.9L352 194.7V406.5L336 415.7V203.9Z" fill="url(#paint8_linear)"/>
<path d="M100.8 58.2L116.7 48.9L343.3 179.7L327.3 189L105.1 60.6H97.6001L100.8 58.2Z" fill="#F2F2F3"/>
<path d="M96 277.1V65.4C96 59.9 99.9 57.6 104.7 60.4L327.3 189C332.1 191.8 336 198.5 336 204V415.7L96 277.1Z" fill="#E6E7E8"/>
<path d="M118.157 89.6558C119.492 88.8753 119.467 86.3487 118.101 84.0125C116.735 81.6762 114.546 80.415 113.211 81.1955C111.876 81.9759 111.901 84.5025 113.267 86.8388C114.633 89.175 116.822 90.4363 118.157 89.6558Z" fill="#FA6058"/>
<path d="M129.451 96.1346C130.786 95.3542 130.761 92.8276 129.396 90.4913C128.03 88.155 125.84 86.8938 124.505 87.6743C123.17 88.4548 123.195 90.9814 124.561 93.3176C125.927 95.6539 128.116 96.9151 129.451 96.1346Z" fill="#FCBD2E"/>
<path d="M140.746 102.613C142.081 101.833 142.056 99.3064 140.69 96.9701C139.324 94.6339 137.135 93.3727 135.8 94.1531C134.465 94.9336 134.49 97.4602 135.856 99.7965C137.221 102.133 139.411 103.394 140.746 102.613Z" fill="#30CA41"/>
<path d="M322 212.2C322 206.7 318.4 200.1 314 197.6C310.3 195.4 307.1 196.6 306.3 200.1C304.9 201 304 202.7 304 205.2C304 206 303.9 206.7 303.7 207.3C302.2 208.2 300.2 208.1 298 206.8C293.6 204.2 290 197.7 290 192.2V138.3C290 132.8 286.4 126.2 282 123.7C278.4 121.6 275.4 122.8 274.4 126.4C272.9 127.4 272.1 129.4 272.1 132.1V186C272.1 187 272 187.9 271.8 188.7C270.4 189.7 268.4 189.6 266.1 188.4C261.7 185.8 258.1 179.6 258.1 174.6C258.1 169.5 254.5 163.3 250.1 160.8C246.4 158.6 243.2 159.8 242.3 163.3C240.9 164.2 240.1 165.9 240.1 168.4C240.1 169.2 240 169.9 239.9 170.5C238.4 171.4 236.4 171.3 234.2 170C229.8 167.5 226.2 163.4 226.2 160.9C226.2 158.4 222.6 153.6 218.2 151.1C213.8 148.5 210.2 149.3 210.2 151.7C210.2 152.1 210.1 152.4 209.9 152.6C209.4 152.7 209 153 208.7 153.3C207.1 153.6 204.5 152.8 201.5 151.1L86.4998 84.7C83.9998 83.3 81.9998 84.4 81.9998 87.1C80.7998 87.3 79.9998 88.4 79.9998 90.2V270C79.9998 270 79.9998 278.4 75.0998 286.7C72.8998 289.7 69.8998 292.5 65.9998 294.7L10.6998 326.7C8.59978 327.9 7.39978 329.4 6.99978 330.9C3.89978 333.6 4.19978 337.1 7.99978 339.3C12.3998 341.9 19.5998 341.9 23.9998 339.3C28.3998 336.7 35.5998 336.7 39.9998 339.3C42.4998 340.7 43.4998 342.8 42.9998 344.7C42.4998 345.1 41.9998 345.5 41.2998 345.9L10.5998 363.6C8.49978 364.8 7.29978 366.3 6.89978 367.8C3.79978 370.5 4.09978 374 7.89978 376.2C12.2998 378.8 19.4998 378.8 23.8998 376.2C28.2998 373.6 35.4998 373.6 39.8998 376.2C42.3998 377.6 43.3998 379.7 42.8998 381.6C42.3998 382 41.8998 382.4 41.1998 382.8L26.4998 391.3C24.3998 392.5 23.1998 394 22.7998 395.5C19.6998 398.2 19.9998 401.7 23.7998 403.9C28.1998 406.5 35.6998 406.3 40.4998 403.5L71.1998 385.8C75.9998 383 83.3998 382.9 87.8998 385.4C90.3998 386.8 91.3998 388.9 90.8998 390.8C90.3998 391.2 89.8998 391.6 89.1998 392L74.4998 400.5C72.3998 401.7 71.1998 403.2 70.7998 404.7C67.6998 407.4 67.9998 410.9 71.7998 413.1C76.1998 415.7 83.6998 415.5 88.4998 412.7L94.7998 409.1C99.5998 406.3 107 406.2 111.5 408.7C114.1 410.2 115.1 412.4 114.4 414.4L106.6 418.9C104.5 420.1 103.3 421.6 102.9 423.1C99.7998 425.8 100.1 429.3 103.9 431.5C108.3 434.1 115.8 433.9 120.6 431.1L151.3 413.4C156.1 410.6 163.5 410.5 168 413C170.5 414.5 171.6 416.5 171.2 418.4C170.8 418.7 170.4 419 170 419.2C168.1 420.3 167.1 421.6 166.8 423C163.7 425.6 164.1 429.1 168 431.4C172.4 434 179.9 433.8 184.7 431L199.4 422.5C204.2 419.7 211.6 419.6 216.1 422.1C218.6 423.6 219.7 425.6 219.3 427.5C218.9 427.8 218.5 428.1 218.1 428.3C216.2 429.4 215.2 430.7 214.9 432.1C211.8 434.7 212.2 438.2 216.1 440.5C220.5 443.1 228 442.9 232.8 440.1L247.5 431.6C252.3 428.8 259.7 428.7 264.2 431.2C266.7 432.7 267.8 434.7 267.4 436.6C267 436.9 266.6 437.2 266.2 437.4C264.3 438.5 263.3 439.8 263 441.2C259.9 443.8 260.3 447.3 264.2 449.6C268.6 452.2 276.1 452 280.9 449.2L295.6 440.7C300.4 437.9 308.3 433.6 312 429.5C313.5 427.8 314.8 426.1 315.8 424.3C322.2 415.7 322.3 406.5 322.3 406.5V212.2H322Z" fill="white"/>
<path d="M208 152.6C208 150.1 211.6 149.4 216 152C220.4 154.6 224 159.4 224 161.8C224 164.3 227.6 168.3 232 170.9C236.4 173.4 240 171.4 240 166.3C240 161.2 243.6 159.2 248 161.7C252.4 164.3 256 170.4 256 175.5C256 180.6 259.6 186.8 264 189.3C268.4 191.9 272 189.4 272 183.9V130C272 124.5 275.6 122.1 280 124.6C284.4 127.1 288 133.7 288 139.2V193.1C288 198.6 291.6 205.2 296 207.7C300.4 210.3 304 208.2 304 203.1C304 198 307.6 195.9 312 198.5C316.4 201.1 320 207.6 320 213.1V407.8C320 407.8 320 418.7 311.8 427.8C308.1 431.9 300.2 436.3 295.4 439L280.7 447.5C275.9 450.3 268.5 450.4 264 447.9C259.5 445.4 259.6 441.2 264 438.7C268.4 436.1 268.4 432 264 429.5C259.6 426.9 252.1 427.1 247.3 429.9L232.6 438.4C227.8 441.2 220.4 441.3 215.9 438.8C211.5 436.2 211.5 432.1 215.9 429.6C220.3 427 220.3 422.9 215.9 420.4C211.5 417.8 204 418 199.2 420.8L184.5 429.3C179.7 432.1 172.3 432.2 167.8 429.7C163.4 427.1 163.4 423 167.8 420.5C172.2 417.9 172.2 413.8 167.8 411.3C163.4 408.8 155.9 408.9 151.1 411.7L120.4 429.4C115.6 432.2 108.2 432.3 103.7 429.8C99.2999 427.2 99.5999 422.9 104.4 420.2L111.2 417.1C116 414.3 116.3 410 111.9 407.5C107.5 404.9 99.9999 405.1 95.1999 407.9L88.3999 411C83.5999 413.8 76.1999 413.9 71.6999 411.4C67.1999 408.9 67.5999 404.5 72.3999 401.8L87.0999 393.3C91.8999 390.5 92.1999 386.2 87.7999 383.7C83.3999 381.1 75.8999 381.3 71.0999 384.1L40.3999 401.8C35.5999 404.6 28.1999 404.7 23.6999 402.2C19.1999 399.7 19.5999 395.3 24.3999 392.6L39.0999 384.1C43.8999 381.3 44.1999 377 39.7999 374.5C35.3999 371.9 28.1999 371.9 23.7999 374.5C19.3999 377.1 12.1999 377.1 7.79988 374.5C3.39988 371.9 3.69988 367.6 8.49988 364.9L39.1999 347.2C43.9999 344.4 44.2999 340.1 39.8999 337.6C35.4999 335 28.2999 335 23.8999 337.6C19.4999 340.2 12.2999 340.2 7.89988 337.6C3.49988 335 3.79988 330.7 8.59988 328L63.8999 296C79.8999 286.8 79.8999 268.3 79.8999 268.3V88.1C79.8999 85.3 81.7999 84.2 84.1999 85.6L199.2 152C204.1 154.8 208 155 208 152.6Z" fill="url(#paint9_linear)"/>
<path d="M39.2998 346.8L8.69983 364.5C3.89983 367.3 3.59983 371.6 7.99983 374.1C12.3998 376.7 19.5998 376.7 23.9998 374.1C28.3998 371.5 35.5998 371.5 39.9998 374.1C44.3998 376.7 44.0998 381 39.2998 383.7L24.5998 392.2C19.7998 395 19.4998 399.3 23.8998 401.8C28.2998 404.3 35.7998 404.2 40.5998 401.4L71.2998 383.7C76.0998 380.9 83.4998 380.8 87.9998 383.3C92.3998 385.9 92.0998 390.2 87.2998 392.9L72.5998 401.4C67.7998 404.2 67.4998 408.5 71.8998 411C76.2998 413.5 83.7998 413.4 88.5998 410.6L95.3998 407.4C100.2 404.6 107.6 404.5 112.1 407C116.6 409.5 116.2 413.9 111.4 416.6L104.6 419.8C99.7998 422.6 99.4998 426.9 103.9 429.4C108.3 431.9 115.8 431.8 120.6 429L151.3 411.3C156.1 408.5 163.5 408.4 168 410.9C172.5 413.4 172.4 417.6 168 420.1C163.6 422.6 163.6 426.8 168 429.3C172.4 431.8 179.9 431.7 184.7 428.9L199.4 420.4C204.2 417.6 211.6 417.5 216.1 420C220.6 422.5 220.5 426.7 216.1 429.2C211.7 431.7 211.7 435.9 216.1 438.4C220.5 440.9 228 440.8 232.8 438L247.5 429.5C252.3 426.7 259.7 426.6 264.2 429.1C268.7 431.6 268.6 435.8 264.2 438.3C259.8 440.8 259.8 445 264.2 447.5C268.6 450 276.1 449.9 280.9 447.1L295.6 438.6C298 437.2 301.1 435.5 304.1 433.5L63.9998 295.6L8.69983 327.6C3.89983 330.4 3.59983 334.7 7.99983 337.2C12.3998 339.7 19.5998 339.8 23.9998 337.2C28.3998 334.6 35.5998 334.6 39.9998 337.2C44.3998 339.8 44.0998 344 39.2998 346.8Z" fill="white"/>
<path d="M241.7 342.8L302.2 377.8C303.2 378.4 303.9 379.7 303.9 380.8V397.3C303.9 397.3 303.9 415.8 287.9 425L271.9 434.2L207.9 397.2L223.9 388C240 378.7 239.9 360.3 239.9 360.3V343.8C240 342.7 240.8 342.2 241.7 342.8Z" fill="#CCCDD0"/>
<path d="M264 438.8L288 424.9L224 387.9L168 420.2C163.6 422.8 163.6 426.9 168 429.4C172.4 431.9 179.9 431.8 184.7 429L199.4 420.5C204.2 417.7 211.6 417.6 216.1 420.1C220.6 422.6 220.5 426.8 216.1 429.3C211.7 431.8 211.7 436 216.1 438.5C220.5 441 228 440.9 232.8 438.1L247.5 429.6C252.3 426.8 259.7 426.7 264.2 429.2C268.4 432.1 268.4 436.2 264 438.8Z" fill="#E6E7E8"/>
<path d="M230.3 411.5L217.4 404L219.1 403L232.1 410.5L230.3 411.5Z" fill="#999CA1"/>
<path d="M252 416.1L224.2 400.1L226 399.1L253.7 415.1L252 416.1Z" fill="#999CA1"/>
<path d="M265.8 424.1L253.7 417.1L255.4 416.1L267.5 423.1L265.8 424.1Z" fill="#999CA1"/>
<path d="M261.4 413.6L231.1 396.1L232.8 395.1L263.2 412.6L261.4 413.6Z" fill="#999CA1"/>
<path d="M278.9 415.7L237.5 391.6L239.3 390.6L280.6 414.7L278.9 415.7Z" fill="#80838A"/>
<path d="M290.5 395.6L262.8 379.6C261.8 379 261.1 377.9 261.1 377.1C261.1 376.3 261.9 376.1 262.8 376.6L290.5 392.6C291.5 393.2 292.2 394.3 292.2 395.1C292.2 396 291.4 396.2 290.5 395.6Z" fill="#80838A"/>
<path d="M273.8 393.7L260.3 386.1C259.8 385.8 259.4 385.2 259.4 384.6C259.4 384 259.8 383.8 260.3 384.1L273.8 391.7C274.3 392 274.7 392.6 274.7 393.2C274.6 393.7 274.3 393.9 273.8 393.7Z" fill="#80838A"/>
<path d="M256.56 378.829C257.895 378.048 257.87 375.522 256.504 373.186C255.138 370.849 252.949 369.588 251.614 370.369C250.279 371.149 250.304 373.676 251.67 376.012C253.036 378.348 255.225 379.609 256.56 378.829Z" fill="#80838A"/>
<path d="M158.3 405.5L33.6998 333.6C32.6998 333 31.1998 333 30.1998 333.6L23.8998 337.2C28.2998 334.6 35.4998 334.6 39.8998 337.2C44.2998 339.8 43.9998 344.1 39.1998 346.8L8.69983 364.5C3.89983 367.3 3.59983 371.6 7.99983 374.1C12.3998 376.7 19.5998 376.7 23.9998 374.1C28.3998 371.5 35.5998 371.5 39.9998 374.1C44.3998 376.7 44.0998 381 39.2998 383.7L31.9998 388L47.9998 397.2L71.2998 383.7C76.0998 380.9 83.4998 380.8 87.9998 383.3C92.3998 385.9 92.0998 390.2 87.2998 392.9L72.5998 401.4C67.7998 404.2 67.4998 408.5 71.8998 411C76.2998 413.6 83.7998 413.4 88.5998 410.6L95.3998 407.5C100.2 404.7 107.6 404.6 112.1 407.1C116.6 409.6 116.2 414 111.4 416.7L104.6 419.8C99.7998 422.6 99.4998 426.9 103.9 429.4C108.3 432 115.8 431.8 120.6 429L135.9 420.1L151.2 411.2L158.1 407.2C159.2 406.9 159.2 406 158.3 405.5Z" fill="#CCCDD0"/>
<path d="M128 406.5L79.9998 378.7L81.6998 377.8L129.7 405.5L128 406.5Z" fill="white"/>
<path d="M104.1 405.3L85.0999 394.3L83.3999 395.3L101.1 405.6C102.1 405.4 103.1 405.3 104.1 405.3Z" fill="white"/>
<path d="M114.8 413.5L115.3 413.8L117 412.8L115.3 411.8C115.2 412.4 115.1 412.9 114.8 413.5Z" fill="white"/>
<path d="M84.7998 398L81.6998 396.2L79.9998 397.2L83.0998 399L84.7998 398Z" fill="white"/>
<path d="M39.2998 383.7L31.9998 388L79.9998 360.3L33.6998 333.6C32.6998 333 31.1998 333 30.1998 333.6L23.8998 337.2C28.2998 334.6 35.4998 334.6 39.8998 337.2C44.2998 339.8 43.9998 344.1 39.1998 346.8L8.69983 364.5C3.89983 367.3 3.59983 371.6 7.99983 374.1C12.3998 376.7 19.5998 376.7 23.9998 374.1C28.3998 371.5 35.5998 371.5 39.9998 374.1C44.3998 376.7 44.0998 381 39.2998 383.7Z" fill="#B3B5B9"/>
<path d="M32.9998 358.9V350.4L31.5998 351.2L30.9998 351.5V358.8H18.2998L14.7998 360.8H30.9998V372.1C31.6998 372.1 32.2998 372.1 32.9998 372.1V360.8H78.8998L79.9998 360.1L77.6998 358.8H32.9998V358.9Z" fill="#CCCDD0"/>
<path d="M30.9998 335.3C31.6998 335.3 32.2998 335.3 32.9998 335.3V332.9H30.9998V335.3Z" fill="#CCCDD0"/>
<path d="M32.9999 387.4L32.0999 387.9H32.9999V387.4Z" fill="#CCCDD0"/>
<path d="M240.1 269.9V321.3C240.1 322.4 240.9 323.7 241.8 324.3L302.3 359.2C303.3 359.8 304 359.3 304 358.2V306.8C304 305.7 303.2 304.4 302.3 303.8L241.8 268.9C240.8 268.4 240.1 268.8 240.1 269.9Z" fill="#B3B5B9"/>
<path d="M304.3 358.9L273.6 314.7L303.8 306.1L303.2 304.2L272.4 312.9L241.4 268.3L239.7 269.4L270.3 313.5L240.3 322L240.8 324L271.5 315.2L302.7 360.1L304.3 358.9Z" fill="#E6E7E8"/>
<path d="M241.7 250.4L302.2 285.4C303.2 286 303.9 285.6 303.9 284.7C303.9 283.8 303.1 282.5 302.2 282L241.7 247C240.7 246.4 240 246.8 240 247.7C240 248.6 240.8 249.9 241.7 250.4Z" fill="#B3B5B9"/>
<path d="M97.6998 170.8L142.2 196.5C143.2 197.1 143.9 196.7 143.9 195.8C143.9 194.9 143.1 193.6 142.2 193.1L97.6998 167.4C96.6998 166.8 95.9998 167.2 95.9998 168.1C95.9998 169 96.7998 170.2 97.6998 170.8Z" fill="#999CA1"/>
<path d="M148.8 200.2L174.3 214.8C175.3 215.4 176 215 176 214.1C176 213.2 175.2 211.9 174.3 211.4L148.8 196.8C147.8 196.2 147.1 196.6 147.1 197.5C147.1 198.4 147.8 199.7 148.8 200.2Z" fill="#999CA1"/>
<path d="M208 152.6C208 150.1 211.6 149.4 216 152C220.4 154.6 224 159.4 224 161.8C224 164.3 227.6 168.3 232 170.9C236.4 173.4 240 171.4 240 166.3C240 161.2 243.6 159.2 248 161.7C252.4 164.3 256 170.4 256 175.5C256 180.6 259.6 186.8 264 189.3C268.4 191.9 272 189.4 272 183.9V130C272 124.5 275.6 122.1 280 124.6C284.4 127.1 288 133.7 288 139.2V193.1C288 198.6 291.6 205.2 296 207.7C300.4 210.3 304 208.2 304 203.1C304 198 307.6 195.9 312 198.5C316.4 201.1 320 207.6 320 213.1V407.8C320 407.8 320 418.7 311.8 427.8C308.1 431.9 300.2 436.3 295.4 439L280.7 447.5C275.9 450.3 268.5 450.4 264 447.9C259.5 445.4 259.6 441.2 264 438.7C268.4 436.1 268.4 432 264 429.5C259.6 426.9 252.1 427.1 247.3 429.9L232.6 438.4C227.8 441.2 220.4 441.3 215.9 438.8C211.5 436.2 211.5 432.1 215.9 429.6C220.3 427 220.3 422.9 215.9 420.4C211.5 417.8 204 418 199.2 420.8L184.5 429.3C179.7 432.1 172.3 432.2 167.8 429.7C163.4 427.1 163.4 423 167.8 420.5C172.2 417.9 172.2 413.8 167.8 411.3C163.4 408.8 155.9 408.9 151.1 411.7L120.4 429.4C115.6 432.2 108.2 432.3 103.7 429.8C99.2999 427.2 99.5999 422.9 104.4 420.2L111.2 417.1C116 414.3 116.3 410 111.9 407.5C107.5 404.9 99.9999 405.1 95.1999 407.9L88.3999 411C83.5999 413.8 76.1999 413.9 71.6999 411.4C67.1999 408.9 67.5999 404.5 72.3999 401.8L87.0999 393.3C91.8999 390.5 92.1999 386.2 87.7999 383.7C83.3999 381.1 75.8999 381.3 71.0999 384.1L40.3999 401.8C35.5999 404.6 28.1999 404.7 23.6999 402.2C19.1999 399.7 19.5999 395.3 24.3999 392.6L39.0999 384.1C43.8999 381.3 44.1999 377 39.7999 374.5C35.3999 371.9 28.1999 371.9 23.7999 374.5C19.3999 377.1 12.1999 377.1 7.79988 374.5C3.39988 371.9 3.69988 367.6 8.49988 364.9L39.1999 347.2C43.9999 344.4 44.2999 340.1 39.8999 337.6C35.4999 335 28.2999 335 23.8999 337.6C19.4999 340.2 12.2999 340.2 7.89988 337.6C3.49988 335 3.79988 330.7 8.59988 328L63.8999 296C79.8999 286.8 79.8999 268.3 79.8999 268.3V88.1C79.8999 85.3 81.7999 84.2 84.1999 85.6L199.2 152C204.1 154.8 208 155 208 152.6Z" fill="url(#paint10_linear)"/>
<path d="M80 267.9L320 406.5C320 406.5 320 425 304 434.2L64 295.6C80 286.4 80 267.9 80 267.9Z" fill="url(#paint11_linear)"/>
<path d="M155.311 445.355C155.33 441.765 150.287 438.827 144.046 438.793C137.805 438.759 132.73 441.642 132.711 445.232C132.692 448.822 137.735 451.759 143.976 451.793C150.217 451.827 155.292 448.944 155.311 445.355Z" fill="white"/>
<path d="M155.301 443.464C155.321 439.874 150.277 436.937 144.036 436.903C137.796 436.869 132.721 439.752 132.701 443.342C132.682 446.931 137.725 449.869 143.966 449.903C150.207 449.937 155.282 447.054 155.301 443.464Z" fill="#CCCDD0"/>
<path d="M251.301 445.343C251.32 441.753 246.277 438.815 240.036 438.782C233.795 438.748 228.72 441.63 228.701 445.22C228.681 448.81 233.725 451.748 239.966 451.782C246.206 451.815 251.281 448.933 251.301 445.343Z" fill="white"/>
<path d="M251.301 443.463C251.321 439.873 246.277 436.935 240.036 436.901C233.796 436.868 228.721 439.75 228.701 443.34C228.682 446.93 233.725 449.868 239.966 449.901C246.207 449.935 251.282 447.053 251.301 443.463Z" fill="#E6E7E8"/>
<path d="M203.339 436.226C203.358 432.636 198.315 429.699 192.074 429.665C185.833 429.631 180.758 432.514 180.739 436.103C180.719 439.693 185.763 442.631 192.003 442.665C198.244 442.699 203.319 439.816 203.339 436.226Z" fill="white"/>
<path d="M203.339 434.226C203.358 430.636 198.315 427.699 192.074 427.665C185.833 427.631 180.758 430.514 180.739 434.103C180.719 437.693 185.763 440.631 192.003 440.665C198.244 440.699 203.319 437.816 203.339 434.226Z" fill="#CCCDD0"/>
<path d="M59.304 408.452C59.3234 404.863 54.28 401.925 48.0392 401.891C41.7984 401.857 36.7234 404.74 36.7039 408.33C36.6845 411.92 41.7279 414.857 47.9687 414.891C54.2095 414.925 59.2845 412.042 59.304 408.452Z" fill="white"/>
<path d="M59.3 406.452C59.3195 402.862 54.2761 399.924 48.0353 399.89C41.7945 399.857 36.7195 402.739 36.7 406.329C36.6806 409.919 41.724 412.857 47.9648 412.89C54.2056 412.924 59.2806 410.041 59.3 406.452Z" fill="#E6E7E8"/>
<path d="M255.674 142.781C258.787 140.991 258.765 135.116 255.626 129.658C252.488 124.2 247.421 121.226 244.309 123.016C241.197 124.805 241.218 130.681 244.357 136.139C247.495 141.597 252.562 144.571 255.674 142.781Z" fill="white"/>
<path d="M253.674 143.781C256.787 141.992 256.765 136.116 253.626 130.658C250.488 125.2 245.421 122.226 242.309 124.016C239.197 125.805 239.218 131.681 242.357 137.139C245.495 142.597 250.562 145.571 253.674 143.781Z" fill="#CCCDD0"/>
<path d="M303.669 188.982C306.781 187.192 306.76 181.317 303.621 175.859C300.483 170.401 295.416 167.427 292.304 169.216C289.192 171.006 289.213 176.881 292.352 182.339C295.49 187.797 300.557 190.771 303.669 188.982Z" fill="white"/>
<path d="M301.669 189.982C304.781 188.192 304.76 182.317 301.621 176.859C298.483 171.401 293.416 168.427 290.304 170.216C287.192 172.006 287.213 177.881 290.352 183.339C293.49 188.797 298.557 191.771 301.669 189.982Z" fill="#F2F2F3"/>
<path d="M287.687 105.877C290.799 104.087 290.777 98.212 287.639 92.7539C284.5 87.2959 279.433 84.322 276.321 86.1115C273.209 87.9011 273.231 93.7764 276.369 99.2344C279.508 104.692 284.575 107.666 287.687 105.877Z" fill="white"/>
<path d="M285.687 106.877C288.799 105.087 288.777 99.2121 285.639 93.754C282.5 88.296 277.433 85.3221 274.321 87.1116C271.209 88.9012 271.231 94.7765 274.369 100.235C277.508 105.693 282.575 108.666 285.687 106.877Z" fill="#E6E7E8"/>
<path d="M95.9999 184.7L47.8999 212.5L175.9 286.4L224 258.7L95.9999 184.7Z" fill="#33A2F8"/>
<path d="M175.9 397.2L224 369.5V258.7L175.9 286.4V397.2Z" fill="url(#paint12_linear)"/>
<path d="M48 212.5V323.3L176 397.2V286.4L48 212.5Z" fill="url(#paint13_linear)"/>
<path d="M120 329C117.3 329 114.4 328.1 111.4 326.4C101.2 320.5 92.8999 306.2 92.8999 294.5C92.8999 288.6 94.8999 284.2 98.5999 282.1C102.3 279.9 107.2 280.4 112.4 283.4C122.6 289.3 130.9 303.6 130.9 315.3C130.9 321.2 128.9 325.6 125.2 327.7C123.6 328.6 121.9 329 120 329ZM103.8 282.7C102.3 282.7 100.8 283.1 99.5999 283.8C96.4999 285.6 94.8999 289.4 94.8999 294.5C94.8999 305.6 102.8 319.1 112.4 324.7C116.9 327.3 121.1 327.8 124.2 326C127.3 324.2 128.9 320.4 128.9 315.3C128.9 304.2 121 290.7 111.4 285.1C108.7 283.5 106.1 282.7 103.8 282.7Z" fill="white"/>
<path d="M107.1 295.7C107.1 294.7 107.9 294.7 108.8 295.8L118.5 307.8C119.3 308.8 119.3 309.7 118.5 309.7L108.8 310.4C108 310.5 107.1 309.6 107.1 308.6V295.7Z" fill="white"/>
<path d="M301.4 266.4L66.6 130.8C65.2 130 64 128 64 126.3V95.3C64 93.6 65.2 93 66.6 93.8L301.4 229.4C302.8 230.2 304 232.2 304 233.9V264.9C304 266.5 302.8 267.2 301.4 266.4Z" fill="white"/>
<path d="M299.4 267.4L64.6 131.8C63.2 131 62 129 62 127.3V96.3C62 94.6 63.2 94 64.6 94.8L299.4 230.4C300.8 231.2 302 233.2 302 234.9V265.9C302 267.5 300.8 268.2 299.4 267.4Z" fill="#CCCDD0"/>
<path d="M79.7 112.9L92.3 120.2C93.3 120.8 94 122.1 94 123.2V137.6C94 138.7 93.2 139.2 92.3 138.6L79.7 131.4C78.7 130.9 78 129.5 78 128.4V113.9C78 112.8 78.8 112.3 79.7 112.9Z" fill="#999CA1"/>
<path d="M78.5 130.1C78.8 130.6 79.2 131.1 79.7 131.4L92.3 138.6C93.3 139.1 94 138.7 94 137.6V123.2C94 122.6 93.8 122 93.5 121.5L78.5 130.1Z" fill="#B3B5B9"/>
<path d="M99.8999 133.2V135.2C99.8999 136.3 100.7 137.6 101.6 138.2L144.2 162.9C145.2 163.5 145.9 163 145.9 161.9V159.8C145.9 158.7 145.1 157.4 144.2 156.8L101.6 132.1C100.7 131.6 99.8999 132.1 99.8999 133.2Z" fill="#B3B5B9"/>
<path d="M284 249L247.7 225.9C246.7 225.3 245.9 223.8 245.9 222.6L243.9 212.2C243.9 210.1 246.7 209.3 247.7 209.9L286.2 232.1C287.2 232.7 288 234.2 288 235.4V246.8C288 248.1 286 250.3 284 249Z" fill="#80838A"/>
<path d="M284.3 249.1L245.8 226.9C244.8 226.3 244 224.8 244 223.6V212.2C244 210.9 244.8 210.3 245.8 210.9L284.3 233.1C285.3 233.7 286.1 235.2 286.1 236.4V247.8C286 249.1 285.2 249.6 284.3 249.1Z" fill="#999CA1"/>
<path d="M277.4 239.1L252.7 224.8C251.9 224.3 251.2 223 251.2 222C251.2 220.9 251.9 220.4 252.7 220.9L277.4 235.2C278.2 235.7 278.9 237 278.9 238C278.9 239 278.2 239.5 277.4 239.1Z" fill="#B3B5B9"/>
<path d="M236.6 214.6L227.5 209.3C226.7 208.8 226 207.5 226 206.5C226 205.4 226.7 204.9 227.5 205.4L236.6 210.7C237.4 211.2 238.1 212.5 238.1 213.5C238.1 214.6 237.4 215.1 236.6 214.6Z" fill="#B3B5B9"/>
<path d="M220.6 205.4L211.5 200.1C210.7 199.6 210 198.3 210 197.3C210 196.2 210.7 195.7 211.5 196.2L220.6 201.5C221.4 202 222.1 203.3 222.1 204.3C222.1 205.4 221.4 205.9 220.6 205.4Z" fill="#B3B5B9"/>
<path d="M204.6 196.2L195.5 190.9C194.7 190.4 194 189.1 194 188.1C194 187 194.7 186.5 195.5 187L204.6 192.3C205.4 192.8 206.1 194.1 206.1 195.1C206.1 196.1 205.4 196.6 204.6 196.2Z" fill="#B3B5B9"/>
<defs>
<linearGradient id="paint0_linear" x1="332" y1="230.133" x2="445.924" y2="230.133" gradientUnits="userSpaceOnUse">
<stop stop-color="#4D525B"/>
<stop offset="1" stop-color="#333943"/>
</linearGradient>
<linearGradient id="paint1_linear" x1="408" y1="72.3159" x2="408" y2="387.979" gradientUnits="userSpaceOnUse">
<stop stop-color="#CCCDD0"/>
<stop offset="1" stop-color="#B3B5B9"/>
</linearGradient>
<linearGradient id="paint2_linear" x1="367.995" y1="386.584" x2="523.124" y2="386.584" gradientUnits="userSpaceOnUse">
<stop stop-color="#000714" stop-opacity="0"/>
<stop offset="1" stop-color="#000714" stop-opacity="0.05"/>
</linearGradient>
<linearGradient id="paint3_linear" x1="393.467" y1="338.022" x2="465.467" y2="379.592" gradientUnits="userSpaceOnUse">
<stop stop-color="#000714" stop-opacity="0"/>
<stop offset="1" stop-color="#000714" stop-opacity="0.05"/>
</linearGradient>
<linearGradient id="paint4_linear" x1="399.995" y1="230.94" x2="463.995" y2="230.94" gradientUnits="userSpaceOnUse">
<stop stop-color="#0016EC"/>
<stop offset="1" stop-color="#0052F6"/>
</linearGradient>
<linearGradient id="paint5_linear" x1="367.995" y1="240.178" x2="399.995" y2="240.178" gradientUnits="userSpaceOnUse">
<stop stop-color="#2668EF"/>
<stop offset="1" stop-color="#004EEC"/>
</linearGradient>
<linearGradient id="paint6_linear" x1="336" y1="415.692" x2="356" y2="450.333" gradientUnits="userSpaceOnUse">
<stop stop-color="#CCCDD0"/>
<stop offset="1" stop-color="#F2F2F3" stop-opacity="0"/>
</linearGradient>
<linearGradient id="paint7_linear" x1="312" y1="387.979" x2="312" y2="452.643" gradientUnits="userSpaceOnUse">
<stop stop-color="#CCCDD0"/>
<stop offset="1" stop-color="#F2F2F3" stop-opacity="0"/>
</linearGradient>
<linearGradient id="paint8_linear" x1="344" y1="194.69" x2="344" y2="415.692" gradientUnits="userSpaceOnUse">
<stop stop-color="#F2F2F3"/>
<stop offset="1" stop-color="#CCCDD0"/>
</linearGradient>
<linearGradient id="paint9_linear" x1="4.87028" y1="267.439" x2="320" y2="267.439" gradientUnits="userSpaceOnUse">
<stop stop-color="#FAFAFA"/>
<stop offset="1" stop-color="#E6E7E8"/>
</linearGradient>
<linearGradient id="paint10_linear" x1="4.87028" y1="267.439" x2="320" y2="267.439" gradientUnits="userSpaceOnUse">
<stop stop-color="#000714" stop-opacity="0.05"/>
<stop offset="1" stop-color="#000714" stop-opacity="0"/>
</linearGradient>
<linearGradient id="paint11_linear" x1="201.778" y1="338.199" x2="185.778" y2="365.912" gradientUnits="userSpaceOnUse">
<stop stop-color="#000714" stop-opacity="0"/>
<stop offset="1" stop-color="#000714" stop-opacity="0.05"/>
</linearGradient>
<linearGradient id="paint12_linear" x1="175.906" y1="327.949" x2="223.958" y2="327.949" gradientUnits="userSpaceOnUse">
<stop stop-color="#0016EC"/>
<stop offset="1" stop-color="#0052F6"/>
</linearGradient>
<linearGradient id="paint13_linear" x1="48" y1="304.87" x2="176" y2="304.87" gradientUnits="userSpaceOnUse">
<stop stop-color="#33A2F8"/>
<stop offset="1" stop-color="#0052F6"/>
</linearGradient>
</defs>
</svg>
