<svg width="2376" height="2376" viewBox="0 0 2376 2376" fill="none" xmlns="http://www.w3.org/2000/svg">
<path d="M288 417.6C288 385.789 313.789 360 345.6 360H2318.4C2350.21 360 2376 385.789 2376 417.6V1958.4C2376 1990.21 2350.21 2016 2318.4 2016H345.6C313.789 2016 288 1990.21 288 1958.4V417.6Z" fill="#F2F2F3"/>
<path fill-rule="evenodd" clip-rule="evenodd" d="M2376 676.8H288V648H2376V676.8Z" fill="#E6E7E8"/>
<path d="M432 547.2C447.906 547.2 460.8 534.305 460.8 518.4C460.8 502.494 447.906 489.6 432 489.6C416.094 489.6 403.2 502.494 403.2 518.4C403.2 534.305 416.094 547.2 432 547.2Z" fill="#CCCDD0"/>
<path d="M518.4 547.2C534.305 547.2 547.2 534.305 547.2 518.4C547.2 502.494 534.305 489.6 518.4 489.6C502.494 489.6 489.6 502.494 489.6 518.4C489.6 534.305 502.494 547.2 518.4 547.2Z" fill="#CCCDD0"/>
<path d="M604.8 547.2C620.706 547.2 633.6 534.305 633.6 518.4C633.6 502.494 620.706 489.6 604.8 489.6C588.894 489.6 576 502.494 576 518.4C576 534.305 588.894 547.2 604.8 547.2Z" fill="#CCCDD0"/>
<path d="M518 805.8C518 789.894 530.894 777 546.8 777H1410.8C1426.71 777 1439.6 789.894 1439.6 805.8V1396.2C1439.6 1412.11 1426.71 1425 1410.8 1425H546.8C530.894 1425 518 1412.11 518 1396.2V805.8Z" fill="#CCCDD0"/>
<path fill-rule="evenodd" clip-rule="evenodd" d="M979 1216.2C1042.62 1216.2 1094.2 1164.62 1094.2 1101C1094.2 1037.38 1042.62 985.8 979 985.8C915.381 985.8 863.8 1037.38 863.8 1101C863.8 1164.62 915.381 1216.2 979 1216.2ZM979 1245C1058.53 1245 1123 1180.53 1123 1101C1123 1021.47 1058.53 957 979 957C899.469 957 835 1021.47 835 1101C835 1180.53 899.469 1245 979 1245Z" fill="#999CA1"/>
<path d="M963.463 1044.87C957.674 1040.85 950.2 1045.55 950.2 1053.21V1148.79C950.2 1156.45 957.674 1161.15 963.463 1157.13L1032.45 1109.34C1037.98 1105.52 1037.98 1096.48 1032.45 1092.66L963.463 1044.87Z" fill="#80838A"/>
<path d="M144 1080C159.906 1080 172.8 1067.11 172.8 1051.2C172.8 1035.29 159.906 1022.4 144 1022.4C128.094 1022.4 115.2 1035.29 115.2 1051.2C115.2 1067.11 128.094 1080 144 1080Z" fill="#B3B5B9"/>
<path d="M230.4 1080C246.305 1080 259.2 1067.11 259.2 1051.2C259.2 1035.29 246.305 1022.4 230.4 1022.4C214.494 1022.4 201.6 1035.29 201.6 1051.2C201.6 1067.11 214.494 1080 230.4 1080Z" fill="#B3B5B9"/>
<path d="M316.8 1080C332.706 1080 345.6 1067.11 345.6 1051.2C345.6 1035.29 332.706 1022.4 316.8 1022.4C300.894 1022.4 288 1035.29 288 1051.2C288 1067.11 300.894 1080 316.8 1080Z" fill="#B3B5B9"/>
<path d="M2138.4 2059.2C2158.29 2059.2 2174.4 2043.09 2174.4 2023.2C2174.4 2003.31 2158.29 1987.2 2138.4 1987.2C2118.51 1987.2 2102.4 2003.31 2102.4 2023.2C2102.4 2043.09 2118.51 2059.2 2138.4 2059.2Z" fill="#33A2F8"/>
<path d="M2066.4 2188.8C2078.32 2188.8 2088 2179.12 2088 2167.2C2088 2155.28 2078.32 2145.6 2066.4 2145.6C2054.48 2145.6 2044.8 2155.28 2044.8 2167.2C2044.8 2179.12 2054.48 2188.8 2066.4 2188.8Z" fill="#B3B5B9"/>
<path d="M2145.6 302.4L1987.2 388.8L1843.2 302.4L1994.4 216L2145.6 302.4Z" fill="#91FAEB"/>
<path d="M1987.2 475.2V388.8L1843.2 302.4V388.8L1987.2 475.2Z" fill="#56DECF"/>
<path d="M2145.6 302.4L1987.2 388.8V475.2L2145.6 388.8V302.4Z" fill="#34C2C8"/>
<path d="M1900.8 43.2L1828.8 79.2L1756.8 39.6L1828.8 0L1900.8 43.2Z" fill="#BDC1FD"/>
<path d="M1828.8 158.4V79.1996L1756.8 39.5996V118.8L1828.8 158.4Z" fill="#959BFE"/>
<path d="M1900.8 43.2002L1828.8 79.2002V160.199L1900.8 122.4V43.2002Z" fill="#7179FD"/>
<path d="M1576.8 201.6C1588.72 201.6 1598.4 191.929 1598.4 180C1598.4 168.071 1588.72 158.4 1576.8 158.4C1564.88 158.4 1555.2 168.071 1555.2 180C1555.2 191.929 1564.88 201.6 1576.8 201.6Z" fill="#CCCDD0"/>
<path d="M568.8 2145.6C580.729 2145.6 590.4 2135.92 590.4 2124C590.4 2112.08 580.729 2102.4 568.8 2102.4C556.871 2102.4 547.2 2112.08 547.2 2124C547.2 2135.92 556.871 2145.6 568.8 2145.6Z" fill="#CCCDD0"/>
<path d="M568.8 2217.6C580.729 2217.6 590.4 2207.92 590.4 2196C590.4 2184.08 580.729 2174.4 568.8 2174.4C556.871 2174.4 547.2 2184.08 547.2 2196C547.2 2207.92 556.871 2217.6 568.8 2217.6Z" fill="#CCCDD0"/>
<path d="M640.8 2145.6C652.729 2145.6 662.4 2135.92 662.4 2124C662.4 2112.08 652.729 2102.4 640.8 2102.4C628.871 2102.4 619.2 2112.08 619.2 2124C619.2 2135.92 628.871 2145.6 640.8 2145.6Z" fill="#CCCDD0"/>
<path d="M640.8 2217.6C652.729 2217.6 662.4 2207.92 662.4 2196C662.4 2184.08 652.729 2174.4 640.8 2174.4C628.871 2174.4 619.2 2184.08 619.2 2196C619.2 2207.92 628.871 2217.6 640.8 2217.6Z" fill="#CCCDD0"/>
<path d="M712.8 2145.6C724.729 2145.6 734.4 2135.92 734.4 2124C734.4 2112.08 724.729 2102.4 712.8 2102.4C700.871 2102.4 691.2 2112.08 691.2 2124C691.2 2135.92 700.871 2145.6 712.8 2145.6Z" fill="#CCCDD0"/>
<path d="M712.8 2217.6C724.729 2217.6 734.4 2207.92 734.4 2196C734.4 2184.08 724.729 2174.4 712.8 2174.4C700.871 2174.4 691.2 2184.08 691.2 2196C691.2 2207.92 700.871 2217.6 712.8 2217.6Z" fill="#CCCDD0"/>
<path d="M784.8 2145.6C796.729 2145.6 806.4 2135.92 806.4 2124C806.4 2112.08 796.729 2102.4 784.8 2102.4C772.871 2102.4 763.2 2112.08 763.2 2124C763.2 2135.92 772.871 2145.6 784.8 2145.6Z" fill="#CCCDD0"/>
<path d="M784.8 2217.6C796.729 2217.6 806.4 2207.92 806.4 2196C806.4 2184.08 796.729 2174.4 784.8 2174.4C772.871 2174.4 763.2 2184.08 763.2 2196C763.2 2207.92 772.871 2217.6 784.8 2217.6Z" fill="#CCCDD0"/>
<path d="M856.8 2145.6C868.729 2145.6 878.4 2135.92 878.4 2124C878.4 2112.08 868.729 2102.4 856.8 2102.4C844.871 2102.4 835.2 2112.08 835.2 2124C835.2 2135.92 844.871 2145.6 856.8 2145.6Z" fill="#CCCDD0"/>
<path d="M856.8 2217.6C868.729 2217.6 878.4 2207.92 878.4 2196C878.4 2184.08 868.729 2174.4 856.8 2174.4C844.871 2174.4 835.2 2184.08 835.2 2196C835.2 2207.92 844.871 2217.6 856.8 2217.6Z" fill="#CCCDD0"/>
<path d="M1757 805.8C1757 789.894 1769.89 777 1785.8 777H2304.2C2320.11 777 2333 789.894 2333 805.8V1223.4C2333 1239.31 2320.11 1252.2 2304.2 1252.2H1785.8C1769.89 1252.2 1757 1239.31 1757 1223.4V805.8Z" fill="#CCCDD0"/>
<mask id="mask0_156_2488" style="mask-type:luminance" maskUnits="userSpaceOnUse" x="1901" y="877" width="288" height="289">
<path fill-rule="evenodd" clip-rule="evenodd" d="M2045 1137C2108.62 1137 2160.2 1085.42 2160.2 1021.8C2160.2 958.181 2108.62 906.6 2045 906.6C1981.38 906.6 1929.8 958.181 1929.8 1021.8C1929.8 1085.42 1981.38 1137 2045 1137ZM2045 1165.8C2124.53 1165.8 2189 1101.33 2189 1021.8C2189 942.269 2124.53 877.8 2045 877.8C1965.47 877.8 1901 942.269 1901 1021.8C1901 1101.33 1965.47 1165.8 2045 1165.8Z" fill="white"/>
</mask>
<g mask="url(#mask0_156_2488)">
<path d="M2131.4 1021.8C2131.4 1069.52 2092.72 1108.2 2045 1108.2V1165.8C2124.53 1165.8 2189 1101.33 2189 1021.8H2131.4ZM2045 935.4C2092.72 935.4 2131.4 974.078 2131.4 1021.8H2189C2189 942.269 2124.53 877.8 2045 877.8V935.4ZM1958.6 1021.8C1958.6 974.078 1997.28 935.4 2045 935.4V877.8C1965.47 877.8 1901 942.269 1901 1021.8H1958.6ZM2045 1108.2C1997.28 1108.2 1958.6 1069.52 1958.6 1021.8H1901C1901 1101.33 1965.47 1165.8 2045 1165.8V1108.2ZM2160.2 1021.8C2160.2 1085.42 2108.62 1137 2045 1137V1194.6C2140.43 1194.6 2217.8 1117.23 2217.8 1021.8H2160.2ZM2045 906.6C2108.62 906.6 2160.2 958.181 2160.2 1021.8H2217.8C2217.8 926.371 2140.43 849 2045 849V906.6ZM1929.8 1021.8C1929.8 958.181 1981.38 906.6 2045 906.6V849C1949.57 849 1872.2 926.371 1872.2 1021.8H1929.8ZM2045 1137C1981.38 1137 1929.8 1085.42 1929.8 1021.8H1872.2C1872.2 1117.23 1949.57 1194.6 2045 1194.6V1137Z" fill="#999CA1"/>
</g>
<path d="M2029.47 965.669C2023.67 961.651 2016.2 966.346 2016.2 974.006V1069.59C2016.2 1077.25 2023.67 1081.95 2029.47 1077.93L2098.46 1030.14C2103.98 1026.32 2103.98 1017.28 2098.46 1013.46L2029.47 965.669Z" fill="#80838A"/>
<path d="M1757 1323.8C1757 1307.89 1769.89 1295 1785.8 1295H2304.2C2320.11 1295 2333 1307.89 2333 1323.8V1741.4C2333 1757.31 2320.11 1770.2 2304.2 1770.2H1785.8C1769.89 1770.2 1757 1757.31 1757 1741.4V1323.8Z" fill="#CCCDD0"/>
<mask id="mask1_156_2488" style="mask-type:luminance" maskUnits="userSpaceOnUse" x="1901" y="1395" width="288" height="289">
<path fill-rule="evenodd" clip-rule="evenodd" d="M2045 1655C2108.62 1655 2160.2 1603.42 2160.2 1539.8C2160.2 1476.18 2108.62 1424.6 2045 1424.6C1981.38 1424.6 1929.8 1476.18 1929.8 1539.8C1929.8 1603.42 1981.38 1655 2045 1655ZM2045 1683.8C2124.53 1683.8 2189 1619.33 2189 1539.8C2189 1460.27 2124.53 1395.8 2045 1395.8C1965.47 1395.8 1901 1460.27 1901 1539.8C1901 1619.33 1965.47 1683.8 2045 1683.8Z" fill="white"/>
</mask>
<g mask="url(#mask1_156_2488)">
<path d="M2131.4 1539.8C2131.4 1587.52 2092.72 1626.2 2045 1626.2V1683.8C2124.53 1683.8 2189 1619.33 2189 1539.8H2131.4ZM2045 1453.4C2092.72 1453.4 2131.4 1492.08 2131.4 1539.8H2189C2189 1460.27 2124.53 1395.8 2045 1395.8V1453.4ZM1958.6 1539.8C1958.6 1492.08 1997.28 1453.4 2045 1453.4V1395.8C1965.47 1395.8 1901 1460.27 1901 1539.8H1958.6ZM2045 1626.2C1997.28 1626.2 1958.6 1587.52 1958.6 1539.8H1901C1901 1619.33 1965.47 1683.8 2045 1683.8V1626.2ZM2160.2 1539.8C2160.2 1603.42 2108.62 1655 2045 1655V1712.6C2140.43 1712.6 2217.8 1635.23 2217.8 1539.8H2160.2ZM2045 1424.6C2108.62 1424.6 2160.2 1476.18 2160.2 1539.8H2217.8C2217.8 1444.37 2140.43 1367 2045 1367V1424.6ZM1929.8 1539.8C1929.8 1476.18 1981.38 1424.6 2045 1424.6V1367C1949.57 1367 1872.2 1444.37 1872.2 1539.8H1929.8ZM2045 1655C1981.38 1655 1929.8 1603.42 1929.8 1539.8H1872.2C1872.2 1635.23 1949.57 1712.6 2045 1712.6V1655Z" fill="#999CA1"/>
</g>
<path d="M2029.47 1483.67C2023.67 1479.65 2016.2 1484.35 2016.2 1492.01V1587.59C2016.2 1595.25 2023.67 1599.95 2029.47 1595.93L2098.46 1548.14C2103.98 1544.32 2103.98 1535.28 2098.46 1531.46L2029.47 1483.67Z" fill="#80838A"/>
<path d="M1757 1825.3C1757 1818.51 1769.89 1813 1785.8 1813H2304.2C2320.11 1813 2333 1818.51 2333 1825.3V2003.7C2333 2010.49 2320.11 2016 2304.2 2016H1785.8C1769.89 2016 1757 2010.49 1757 2003.7V1825.3Z" fill="#CCCDD0"/>
<path d="M971 1491C971 1486.03 966.565 1482 961.093 1482H554.907C549.435 1482 545 1486.03 545 1491C545 1495.97 549.435 1500 554.907 1500H961.093C966.565 1500 971 1495.97 971 1491Z" fill="#CCCDD0"/>
<path d="M1104 1544C1104 1548.97 1098.18 1553 1091 1553H558C550.82 1553 545 1548.97 545 1544C545 1539.03 550.82 1535 558 1535H1091C1098.18 1535 1104 1539.03 1104 1544Z" fill="#CCCDD0"/>
<path d="M1211.7 1600.38C1211.7 1605.3 1207.71 1609.29 1202.79 1609.29H837.267C832.343 1609.29 828.352 1605.3 828.352 1600.38C828.352 1595.45 832.343 1591.46 837.267 1591.46H1202.79C1207.71 1591.46 1211.7 1595.45 1211.7 1600.38Z" fill="#CCCDD0"/>
<path d="M554.92 1589C549.441 1589 545 1593.03 545 1598C545 1602.97 549.441 1607 554.92 1607H783.08C788.559 1607 793 1602.97 793 1598C793 1593.03 788.559 1589 783.08 1589H554.92Z" fill="#CCCDD0"/>
</svg>
