<svg width="1242" height="1242" viewBox="0 0 1242 1242" fill="none" xmlns="http://www.w3.org/2000/svg">
<path d="M0 218.291C0 201.662 13.4803 188.182 30.1091 188.182H1211.89C1228.52 188.182 1242 201.662 1242 218.291V1023.71C1242 1040.34 1228.52 1053.82 1211.89 1053.82H30.1091C13.4803 1053.82 0 1040.34 0 1023.71V218.291Z" fill="#F2F2F3"/>
<path fill-rule="evenodd" clip-rule="evenodd" d="M1242 353.782H0V338.728H1242V353.782Z" fill="#E6E7E8"/>
<path d="M75.2723 286.037C83.5867 286.037 90.3269 279.297 90.3269 270.982C90.3269 262.668 83.5867 255.928 75.2723 255.928C66.9579 255.928 60.2178 262.668 60.2178 270.982C60.2178 279.297 66.9579 286.037 75.2723 286.037Z" fill="#CCCDD0"/>
<path d="M120.436 286.037C128.751 286.037 135.491 279.297 135.491 270.982C135.491 262.668 128.751 255.928 120.436 255.928C112.122 255.928 105.382 262.668 105.382 270.982C105.382 279.297 112.122 286.037 120.436 286.037Z" fill="#CCCDD0"/>
<path d="M165.6 286.037C173.915 286.037 180.655 279.297 180.655 270.982C180.655 262.668 173.915 255.928 165.6 255.928C157.286 255.928 150.546 262.668 150.546 270.982C150.546 279.297 157.286 286.037 165.6 286.037Z" fill="#CCCDD0"/>
<path fill-rule="evenodd" clip-rule="evenodd" d="M805.418 353.782V534.437C805.418 542.751 812.155 549.491 820.473 549.491H1106.51C1114.83 549.491 1121.56 542.751 1121.56 534.437V353.782H1106.51V517.558L974.39 391.419L1013.81 353.782H992.012L963.491 381.012L934.97 353.782H913.171L952.591 391.419L820.473 517.561V353.782H805.418ZM1102.38 534.437L963.491 401.826L824.597 534.437H1102.38Z" fill="#CCCDD0"/>
<path fill-rule="evenodd" clip-rule="evenodd" d="M1121.56 594.654C1121.56 586.34 1114.83 579.6 1106.51 579.6H820.473C812.155 579.6 805.418 586.34 805.418 594.654V880.691C805.418 889.008 812.155 895.745 820.473 895.745H1106.51C1114.83 895.745 1121.56 889.008 1121.56 880.691V594.654ZM824.597 594.654L963.491 727.266L1102.39 594.654H824.597ZM820.473 863.814L952.591 737.672L820.473 611.531V863.814ZM1102.38 880.691L963.491 748.08L824.597 880.691H1102.38ZM1106.51 863.814V611.534L974.39 737.672L1106.51 863.814Z" fill="#CCCDD0"/>
<path d="M1121.56 940.909C1121.56 932.591 1114.83 925.854 1106.51 925.854H820.473C812.155 925.854 805.418 932.591 805.418 940.909V1053.82H820.473V957.785L921.052 1053.82H942.858L824.597 940.909H1102.39L984.131 1053.82H1005.93L1106.51 957.785V1053.82H1121.56V940.909Z" fill="#CCCDD0"/>
<path fill-rule="evenodd" clip-rule="evenodd" d="M120.437 466.691C120.437 462.534 123.806 459.164 127.964 459.164H715.091C719.248 459.164 722.618 462.534 722.618 466.691C722.618 470.849 719.248 474.219 715.091 474.219H127.964C123.806 474.219 120.437 470.849 120.437 466.691ZM120.437 511.855C120.437 507.698 123.806 504.328 127.964 504.328H598.418C602.576 504.328 605.946 507.698 605.946 511.855C605.946 516.012 602.576 519.382 598.418 519.382H127.964C123.806 519.382 120.437 516.012 120.437 511.855Z" fill="#CCCDD0"/>
<path fill-rule="evenodd" clip-rule="evenodd" d="M120.437 925.854C120.437 921.699 123.806 918.327 127.964 918.327H557.018C561.176 918.327 564.546 921.699 564.546 925.854C564.546 930.009 561.176 933.382 557.018 933.382H127.964C123.806 933.382 120.437 930.009 120.437 925.854Z" fill="#CCCDD0"/>
<path d="M1035 1121.56C1041.23 1121.56 1046.29 1116.5 1046.29 1110.27C1046.29 1104.04 1041.23 1098.98 1035 1098.98C1028.77 1098.98 1023.71 1104.04 1023.71 1110.27C1023.71 1116.5 1028.77 1121.56 1035 1121.56Z" fill="#CCCDD0"/>
<path d="M1035 1159.2C1041.23 1159.2 1046.29 1154.14 1046.29 1147.91C1046.29 1141.68 1041.23 1136.62 1035 1136.62C1028.77 1136.62 1023.71 1141.68 1023.71 1147.91C1023.71 1154.14 1028.77 1159.2 1035 1159.2Z" fill="#CCCDD0"/>
<path d="M1072.64 1121.56C1078.87 1121.56 1083.93 1116.5 1083.93 1110.27C1083.93 1104.04 1078.87 1098.98 1072.64 1098.98C1066.4 1098.98 1061.35 1104.04 1061.35 1110.27C1061.35 1116.5 1066.4 1121.56 1072.64 1121.56Z" fill="#CCCDD0"/>
<path d="M1072.64 1159.2C1078.87 1159.2 1083.93 1154.14 1083.93 1147.91C1083.93 1141.68 1078.87 1136.62 1072.64 1136.62C1066.4 1136.62 1061.35 1141.68 1061.35 1147.91C1061.35 1154.14 1066.4 1159.2 1072.64 1159.2Z" fill="#CCCDD0"/>
<path d="M1110.27 1121.56C1116.5 1121.56 1121.56 1116.5 1121.56 1110.27C1121.56 1104.04 1116.5 1098.98 1110.27 1098.98C1104.04 1098.98 1098.98 1104.04 1098.98 1110.27C1098.98 1116.5 1104.04 1121.56 1110.27 1121.56Z" fill="#CCCDD0"/>
<path d="M1110.27 1159.2C1116.5 1159.2 1121.56 1154.14 1121.56 1147.91C1121.56 1141.68 1116.5 1136.62 1110.27 1136.62C1104.04 1136.62 1098.98 1141.68 1098.98 1147.91C1098.98 1154.14 1104.04 1159.2 1110.27 1159.2Z" fill="#CCCDD0"/>
<path d="M169.363 105.382C175.599 105.382 180.654 100.326 180.654 94.0907C180.654 87.8551 175.599 82.7998 169.363 82.7998C163.128 82.7998 158.072 87.8551 158.072 94.0907C158.072 100.326 163.128 105.382 169.363 105.382Z" fill="#CCCDD0"/>
<path d="M169.363 143.018C175.599 143.018 180.654 137.963 180.654 131.727C180.654 125.492 175.599 120.437 169.363 120.437C163.128 120.437 158.072 125.492 158.072 131.727C158.072 137.963 163.128 143.018 169.363 143.018Z" fill="#CCCDD0"/>
<path d="M207 105.382C213.235 105.382 218.291 100.326 218.291 94.0907C218.291 87.8551 213.235 82.7998 207 82.7998C200.764 82.7998 195.709 87.8551 195.709 94.0907C195.709 100.326 200.764 105.382 207 105.382Z" fill="#CCCDD0"/>
<path d="M207 143.018C213.235 143.018 218.291 137.963 218.291 131.727C218.291 125.492 213.235 120.437 207 120.437C200.764 120.437 195.709 125.492 195.709 131.727C195.709 137.963 200.764 143.018 207 143.018Z" fill="#CCCDD0"/>
<path d="M120 578.756C120 570.606 126.749 564 135.075 564H707.925C716.251 564 723 570.606 723 578.756V881.244C723 889.397 716.251 896 707.925 896H135.075C126.749 896 120 889.397 120 881.244V578.756Z" fill="url(#paint0_linear_156_2360)"/>
<path fill-rule="evenodd" clip-rule="evenodd" d="M417.273 798.491C450.53 798.491 477.491 771.53 477.491 738.273C477.491 705.015 450.53 678.055 417.273 678.055C384.015 678.055 357.055 705.015 357.055 738.273C357.055 771.53 384.015 798.491 417.273 798.491ZM417.273 813.545C458.844 813.545 492.545 779.846 492.545 738.273C492.545 696.701 458.844 663 417.273 663C375.701 663 342 696.701 342 738.273C342 779.846 375.701 813.545 417.273 813.545Z" fill="white"/>
<path d="M409.153 708.931C406.121 706.831 402.218 709.286 402.218 713.293V763.252C402.218 767.258 406.121 769.714 409.153 767.614L445.216 742.634C448.103 740.634 448.103 735.91 445.216 733.91L409.153 708.931Z" fill="white"/>
<defs>
<linearGradient id="paint0_linear_156_2360" x1="2.40392" y1="730.142" x2="1170.42" y2="975.237" gradientUnits="userSpaceOnUse">
<stop stop-color="#FF9F92"/>
<stop offset="1" stop-color="#FF757A"/>
</linearGradient>
</defs>
</svg>
