<svg xmlns="http://www.w3.org/2000/svg" enable-background="new 0 0 64 64" viewBox="0 0 64 64" id="Pixel"><g fill="#000000" class="color000000 svgShape"><path fill="#ffffff" d="M63,7V1h-6v2H7V1H1v6h2v50H1v6h6v-2h50v2h6v-6h-2V7H63z M59,3h2v2h-2V3z M3,3h2v2H3V3z M5,61H3v-2h2   V61z M61,61h-2v-2h2V61z M59,57h-2v2H7v-2H5V7h2V5h50v2h2V57z" class="color333333 svgShape"></path><path fill="#ffffff" d="M57,55v-4v-2v-4v-2v-4v-2v-4v-2v-4v-2v-4v-2v-4v-2V9V8V7H7v1v1v4v2v4v2v4v2v4v2v4v2v4v2v4v2v4v1v1   h50v-1V55z M55,55h-4v-4h4V55z M33,31v-4h4v4H33z M37,33v4h-4v-4H37z M33,25v-4h4v4H33z M31,25h-4v-4h4V25z M31,27v4h-4v-4H31z    M31,33v4h-4v-4H31z M31,39v4h-4v-4H31z M33,39h4v4h-4V39z M39,39h4v4h-4V39z M39,37v-4h4v4H39z M39,31v-4h4v4H39z M39,25v-4h4v4   H39z M39,19v-4h4v4H39z M37,19h-4v-4h4V19z M31,19h-4v-4h4V19z M25,19h-4v-4h4V19z M25,21v4h-4v-4H25z M25,27v4h-4v-4H25z M25,33v4   h-4v-4H25z M25,39v4h-4v-4H25z M25,45v4h-4v-4H25z M27,45h4v4h-4V45z M33,45h4v4h-4V45z M39,45h4v4h-4V45z M45,45h4v4h-4V45z    M45,43v-4h4v4H45z M45,37v-4h4v4H45z M45,31v-4h4v4H45z M45,25v-4h4v4H45z M45,19v-4h4v4H45z M45,13V9h4v4H45z M43,13h-4V9h4V13z    M37,13h-4V9h4V13z M31,13h-4V9h4V13z M25,13h-4V9h4V13z M19,13h-4V9h4V13z M19,15v4h-4v-4H19z M19,21v4h-4v-4H19z M19,27v4h-4v-4   H19z M19,33v4h-4v-4H19z M19,39v4h-4v-4H19z M19,45v4h-4v-4H19z M19,51v4h-4v-4H19z M21,51h4v4h-4V51z M27,51h4v4h-4V51z M33,51h4   v4h-4V51z M39,51h4v4h-4V51z M45,51h4v4h-4V51z M55,49h-4v-4h4V49z M55,43h-4v-4h4V43z M55,37h-4v-4h4V37z M55,31h-4v-4h4V31z    M55,25h-4v-4h4V25z M55,19h-4v-4h4V19z M55,13h-4V9h4V13z M9,9h4v4H9V9z M9,15h4v4H9V15z M9,21h4v4H9V21z M9,27h4v4H9V27z M9,33h4   v4H9V33z M9,39h4v4H9V39z M9,45h4v4H9V45z M9,51h4v4H9V51z" class="color333333 svgShape"></path></g></svg>