<svg width="165" height="165" viewBox="0 0 165 165" fill="none" xmlns="http://www.w3.org/2000/svg">
<path d="M0 29C0 26.7909 1.79086 25 4 25H161C163.209 25 165 26.7909 165 29V136C165 138.209 163.209 140 161 140H4C1.79086 140 0 138.209 0 136V29Z" fill="#F2F2F3"/>
<path fill-rule="evenodd" clip-rule="evenodd" d="M165 47H0V45H165V47Z" fill="#E6E7E8"/>
<circle cx="10" cy="36" r="2" fill="#CCCDD0"/>
<circle cx="16" cy="36" r="2" fill="#CCCDD0"/>
<circle cx="22" cy="36" r="2" fill="#CCCDD0"/>
<path fill-rule="evenodd" clip-rule="evenodd" d="M107 47V71C107 72.1046 107.895 73 109 73H147C148.105 73 149 72.1046 149 71V47H147V68.7576L129.448 52L134.685 47H131.789L128 50.6175L124.211 47H121.315L126.552 52L109 68.758L109 47H107ZM146.452 71L128 53.3826L109.548 71H146.452Z" fill="#CCCDD0"/>
<path fill-rule="evenodd" clip-rule="evenodd" d="M149 79C149 77.8954 148.105 77 147 77H109C107.895 77 107 77.8954 107 79V117C107 118.105 107.895 119 109 119H147C148.105 119 149 118.105 149 117V79ZM109.548 79L128 96.6175L146.453 79H109.548ZM109 114.758L126.552 98L109 81.2421L109 114.758ZM146.452 117L128 99.3826L109.548 117H146.452ZM147 114.758V81.2425L129.448 98L147 114.758Z" fill="#CCCDD0"/>
<path d="M149 125C149 123.895 148.105 123 147 123H109C107.895 123 107 123.895 107 125V140H109V127.242L122.362 140H125.259L109.548 125H146.453L130.742 140H133.638L147 127.242V140H149V125Z" fill="#CCCDD0"/>
<path fill-rule="evenodd" clip-rule="evenodd" d="M16 62C16 61.4477 16.4477 61 17 61H95C95.5523 61 96 61.4477 96 62C96 62.5523 95.5523 63 95 63H17C16.4477 63 16 62.5523 16 62ZM16 68C16 67.4477 16.4477 67 17 67H79.5C80.0523 67 80.5 67.4477 80.5 68C80.5 68.5523 80.0523 69 79.5 69H17C16.4477 69 16 68.5523 16 68Z" fill="#CCCDD0"/>
<path fill-rule="evenodd" clip-rule="evenodd" d="M16 123C16 122.448 16.4477 122 17 122H74C74.5523 122 75 122.448 75 123C75 123.552 74.5523 124 74 124H17C16.4477 124 16 123.552 16 123Z" fill="#CCCDD0"/>
<path d="M16 75C16 73.8954 16.8954 73 18 73H94C95.1046 73 96 73.8954 96 75V116C96 117.105 95.1046 118 94 118H18C16.8954 118 16 117.105 16 116V75Z" fill="#CCCDD0"/>
<path fill-rule="evenodd" clip-rule="evenodd" d="M56 103C60.4183 103 64 99.4183 64 95C64 90.5817 60.4183 87 56 87C51.5817 87 48 90.5817 48 95C48 99.4183 51.5817 103 56 103ZM56 105C61.5228 105 66 100.523 66 95C66 89.4772 61.5228 85 56 85C50.4772 85 46 89.4772 46 95C46 100.523 50.4772 105 56 105Z" fill="#999CA1"/>
<path d="M54.9213 91.102C54.5186 90.823 54 91.1492 54 91.6815V98.3185C54 98.8508 54.5186 99.177 54.9213 98.898L59.7123 95.5795C60.0959 95.3138 60.0959 94.6862 59.7123 94.4205L54.9213 91.102Z" fill="#80838A"/>
<path d="M137.5 149C138.328 149 139 148.328 139 147.5C139 146.672 138.328 146 137.5 146C136.672 146 136 146.672 136 147.5C136 148.328 136.672 149 137.5 149Z" fill="#CCCDD0"/>
<path d="M137.5 154C138.328 154 139 153.328 139 152.5C139 151.672 138.328 151 137.5 151C136.672 151 136 151.672 136 152.5C136 153.328 136.672 154 137.5 154Z" fill="#CCCDD0"/>
<path d="M142.5 149C143.328 149 144 148.328 144 147.5C144 146.672 143.328 146 142.5 146C141.672 146 141 146.672 141 147.5C141 148.328 141.672 149 142.5 149Z" fill="#CCCDD0"/>
<path d="M142.5 154C143.328 154 144 153.328 144 152.5C144 151.672 143.328 151 142.5 151C141.672 151 141 151.672 141 152.5C141 153.328 141.672 154 142.5 154Z" fill="#CCCDD0"/>
<path d="M147.5 149C148.328 149 149 148.328 149 147.5C149 146.672 148.328 146 147.5 146C146.672 146 146 146.672 146 147.5C146 148.328 146.672 149 147.5 149Z" fill="#CCCDD0"/>
<path d="M147.5 154C148.328 154 149 153.328 149 152.5C149 151.672 148.328 151 147.5 151C146.672 151 146 151.672 146 152.5C146 153.328 146.672 154 147.5 154Z" fill="#CCCDD0"/>
<path d="M6 158.251L17 127V165L6 158.251Z" fill="#91FAEB"/>
<path d="M29 158.251L17 127V165L29 158.251Z" fill="#56DECF"/>
<path d="M33.5 151C34.3284 151 35 150.328 35 149.5C35 148.672 34.3284 148 33.5 148C32.6716 148 32 148.672 32 149.5C32 150.328 32.6716 151 33.5 151Z" fill="#CCCDD0"/>
<path d="M36.5 144C37.8807 144 39 142.881 39 141.5C39 140.119 37.8807 139 36.5 139C35.1193 139 34 140.119 34 141.5C34 142.881 35.1193 144 36.5 144Z" fill="#34C2C8"/>
<path d="M149 25.5104V14L143 17.5V29L149 25.5104Z" fill="#FE7F77"/>
<path d="M143 17.5L136 13.75V25.1L143 29" fill="#FEAD6F"/>
<path d="M149 14L143 17.5L136 13.75L142.118 10L149 14Z" fill="#FEC79D"/>
<path d="M153 11C154.105 11 155 10.1046 155 9C155 7.89543 154.105 7 153 7C151.895 7 151 7.89543 151 9C151 10.1046 151.895 11 153 11Z" fill="#CCCDD0"/>
<path d="M125 18C126.657 18 128 16.6569 128 15C128 13.3431 126.657 12 125 12C123.343 12 122 13.3431 122 15C122 16.6569 123.343 18 125 18Z" fill="#FF9F92"/>
<path d="M22.5 14C23.3284 14 24 13.3284 24 12.5C24 11.6716 23.3284 11 22.5 11C21.6716 11 21 11.6716 21 12.5C21 13.3284 21.6716 14 22.5 14Z" fill="#CCCDD0"/>
<path d="M22.5 19C23.3284 19 24 18.3284 24 17.5C24 16.6716 23.3284 16 22.5 16C21.6716 16 21 16.6716 21 17.5C21 18.3284 21.6716 19 22.5 19Z" fill="#CCCDD0"/>
<path d="M27.5 14C28.3284 14 29 13.3284 29 12.5C29 11.6716 28.3284 11 27.5 11C26.6716 11 26 11.6716 26 12.5C26 13.3284 26.6716 14 27.5 14Z" fill="#CCCDD0"/>
<path d="M27.5 19C28.3284 19 29 18.3284 29 17.5C29 16.6716 28.3284 16 27.5 16C26.6716 16 26 16.6716 26 17.5C26 18.3284 26.6716 19 27.5 19Z" fill="#CCCDD0"/>
</svg>
