<svg width="166" height="64" viewBox="0 0 166 64" fill="none" xmlns="http://www.w3.org/2000/svg">
<path d="M48.07 42.685V39.0036C48.07 36.2277 47.72 35.4206 46.64 33.1074L41 21H37L44.23 36.4837V42.685H48.07ZM50.57 31.4832L55.26 21H51.37L46.67 31.4832H50.57ZM90.64 43C92.42 43 93.87 42.1928 94.89 40.6573L95.08 42.685H98.57V21H94.79V28.8353C93.84 27.4277 92.45 26.6796 90.8 26.6796C87.15 26.6796 84.62 29.7114 84.62 34.9481C84.62 40.1356 87.09 43 90.64 43ZM113.81 41.6318V38.6C112.64 39.3776 110.68 40.0667 108.84 40.0667C106.08 40.0667 105.03 38.787 104.87 36.1687H113.97V34.2C113.97 28.7369 111.53 26.6796 107.76 26.6796C103.16 26.6796 100.98 30.1445 100.98 34.889C100.98 40.3521 103.7 43 108.52 43C110.93 43 112.7 42.3799 113.81 41.6318ZM66.36 31.9852C66.36 28.1758 64.39 26.7485 60.4 26.7485C57.93 26.7485 55.93 27.7723 54.79 28.5893V31.7982C55.99 30.8336 57.83 29.7114 59.96 29.7114C61.76 29.7114 62.59 30.3315 62.59 32.0148V33.0188H61.98C56.22 33.0188 53.65 34.8595 53.65 38.1374C53.65 41.1593 55.61 42.9114 58.53 42.9114C60.75 42.9114 61.7 42.1928 62.43 41.4447H62.59C62.62 41.8483 62.75 42.3799 62.87 42.685H66.55C66.42 41.4152 66.36 40.1356 66.36 38.8559V31.9852ZM73.21 31.4242C73.9 30.5875 75.01 29.8689 76.38 29.8689C77.71 29.8689 78.31 30.43 78.31 31.6112V42.685H82.08V31.2371C82.08 28.1168 80.81 26.7485 77.74 26.7485C75.49 26.7485 74.16 27.5557 73.4 28.3038H73.21L73.11 26.9946H69.43V42.685H73.21V31.4242ZM125.42 42.685H129.66L124.47 34.6036L128.97 26.9946H125.19L122.47 31.7391L119.42 26.9946H115.18L120 34.515L114.99 42.685H118.82L122.02 37.3893L125.42 42.685ZM91.75 29.613C93.78 29.613 94.79 31.2076 94.79 34.83C94.79 38.4819 93.72 40.0667 91.59 40.0667C89.53 40.0667 88.52 38.5114 88.52 34.9481C88.52 31.2371 89.6 29.613 91.75 29.613ZM107.7 29.613C109.57 29.613 110.14 31.1485 110.14 33.1074V33.4224H104.87C104.97 30.9221 105.89 29.613 107.7 29.613ZM62.59 38.9445C62.11 39.6336 61.22 40.1946 59.89 40.1946C58.31 40.1946 57.51 39.289 57.51 37.911C57.51 36.1096 58.81 35.4796 62.05 35.4796H62.59V38.9445Z" fill="#707070"/>
</svg>
