<svg width="166" height="64" viewBox="0 0 166 64" fill="none" xmlns="http://www.w3.org/2000/svg">
<path fill-rule="evenodd" clip-rule="evenodd" d="M13 23H16.2039L21.1576 37.6215H21.6576L26.778 23H29.9388L23.5454 40.742H19.1965L13 23ZM42.4367 40.742L35.8681 33.1406H35.1109V40.742H32.1657V23H35.1181V30.2177H35.8767L42.0876 23H45.7684L38.3076 31.552L46.3675 40.7478L42.4367 40.7391V40.742ZM56.3297 40.742V34.9792H59.5939C63.2288 34.9792 65.9341 32.504 65.9341 28.9867C65.9341 25.4694 63.2273 23 59.5925 23H53.3715V40.7406H56.3268L56.3297 40.742ZM62.6253 27.6829C62.7877 28.087 62.8638 28.5201 62.8509 28.9562C62.8656 29.3924 62.7899 29.8269 62.6286 30.2317C62.4673 30.6365 62.224 31.0027 61.9144 31.3066C61.6047 31.6106 61.2356 31.8456 60.8307 31.9965C60.4259 32.1474 59.9943 32.2108 59.5637 32.1828H56.3283V25.7354H59.5637C60.2114 25.6934 60.8557 25.8588 61.4053 26.2082C61.9548 26.5575 62.3817 27.073 62.6253 27.6815V27.6829ZM80.4621 34.9792H70.0388C70.1329 35.9433 70.5925 36.833 71.3211 37.4617C72.0497 38.0904 72.9907 38.4092 73.9466 38.3511C74.5881 38.3821 75.2273 38.2537 75.8084 37.977C76.3894 37.7003 76.8946 37.2839 77.2798 36.764L79.9621 37.216C78.9923 39.7072 76.4551 40.9949 73.7728 40.9949C72.881 41.0305 71.9916 40.879 71.1605 40.55C70.3294 40.221 69.5746 39.7215 68.9436 39.083C68.3126 38.4445 67.819 37.6808 67.494 36.84C67.1689 35.9992 67.0193 35.0994 67.0547 34.1972C67.0722 33.2837 67.2716 32.3831 67.6409 31.5493C68.0102 30.7155 68.5419 29.9656 69.2042 29.3443C69.8664 28.7231 70.6457 28.2433 71.4954 27.9336C72.3451 27.6239 73.2479 27.4907 74.1496 27.5419C75.0514 27.5932 75.9337 27.8278 76.7438 28.2317C77.5539 28.6357 78.2752 29.2007 78.8645 29.893C79.4539 30.5854 79.8993 31.3908 80.174 32.2612C80.4487 33.1316 80.5472 34.0491 80.4635 34.9588L80.4621 34.9792ZM70.2356 32.7176H77.4019C77.1956 31.917 76.7327 31.2082 76.0856 30.7021C75.4385 30.1961 74.6438 29.9215 73.8259 29.9212C73.0023 29.9046 72.1976 30.1726 71.5449 30.681C70.8921 31.1894 70.4303 31.9078 70.2356 32.7176ZM85.5825 35.53H86.2793L90.7259 40.7406H94.5131L88.568 33.9443L94.0131 27.6524H90.6052L86.2807 32.7409H85.5825V27.6539H82.7191V40.742H85.5825V35.5286V35.53ZM108.186 27.6524V40.7406H105.323V30.2962H101.369L101.096 35.8062C100.922 39.0328 99.3548 40.8641 96.7716 40.8641C96.389 40.8605 96.0068 40.8372 95.6265 40.7943L95.3464 38.0212H96.4225C97.6868 38.0212 98.1566 37.4151 98.2629 35.8294L98.7327 27.6219L108.186 27.6524ZM121.927 40.7406V33.392C121.927 29.5913 119.882 27.4228 116.579 27.3603C114.064 27.3603 111.853 28.6335 111.202 30.9328L113.837 31.3834C114.086 30.9103 114.46 30.5165 114.917 30.246C115.375 29.9755 115.898 29.8389 116.427 29.8515C117.996 29.8515 118.913 30.9851 119.041 32.7031H116.253C112.45 32.7031 110.557 34.3658 110.557 36.8018C110.557 39.2392 112.42 40.9789 115.057 40.9789C115.887 40.9933 116.708 40.7889 117.437 40.3858C118.166 39.9827 118.779 39.3947 119.216 38.6796L119.814 40.742H121.927V40.7406ZM116.352 34.9792H119.064C119.064 37.1157 117.76 38.5502 115.716 38.5502C114.337 38.5502 113.443 37.8221 113.443 36.6869C113.443 35.6841 114.163 34.9792 116.352 34.9792ZM124.957 27.6539H129.411L132.396 36.6186H132.797L135.941 27.6524H140.297V40.7406H137.561V31.0317H137.16L133.744 40.7406H131.327L128.093 31.0317H127.7V40.7406H124.957V27.6539ZM154 40.742V33.392C154 29.5913 151.954 27.4228 148.628 27.3603C146.114 27.3603 143.901 28.6335 143.251 30.9328L145.887 31.3834C146.135 30.9096 146.509 30.5153 146.967 30.2447C147.424 29.9741 147.947 29.8379 148.477 29.8515C150.045 29.8515 150.961 30.9851 151.091 32.7031H148.295C144.493 32.7031 142.6 34.3658 142.6 36.8018C142.6 39.2392 144.463 40.9789 147.098 40.9789C147.929 40.9942 148.75 40.7901 149.479 40.3869C150.208 39.9838 150.821 39.3953 151.257 38.6796L151.848 40.742H154ZM148.424 34.9792H151.137C151.137 37.1157 149.795 38.5502 147.788 38.5502C146.41 38.5502 145.516 37.8221 145.516 36.6869C145.516 35.6841 146.235 34.9792 148.424 34.9792Z" fill="#707070"/>
</svg>
