<svg width="166" height="64" viewBox="0 0 166 64" fill="none" xmlns="http://www.w3.org/2000/svg">
<path fill-rule="evenodd" clip-rule="evenodd" d="M60.1802 38.7131C61.0273 38.5976 61.6569 37.8684 61.6501 37.0106C61.6566 36.153 61.0269 35.4241 60.1799 35.3087C59.3329 35.1934 58.5325 35.7275 58.3109 36.5559H47.9814L57.5248 32.5896C58.045 33.2549 58.9687 33.4447 59.7077 33.0381C60.4467 32.6315 60.7839 31.748 60.5045 30.9502C60.2251 30.1523 59.4113 29.6745 58.5812 29.821C57.7512 29.9675 57.1488 30.6954 57.1576 31.5411C57.1603 31.6107 57.1673 31.6801 57.1785 31.7489L47.6343 35.7158L54.9399 28.3857C55.1937 28.5331 55.4813 28.6116 55.7745 28.6133C56.7156 28.6133 57.4786 27.8478 57.4786 26.9034C57.4786 25.9591 56.7156 25.1936 55.7745 25.1936C54.8333 25.1936 54.0704 25.9591 54.0704 26.9034C54.072 27.1982 54.1504 27.4875 54.2977 27.7424L46.9938 35.0721L50.9472 25.4949C51.0153 25.5061 51.0841 25.5131 51.1532 25.5158C51.9812 25.52 52.6911 24.9233 52.8323 24.1046C52.9734 23.2859 52.5045 22.4847 51.7232 22.2095C50.9419 21.9344 50.0768 22.2658 49.6771 22.9934C49.2773 23.721 49.4599 24.6319 50.1088 25.1479L46.1577 34.7235V24.3583C46.9797 24.1306 47.5074 23.3283 47.3929 22.4804C47.2784 21.6325 46.557 21 45.7042 21C44.8515 21 44.1301 21.6325 44.0156 22.4804C43.9011 23.3283 44.4288 24.1306 45.2508 24.3583V35.3702C44.4588 35.5888 43.9362 36.3448 44.0095 37.1657C44.0829 37.9866 44.7311 38.6373 45.5492 38.7111C46.3674 38.7849 47.1209 38.2607 47.339 37.466H58.3108C58.5323 38.2945 59.3331 38.8286 60.1802 38.7131ZM78.5597 38.2065L74.7362 30.839C75.6482 30.5834 76.4625 30.0587 77.0738 29.3331C77.7346 28.5109 78.0722 27.4741 78.0228 26.419C78.029 25.7506 77.9066 25.0872 77.6622 24.4655C77.4327 23.882 77.0797 23.3554 76.6277 22.9222C76.1605 22.4827 75.6109 22.1408 75.0107 21.9165C74.3296 21.6654 73.6081 21.5424 72.8826 21.5537H66.4624V38.2063H68.9566V31.1901H72.127L75.6228 38.2068L78.5597 38.2065ZM72.698 29.0347C73.4402 29.0691 74.169 28.828 74.7451 28.3573C75.2828 27.8704 75.5709 27.165 75.5287 26.4395C75.5692 25.7109 75.2815 25.0024 74.7451 24.5096C74.1722 24.0319 73.4422 23.7859 72.698 23.8196H68.9562V29.0346L72.698 29.0347ZM90.1427 31.9146C90.1509 31.1297 90.0369 30.3483 89.8047 29.5988C89.603 28.9393 89.2717 28.327 88.8304 27.7981C88.3986 27.2963 87.8611 26.8968 87.2567 26.6287C86.5877 26.3382 85.8645 26.1946 85.1357 26.2075C83.7437 26.1502 82.4013 26.7313 81.4875 27.7866C80.579 28.8389 80.1248 30.3319 80.1248 32.2654C80.101 33.2336 80.243 34.1988 80.5445 35.1189C80.7763 35.8237 81.1613 36.468 81.6716 37.0053C82.141 37.4781 82.7166 37.831 83.35 38.0345C84.0245 38.2497 84.7287 38.3562 85.4365 38.3502C85.9012 38.3542 86.3652 38.315 86.8228 38.2331C87.5916 38.0938 88.3178 37.7776 88.9443 37.3094C89.2703 37.0631 89.5779 36.7933 89.8649 36.5022L88.3493 35.0727C87.9894 35.4501 87.5676 35.7625 87.1022 35.9964C86.5899 36.2106 86.0371 36.3103 85.4825 36.2883C84.6414 36.3448 83.8196 36.0185 83.2447 35.3998C82.7005 34.7106 82.4275 33.8448 82.4776 32.9669H90.1427V31.9146ZM87.7884 31.3297C87.7786 31.0338 87.7515 30.7387 87.7073 30.4461C87.6587 30.1889 87.5765 29.9394 87.4629 29.7038C87.2836 29.2578 86.9749 28.876 86.5769 28.6081C86.1485 28.3259 85.6443 28.182 85.132 28.1957C84.6161 28.1832 84.1084 28.3269 83.675 28.6081C83.2716 28.873 82.9585 29.2554 82.7775 29.7038C82.6634 29.9382 82.5847 30.1884 82.5441 30.4461C82.5127 30.6744 82.4895 30.9689 82.4745 31.3297H87.7884ZM95.3596 34.7907C95.3341 35.1557 95.4328 35.5186 95.6396 35.8199C95.9023 36.0848 96.2711 36.2148 96.6412 36.1729H97.6888V38.2072H96.2204C95.7215 38.2189 95.2256 38.1273 94.7635 37.9384C94.3773 37.7775 94.031 37.5335 93.7491 37.2236C93.4831 36.9227 93.2849 36.5677 93.1684 36.1828C93.043 35.7776 92.9802 35.3556 92.9821 34.9314V21.5537H95.3596V34.7907ZM109.27 30.2767V38.2054H106.939V37.1295C106.556 37.5297 106.096 37.8477 105.586 38.0642C105.011 38.2692 104.402 38.3644 103.792 38.3446C103.156 38.3609 102.522 38.2706 101.915 38.0774C101.429 37.9105 100.987 37.6356 100.621 37.2729C99.9866 36.5841 99.6514 35.6698 99.69 34.7323C99.6607 33.8081 100.03 32.9161 100.704 32.285C101.379 31.6476 102.401 31.3291 103.769 31.3295H106.892V30.4811C106.942 29.8602 106.726 29.2475 106.298 28.7959C105.724 28.372 105.015 28.1749 104.305 28.2423C103.78 28.2196 103.256 28.3072 102.767 28.4996C102.351 28.7068 101.991 29.0119 101.717 29.3886L100.156 27.9152C100.635 27.3198 101.257 26.857 101.964 26.5703C102.748 26.307 103.572 26.1844 104.399 26.208C107.646 26.2076 109.269 27.5639 109.27 30.2767ZM104.118 32.9664H106.892L106.892 33.928C106.955 34.5574 106.771 35.1865 106.379 35.6819C106.111 35.97 105.762 36.1696 105.378 36.2549C104.978 36.3287 104.572 36.3639 104.165 36.3599C103.584 36.407 103.005 36.2544 102.521 35.9272C102.161 35.6154 101.967 35.1523 101.997 34.6758C101.969 34.1933 102.167 33.7253 102.533 33.4112C102.994 33.0832 103.555 32.926 104.118 32.9664ZM122 32.2648C122 32.7172 121.988 33.1772 121.965 33.6449C121.943 34.1048 121.885 34.5622 121.79 35.0128C121.701 35.4439 121.564 35.8637 121.383 36.2642C121.208 36.6474 120.967 36.996 120.67 37.2935C120.318 37.636 119.897 37.8985 119.435 38.0632C118.356 38.4403 117.181 38.4362 116.105 38.0517C115.558 37.8199 115.077 37.4541 114.706 36.9878V43H112.325V26.3474H114.655V27.6119C115.025 27.1289 115.51 26.7468 116.066 26.5008C116.614 26.2959 117.195 26.1968 117.779 26.2088C118.34 26.2037 118.896 26.2988 119.423 26.4898C119.889 26.6525 120.315 26.9152 120.67 27.2595C120.967 27.5574 121.208 27.906 121.383 28.2888C121.564 28.6858 121.701 29.1016 121.79 29.5287C121.885 29.9755 121.944 30.4293 121.965 30.8856C121.988 31.3533 122 31.8129 122 32.2648ZM119.542 30.7567C119.597 31.2575 119.624 31.761 119.623 32.2649C119.624 32.7687 119.597 33.2722 119.542 33.773C119.498 34.2101 119.384 34.6372 119.204 35.0376C119.043 35.3919 118.784 35.6924 118.458 35.903C117.651 36.3236 116.69 36.3236 115.883 35.903C115.56 35.6879 115.302 35.3887 115.137 35.0376C114.949 34.6394 114.83 34.2115 114.787 33.773C114.679 32.7705 114.679 31.7592 114.787 30.7567C114.83 30.3223 114.948 29.8987 115.137 29.5054C115.304 29.1586 115.562 28.8637 115.883 28.6514C116.69 28.2303 117.651 28.2303 118.458 28.6514C118.782 28.8595 119.041 29.1556 119.204 29.5054C119.385 29.9008 119.499 30.3237 119.542 30.7567Z" fill="#434343"/>
</svg>
